<?xml version="1.0" encoding="UTF-8"?>
<!DOCTYPE svg PUBLIC "-//W3C//DTD SVG 1.1//EN" "http://www.w3.org/Graphics/SVG/1.1/DTD/svg11.dtd">
<svg xmlns="http://www.w3.org/2000/svg" version="1.1" width="670px" height="400px" style="shape-rendering:geometricPrecision; text-rendering:geometricPrecision; image-rendering:optimizeQuality; fill-rule:evenodd; clip-rule:evenodd" xmlns:xlink="http://www.w3.org/1999/xlink">
<g><path style="opacity:1" fill="#2c4e8d" d="M 460.5,2.5 C 518.51,-2.99786 573.177,7.83547 624.5,35C 633.818,40.0841 641.651,46.9174 648,55.5C 655.473,70.1159 662.14,85.1159 668,100.5C 668.953,112.355 666.286,123.355 660,133.5C 645.324,154.505 626.157,170.005 602.5,180C 554.829,199.859 505.162,208.193 453.5,205C 440.711,202.576 427.878,200.409 415,198.5C 413.167,198.667 411.333,198.833 409.5,199C 407.792,201.043 405.792,202.71 403.5,204C 370.347,218.6 336.014,223.433 300.5,218.5C 294.102,218 292.435,215.167 295.5,210C 317.759,205.456 336.926,195.29 353,179.5C 353.49,178.207 353.657,176.873 353.5,175.5C 323.41,165.237 304.577,144.571 297,113.5C 296.333,106.167 296.333,98.8333 297,91.5C 305.387,73.7669 316.887,58.2669 331.5,45C 353.803,28.5171 378.47,16.8504 405.5,10C 423.837,6.41791 442.17,3.91791 460.5,2.5 Z"/></g>
<g><path style="opacity:1" fill="#fcfcfd" d="M 479.5,195.5 C 472.833,196.833 466.167,196.833 459.5,195.5C 459.489,193.983 458.823,192.816 457.5,192C 450.681,189.09 444.015,185.923 437.5,182.5C 436.5,182.833 435.833,183.5 435.5,184.5C 438.746,189.236 443.079,192.736 448.5,195C 439.452,194.326 430.452,192.993 421.5,191C 415.833,190.333 410.167,190.333 404.5,191C 390.51,201.225 374.843,207.558 357.5,210C 350.247,211.598 342.914,212.431 335.5,212.5C 330.968,212.818 326.634,212.485 322.5,211.5C 334.088,206.373 345.088,200.206 355.5,193C 358.704,190.131 361.537,186.965 364,183.5C 365.266,179.605 365.766,175.605 365.5,171.5C 335.127,162.457 316.294,142.457 309,111.5C 306.967,94.4053 312.134,79.9053 324.5,68C 332.803,60.6978 340.803,53.0311 348.5,45C 380.501,23.6678 415.834,12.3345 454.5,11C 505.942,5.78538 555.276,13.452 602.5,34C 606.993,36.079 611.326,38.4123 615.5,41C 614.761,42.7646 614.761,44.7646 615.5,47C 617.669,47.4294 619.669,46.9294 621.5,45.5C 623.167,46.6667 624.833,47.8333 626.5,49C 623.143,50.5125 621.143,53.0125 620.5,56.5C 624.069,55.8111 627.569,54.8111 631,53.5C 633.185,55.3531 635.018,57.5197 636.5,60C 633.736,60.5323 631.07,61.3657 628.5,62.5C 627.614,63.325 627.281,64.325 627.5,65.5C 631.559,65.4341 635.559,65.2674 639.5,65C 640.399,67.1917 641.399,69.3584 642.5,71.5C 638.718,72.7054 635.052,74.2054 631.5,76C 630.663,77.0113 630.33,78.1779 630.5,79.5C 635.101,79.5331 639.601,78.8665 644,77.5C 646.223,79.2802 647.39,81.6135 647.5,84.5C 641.423,84.79 635.756,86.4567 630.5,89.5C 636.504,90.7495 642.504,90.7495 648.5,89.5C 651.108,91.0437 652.442,93.3771 652.5,96.5C 645.341,97.206 638.341,98.706 631.5,101C 630.663,102.011 630.33,103.178 630.5,104.5C 638.56,104.491 646.56,103.824 654.5,102.5C 654.5,105.5 654.5,108.5 654.5,111.5C 643.009,111.701 631.676,113.034 620.5,115.5C 630.743,118.205 641.076,118.872 651.5,117.5C 652.081,121.28 651.081,124.78 648.5,128C 637.197,127.153 625.863,126.819 614.5,127C 623.916,130.526 633.583,133.359 643.5,135.5C 641.712,137.576 640.046,139.743 638.5,142C 629.935,140.221 621.268,138.554 612.5,137C 606.5,136.333 600.5,136.333 594.5,137C 596.275,138.439 598.275,139.439 600.5,140C 611.384,142.032 622.051,144.698 632.5,148C 629.78,150.745 626.613,152.579 623,153.5C 610.871,151.695 598.704,150.195 586.5,149C 585.294,151.709 586.294,153.375 589.5,154C 599.107,156.039 608.774,157.706 618.5,159C 615.42,161.29 612.253,163.457 609,165.5C 593.247,159.947 577.081,158.114 560.5,160C 559.273,161.587 559.606,162.921 561.5,164C 574.061,165.093 586.394,167.26 598.5,170.5C 594.669,173.165 590.502,175.165 586,176.5C 572.245,174.949 558.745,172.115 545.5,168C 540.875,166.838 536.208,166.504 531.5,167C 536.202,170.798 541.535,173.465 547.5,175C 556.632,177.95 565.965,179.95 575.5,181C 570.399,182.734 565.232,184.234 560,185.5C 551.372,182.774 542.539,180.941 533.5,180C 527.5,178 521.5,176 515.5,174C 512.446,173.179 509.446,173.345 506.5,174.5C 518.62,182.376 531.954,187.21 546.5,189C 539.55,190.714 532.55,192.214 525.5,193.5C 525.773,191.549 525.107,190.049 523.5,189C 512.229,185.132 500.895,181.465 489.5,178C 487.5,177.333 485.5,177.333 483.5,178C 483.043,178.414 482.709,178.914 482.5,179.5C 492.738,185.972 503.738,190.805 515.5,194C 510.039,195.063 504.539,195.896 499,196.5C 485.354,190.007 471.187,185.007 456.5,181.5C 456.297,183.39 456.963,184.89 458.5,186C 465.027,190.264 472.027,193.431 479.5,195.5 Z"/></g>
<g><path style="opacity:1" fill="#385793" d="M 398.5,44.5 C 401.167,44.5 403.833,44.5 406.5,44.5C 406.5,45.5 406.5,46.5 406.5,47.5C 405.5,47.5 404.5,47.5 403.5,47.5C 403.521,55.6776 403.855,63.8443 404.5,72C 404.625,75.3552 404.125,78.5219 403,81.5C 401.523,70.3289 401.023,58.9956 401.5,47.5C 399.712,47.7852 398.045,47.4519 396.5,46.5C 397.243,45.8182 397.909,45.1515 398.5,44.5 Z"/></g>
<g><path style="opacity:1" fill="#375693" d="M 462.5,74.5 C 462.174,66.3159 462.508,58.3159 463.5,50.5C 464.33,59.324 464.83,68.324 465,77.5C 467.454,79.013 469.121,78.3463 470,75.5C 470.833,66.5 471.667,57.5 472.5,48.5C 473.665,56.4792 473.832,64.4792 473,72.5C 472.641,76.5786 470.807,79.5786 467.5,81.5C 464.135,80.4526 462.468,78.1193 462.5,74.5 Z"/></g>
<g><path style="opacity:1" fill="#2c4e8d" d="M 418.5,66.5 C 417.432,65.5655 416.099,65.2322 414.5,65.5C 414.5,70.1667 414.5,74.8333 414.5,79.5C 414.44,80.0431 414.107,80.3764 413.5,80.5C 412.167,70.1667 412.167,59.8333 413.5,49.5C 414.493,54.1196 414.827,58.7863 414.5,63.5C 415.919,64.4511 417.585,64.7845 419.5,64.5C 419.81,61.2869 419.477,58.2869 418.5,55.5C 418.5,53.1667 418.5,50.8333 418.5,48.5C 419.5,48.5 420.5,48.5 421.5,48.5C 421.832,59.1874 421.499,69.8541 420.5,80.5C 419.914,80.2907 419.414,79.9574 419,79.5C 418.501,75.1794 418.334,70.8461 418.5,66.5 Z"/></g>
<g><path style="opacity:1" fill="#224889" d="M 434.5,63.5 C 433.167,63.5 431.833,63.5 430.5,63.5C 430.5,68.8333 430.5,74.1667 430.5,79.5C 432.167,79.5 433.833,79.5 435.5,79.5C 436.738,79.81 436.738,80.31 435.5,81C 433.19,81.4966 430.857,81.6633 428.5,81.5C 428.5,70.8333 428.5,60.1667 428.5,49.5C 430.527,49.3379 432.527,49.5045 434.5,50C 434.957,50.414 435.291,50.914 435.5,51.5C 434.224,52.6446 432.891,52.6446 431.5,51.5C 430.513,54.7683 430.18,58.1016 430.5,61.5C 432.483,61.1568 433.817,61.8235 434.5,63.5 Z"/></g>
<g><path style="opacity:1" fill="#31528f" d="M 450.5,49.5 C 453.167,49.5 455.833,49.5 458.5,49.5C 458.5,50.5 458.5,51.5 458.5,52.5C 457.07,52.5792 455.736,52.2458 454.5,51.5C 452.984,56.039 453.317,60.3723 455.5,64.5C 454.675,65.3857 453.675,65.719 452.5,65.5C 452.666,70.5111 452.499,75.5111 452,80.5C 450.633,81.5243 449.8,81.0243 449.5,79C 450.463,69.2071 450.796,59.3737 450.5,49.5 Z"/></g>
<g><path style="opacity:1" fill="#3b5994" d="M 476.5,50.5 C 479.687,49.1944 483.02,49.1944 486.5,50.5C 485.675,51.3857 484.675,51.719 483.5,51.5C 484.364,61.1813 484.364,70.848 483.5,80.5C 481.894,70.8989 480.894,61.2322 480.5,51.5C 479.041,51.5674 477.708,51.2341 476.5,50.5 Z"/></g>
<g><path style="opacity:1" fill="#355692" d="M 509.5,48.5 C 512.099,48.5494 514.266,49.5494 516,51.5C 516.69,56.142 516.19,60.642 514.5,65C 515.21,70.1745 516.543,75.1745 518.5,80C 517.99,81.8261 517.156,81.9928 516,80.5C 514.287,75.6036 512.954,70.6036 512,65.5C 511.829,70.8642 511.329,76.1975 510.5,81.5C 509.501,70.5202 509.168,59.5202 509.5,48.5 Z"/></g>
<g><path style="opacity:1" fill="#375893" d="M 524.5,49.5 C 527.157,49.162 529.49,49.8287 531.5,51.5C 529.955,52.4519 528.288,52.7852 526.5,52.5C 526.5,55.5 526.5,58.5 526.5,61.5C 531.833,62.5 531.833,63.5 526.5,64.5C 526.5,69.5 526.5,74.5 526.5,79.5C 528.288,79.2148 529.955,79.5481 531.5,80.5C 528.966,81.7766 526.466,81.7766 524,80.5C 523.192,70.0899 523.359,59.7565 524.5,49.5 Z"/></g>
<g><path style="opacity:1" fill="#355591" d="M 544.5,49.5 C 546.924,49.1924 549.257,49.5258 551.5,50.5C 550.675,51.3857 549.675,51.719 548.5,51.5C 548.598,60.2095 549.265,68.8761 550.5,77.5C 551.5,77.8333 552.167,78.5 552.5,79.5C 549.833,80.8333 547.167,80.8333 544.5,79.5C 545.777,74.8468 546.443,70.0135 546.5,65C 546.394,59.6602 545.727,54.4935 544.5,49.5 Z"/></g>
<g><path style="opacity:1" fill="#345491" d="M 500.5,48.5 C 501.5,48.5 502.5,48.5 503.5,48.5C 503.839,57.2259 503.339,65.8926 502,74.5C 501.416,79.7912 498.75,81.7912 494,80.5C 493.027,78.6079 492.36,76.6079 492,74.5C 491.168,66.1467 491.335,57.8134 492.5,49.5C 493.182,58.8543 494.016,68.1876 495,77.5C 495.561,78.0219 496.228,78.3552 497,78.5C 498.735,77.3181 499.735,75.6515 500,73.5C 500.5,65.1733 500.666,56.84 500.5,48.5 Z"/></g>
<g><path style="opacity:1" fill="#e5e9f1" d="M 511.5,50.5 C 513.478,51.3171 514.478,52.8171 514.5,55C 514.066,57.6342 513.233,60.1342 512,62.5C 511.501,58.5138 511.334,54.5138 511.5,50.5 Z"/></g>
<g><path style="opacity:1" fill="#6580ad" d="M 463.5,50.5 C 462.508,58.3159 462.174,66.3159 462.5,74.5C 461.179,66.3242 461.179,57.9909 462.5,49.5C 463.107,49.6236 463.44,49.9569 463.5,50.5 Z"/></g>
<g><path style="opacity:1" fill="#899dc0" d="M 418.5,55.5 C 419.477,58.2869 419.81,61.2869 419.5,64.5C 417.585,64.7845 415.919,64.4511 414.5,63.5C 415.833,63.5 417.167,63.5 418.5,63.5C 418.5,60.8333 418.5,58.1667 418.5,55.5 Z"/></g>
<g><path style="opacity:1" fill="#385793" d="M 557.5,48.5 C 562.422,49.3344 562.589,50.6677 558,52.5C 557.833,53.5 557.667,54.5 557.5,55.5C 559.645,60.9547 561.645,66.4547 563.5,72C 563.701,76.4408 561.868,79.6075 558,81.5C 556.941,81.3699 556.108,80.8699 555.5,80C 559.728,79.2635 561.395,76.7635 560.5,72.5C 560.155,67.8006 558.655,63.4673 556,59.5C 555.112,55.5979 555.612,51.9312 557.5,48.5 Z"/></g>
<g><path style="opacity:1" fill="#99abc9" d="M 434.5,63.5 C 433.791,64.404 432.791,64.7373 431.5,64.5C 431.5,69.1667 431.5,73.8333 431.5,78.5C 433.099,78.2322 434.432,78.5655 435.5,79.5C 433.833,79.5 432.167,79.5 430.5,79.5C 430.5,74.1667 430.5,68.8333 430.5,63.5C 431.833,63.5 433.167,63.5 434.5,63.5 Z"/></g>
<g><path style="opacity:1" fill="#b3c0d7" d="M 418.5,66.5 C 417.5,66.5 416.5,66.5 415.5,66.5C 415.818,71.0323 415.485,75.3656 414.5,79.5C 414.5,74.8333 414.5,70.1667 414.5,65.5C 416.099,65.2322 417.432,65.5655 418.5,66.5 Z"/></g>
<g><path style="opacity:1" fill="#2b4d8c" d="M 245.5,216.5 C 243.821,216.285 242.821,216.952 242.5,218.5C 234.152,238.845 220.485,254.512 201.5,265.5C 200.571,266.689 200.238,268.022 200.5,269.5C 200.5,274.5 200.5,279.5 200.5,284.5C 203.167,284.5 205.833,284.5 208.5,284.5C 231.831,286.799 254.498,291.966 276.5,300C 299.772,311.266 316.272,327.766 326,349.5C 330.034,358.492 331.534,367.826 330.5,377.5C 329.205,378.098 327.872,378.598 326.5,379C 325.547,380.955 324.213,382.622 322.5,384C 300.898,389.951 278.898,393.618 256.5,395C 195.48,399.791 134.48,399.458 73.5,394C 58.7854,390.54 44.1187,386.873 29.5,383C 22.5776,381.457 15.5776,380.457 8.5,380C 6.09881,379.205 3.93214,378.038 2,376.5C -0.1431,368.404 0.190233,360.404 3,352.5C 11.9511,332.882 25.7845,317.715 44.5,307C 71.8504,294.273 100.517,286.106 130.5,282.5C 129.105,275.427 130.438,268.927 134.5,263C 116.387,253.887 102.553,240.387 93,222.5C 78.6016,218.761 70.6016,209.428 69,194.5C 67.7956,185.893 68.7956,177.559 72,169.5C 72.9959,167.34 74.4959,165.673 76.5,164.5C 78.4612,157.913 79.1279,150.913 78.5,143.5C 81.2078,126.539 87.7078,111.205 98,97.5C 105.578,89.1351 115.078,85.1351 126.5,85.5C 159.71,62.9943 194.043,61.4943 229.5,81C 243.243,91.1006 251.743,104.601 255,121.5C 256.996,132.398 257.996,143.398 258,154.5C 260.151,157.216 259.984,159.716 257.5,162C 267.864,180.133 266.197,197.133 252.5,213C 250.423,214.705 248.09,215.872 245.5,216.5 Z"/></g>
<g><path style="opacity:1" fill="#f9fafc" d="M 134.5,93.5 C 133.737,92.7321 132.737,92.2321 131.5,92C 132.381,91.2917 133.047,90.4584 133.5,89.5C 163.864,72.4577 194.531,72.2911 225.5,89C 233.635,95.0956 239.468,102.929 243,112.5C 247.55,126.136 249.384,140.136 248.5,154.5C 236.709,155.515 225.376,153.681 214.5,149C 198.407,141.537 182.574,133.703 167,125.5C 164.278,125.886 162.445,127.386 161.5,130C 162.691,134.12 163.691,138.286 164.5,142.5C 164.267,143.932 163.6,144.432 162.5,144C 144.332,131.812 134.998,114.978 134.5,93.5 Z"/></g>
<g><path style="opacity:1" fill="#264b8b" d="M 159.5,82.5 C 178.064,82.9501 195.397,87.7835 211.5,97C 213.684,99.0165 215.684,101.183 217.5,103.5C 215.235,104.647 212.902,104.814 210.5,104C 202.049,100.608 193.716,96.9415 185.5,93C 176.486,89.3299 167.153,87.9965 157.5,89C 155.051,89.7246 152.717,90.7246 150.5,92C 166.015,95.0352 181.348,98.7019 196.5,103C 197.833,104 197.833,105 196.5,106C 191.5,106.667 186.5,106.667 181.5,106C 171.519,103.393 161.519,100.893 151.5,98.5C 159.043,104.978 168.043,110.145 178.5,114C 189.117,116.16 199.784,117.994 210.5,119.5C 210.5,120.5 210.5,121.5 210.5,122.5C 185.456,125.735 164.289,118.069 147,99.5C 148.636,106.447 151.136,113.114 154.5,119.5C 146.979,116.514 142.812,110.847 142,102.5C 142.066,99.422 141.899,96.422 141.5,93.5C 142.942,90.2231 145.275,87.7231 148.5,86C 152.161,84.4075 155.828,83.2408 159.5,82.5 Z"/></g>
<g><path style="opacity:1" fill="#7f97bd" d="M 133.5,89.5 C 133.047,90.4584 132.381,91.2917 131.5,92C 132.737,92.2321 133.737,92.7321 134.5,93.5C 133.167,93.5 131.833,93.5 130.5,93.5C 130.5,93.1667 130.5,92.8333 130.5,92.5C 130.5,90.5 131.5,89.5 133.5,89.5 Z"/></g>
<g><path style="opacity:1" fill="#2a4e8d" d="M 575.5,101.5 C 576.794,103.048 577.461,105.048 577.5,107.5C 576.889,115.493 576.389,123.493 576,131.5C 574.856,126.671 574.356,121.671 574.5,116.5C 574.525,111.421 574.858,106.421 575.5,101.5 Z"/></g>
<g><path style="opacity:1" fill="#f5f6f9" d="M 130.5,92.5 C 130.5,92.8333 130.5,93.1667 130.5,93.5C 128.182,95.1852 127.182,97.5185 127.5,100.5C 124.729,100.421 122.063,100.921 119.5,102C 113.236,105.27 107.236,108.936 101.5,113C 95.6865,118.144 96.3532,119.81 103.5,118C 108.833,114.333 114.167,110.667 119.5,107C 121.65,105.589 123.984,104.755 126.5,104.5C 126.719,105.675 126.386,106.675 125.5,107.5C 118.078,112.088 111.078,117.255 104.5,123C 101.306,125.149 99.4724,127.982 99,131.5C 108.199,125.9 116.866,119.567 125,112.5C 122.953,119.916 119.287,126.583 114,132.5C 105.572,140.264 96.5722,147.264 87,153.5C 87.7323,138.628 91.7323,124.628 99,111.5C 102.586,103.579 108.42,98.0795 116.5,95C 121.122,93.8436 125.789,93.0103 130.5,92.5 Z"/></g>
<g><path style="opacity:1" fill="#315390" d="M 385.5,106.5 C 390.287,107.156 393.454,109.822 395,114.5C 395.667,120.5 395.667,126.5 395,132.5C 393.1,137.459 389.767,139.126 385,137.5C 384.192,127.09 384.359,116.757 385.5,106.5 Z"/></g>
<g><path style="opacity:1" fill="#395793" d="M 404.5,109.5 C 403.521,112.625 403.187,115.958 403.5,119.5C 404.833,119.5 406.167,119.5 407.5,119.5C 407.179,121.048 406.179,121.715 404.5,121.5C 404.5,126.5 404.5,131.5 404.5,136.5C 406.288,136.215 407.955,136.548 409.5,137.5C 407.337,139.72 404.837,140.053 402,138.5C 401.333,128.167 401.333,117.833 402,107.5C 404.081,106.667 406.248,106.667 408.5,107.5C 408.5,108.5 408.5,109.5 408.5,110.5C 407.041,110.567 405.708,110.234 404.5,109.5 Z"/></g>
<g><path style="opacity:1" fill="#395893" d="M 431.5,109.5 C 430.521,112.625 430.187,115.958 430.5,119.5C 431.833,119.5 433.167,119.5 434.5,119.5C 434.179,121.048 433.179,121.715 431.5,121.5C 431.5,126.5 431.5,131.5 431.5,136.5C 433.288,136.215 434.955,136.548 436.5,137.5C 434.337,139.72 431.837,140.053 429,138.5C 428.333,128.167 428.333,117.833 429,107.5C 431.081,106.667 433.248,106.667 435.5,107.5C 435.5,108.5 435.5,109.5 435.5,110.5C 434.041,110.567 432.708,110.234 431.5,109.5 Z"/></g>
<g><path style="opacity:1" fill="#2e508e" d="M 443.5,106.5 C 445.074,106.937 446.241,107.937 447,109.5C 450.085,117.423 452.752,125.423 455,133.5C 455.5,124.84 455.666,116.173 455.5,107.5C 456.5,107.5 457.5,107.5 458.5,107.5C 458.176,117.505 457.676,127.505 457,137.5C 455.989,138.337 454.822,138.67 453.5,138.5C 451.581,129.576 448.748,120.909 445,112.5C 444.185,120.746 444.352,128.912 445.5,137C 444.975,137.692 444.308,138.192 443.5,138.5C 442.192,127.772 442.192,117.106 443.5,106.5 Z"/></g>
<g><path style="opacity:1" fill="#365692" d="M 462.5,106.5 C 465.5,106.5 468.5,106.5 471.5,106.5C 471.5,107.5 471.5,108.5 471.5,109.5C 470.5,109.5 469.5,109.5 468.5,109.5C 469.328,148.142 468.495,148.142 466,109.5C 464.271,109.026 463.105,108.026 462.5,106.5 Z"/></g>
<g><path style="opacity:1" fill="#355692" d="M 477.5,106.5 C 480.325,106.081 482.491,107.081 484,109.5C 484.731,113.983 484.231,118.317 482.5,122.5C 483.138,127.858 484.471,133.025 486.5,138C 486.167,138.5 485.833,139 485.5,139.5C 484.029,138.619 483.196,137.286 483,135.5C 482,131.167 481,126.833 480,122.5C 479.829,127.864 479.329,133.198 478.5,138.5C 477.501,127.854 477.168,117.187 477.5,106.5 Z"/></g>
<g><path style="opacity:1" fill="#30528f" d="M 506.5,106.5 C 508.474,116.111 509.141,126.111 508.5,136.5C 510.75,136.181 512.75,136.681 514.5,138C 511.518,138.498 508.518,138.665 505.5,138.5C 506.043,127.841 506.377,117.175 506.5,106.5 Z"/></g>
<g><path style="opacity:1" fill="#446199" d="M 518.5,106.5 C 520.167,106.5 521.833,106.5 523.5,106.5C 521.115,116.086 521.115,125.753 523.5,135.5C 524.308,135.808 524.975,136.308 525.5,137C 523.045,138.54 520.379,138.874 517.5,138C 516.391,136.187 517.058,135.354 519.5,135.5C 519.533,126.291 518.533,117.291 516.5,108.5C 517.243,107.818 517.909,107.151 518.5,106.5 Z"/></g>
<g><path style="opacity:1" fill="#3a5994" d="M 531.5,106.5 C 533.527,106.338 535.527,106.505 537.5,107C 538.022,107.561 538.355,108.228 538.5,109C 535.864,117.744 533.53,126.578 531.5,135.5C 532.833,135.5 534.167,135.5 535.5,135.5C 535.5,136.5 535.5,137.5 535.5,138.5C 533.167,138.5 530.833,138.5 528.5,138.5C 529.811,128.571 532.145,118.904 535.5,109.5C 534.127,109.657 532.793,109.49 531.5,109C 530.402,108.23 530.402,107.397 531.5,106.5 Z"/></g>
<g><path style="opacity:1" fill="#3e5d97" d="M 544.5,106.5 C 547.226,106.264 549.559,107.097 551.5,109C 550.135,110.682 548.635,110.849 547,109.5C 546.502,112.817 546.335,116.15 546.5,119.5C 551.833,120.167 551.833,120.833 546.5,121.5C 546.5,126.5 546.5,131.5 546.5,136.5C 548.288,136.215 549.955,136.548 551.5,137.5C 549.337,139.72 546.837,140.053 544,138.5C 543.192,127.757 543.358,117.09 544.5,106.5 Z"/></g>
<g><path style="opacity:1" fill="#335491" d="M 557.5,106.5 C 565.739,108.781 569.405,114.281 568.5,123C 569.091,128.804 567.425,133.804 563.5,138C 561.527,138.495 559.527,138.662 557.5,138.5C 557.5,127.833 557.5,117.167 557.5,106.5 Z"/></g>
<g><path style="opacity:1" fill="#395893" d="M 418.5,106.5 C 424.893,107.463 424.727,108.796 418,110.5C 415.861,118.935 416.027,127.268 418.5,135.5C 420.167,136.167 421.833,136.833 423.5,137.5C 421.166,139.987 418.666,139.987 416,137.5C 413.579,130.015 412.912,122.348 414,114.5C 414.738,111.352 416.238,108.685 418.5,106.5 Z"/></g>
<g><path style="opacity:1" fill="#f6f8fa" d="M 479.5,108.5 C 481.927,111.81 482.093,115.477 480,119.5C 479.501,115.848 479.335,112.182 479.5,108.5 Z"/></g>
<g><path style="opacity:1" fill="#f5f7fa" d="M 389.5,135.5 C 388.833,131.167 388.167,126.833 387.5,122.5C 387.174,118.116 387.508,113.783 388.5,109.5C 390.718,110.924 392.218,112.924 393,115.5C 393.667,119.833 393.667,124.167 393,128.5C 392.861,131.445 391.694,133.779 389.5,135.5 Z"/></g>
<g><path style="opacity:1" fill="#f1f3f7" d="M 559.5,109.5 C 562.595,109.626 564.428,111.293 565,114.5C 565.667,120.167 565.667,125.833 565,131.5C 564.376,133.754 563.043,135.421 561,136.5C 560.215,127.513 559.715,118.513 559.5,109.5 Z"/></g>
<g><path style="opacity:1" fill="#91a5c5" d="M 404.5,109.5 C 404.5,112.5 404.5,115.5 404.5,118.5C 405.791,118.263 406.791,118.596 407.5,119.5C 406.167,119.5 404.833,119.5 403.5,119.5C 403.187,115.958 403.521,112.625 404.5,109.5 Z"/></g>
<g><path style="opacity:1" fill="#8da1c2" d="M 431.5,109.5 C 431.5,112.5 431.5,115.5 431.5,118.5C 432.791,118.263 433.791,118.596 434.5,119.5C 433.167,119.5 431.833,119.5 430.5,119.5C 430.187,115.958 430.521,112.625 431.5,109.5 Z"/></g>
<g><path style="opacity:1" fill="#f9c078" d="M 246.5,182.5 C 247.163,180.359 247.497,178.025 247.5,175.5C 247.685,171.859 247.019,168.526 245.5,165.5C 245.5,165.167 245.5,164.833 245.5,164.5C 245.842,163.662 246.508,163.328 247.5,163.5C 258.09,177.791 258.09,192.124 247.5,206.5C 246.833,205.167 246.167,203.833 245.5,202.5C 243.151,198.196 239.984,197.53 236,200.5C 231.627,219.416 222.46,235.582 208.5,249C 188.613,263.319 167.28,265.986 144.5,257C 118.111,245.608 101.444,225.942 94.5,198C 92.8876,197.28 91.3876,197.446 90,198.5C 89.8265,202.541 89.3265,206.541 88.5,210.5C 79.6513,204.048 75.6513,195.215 76.5,184C 75.7541,177.218 77.9208,171.718 83,167.5C 83.0306,171.768 84.0306,175.768 86,179.5C 88,180.833 90,180.833 92,179.5C 91.4112,171.564 93.0779,164.231 97,157.5C 104.667,150.5 112.333,143.5 120,136.5C 123.894,130.601 126.894,124.268 129,117.5C 136.005,130.978 145.505,142.478 157.5,152C 161.594,154.198 165.927,155.698 170.5,156.5C 173.732,156.265 175.732,154.598 176.5,151.5C 175.17,147.197 174.337,142.863 174,138.5C 192.713,150.401 212.879,158.567 234.5,163C 235.46,164.419 236.293,165.919 237,167.5C 237.333,173.167 237.667,178.833 238,184.5C 240.153,186.444 242.653,186.944 245.5,186C 246.337,184.989 246.67,183.822 246.5,182.5 Z"/></g>
<g><path style="opacity:1" fill="#3d5a95" d="M 494.5,106.5 C 495.833,106.5 497.167,106.5 498.5,106.5C 498.687,117.271 499.687,127.937 501.5,138.5C 500.5,138.5 499.5,138.5 498.5,138.5C 498.5,136.167 498.5,133.833 498.5,131.5C 496.5,131.167 494.5,130.833 492.5,130.5C 492.663,132.857 492.497,135.19 492,137.5C 490.989,138.337 489.822,138.67 488.5,138.5C 490.966,127.898 492.966,117.231 494.5,106.5 Z"/></g>
<g><path style="opacity:1" fill="#e0e5ee" d="M 495.5,112.5 C 497.012,117.929 497.679,123.596 497.5,129.5C 496.167,129.5 494.833,129.5 493.5,129.5C 493.684,123.769 494.35,118.102 495.5,112.5 Z"/></g>
<g><path style="opacity:1" fill="#9fb0cc" d="M 387.5,122.5 C 388.167,126.833 388.833,131.167 389.5,135.5C 389.44,136.043 389.107,136.376 388.5,136.5C 387.507,131.88 387.173,127.214 387.5,122.5 Z"/></g>
<g><path style="opacity:1" fill="#385894" d="M 574.5,135.5 C 575.995,135.415 576.995,136.081 577.5,137.5C 576.68,139.111 575.346,139.778 573.5,139.5C 573.433,138.041 573.766,136.708 574.5,135.5 Z"/></g>
<g><path style="opacity:1" fill="#738bb4" d="M 78.5,143.5 C 79.1279,150.913 78.4612,157.913 76.5,164.5C 77.134,157.4 77.8007,150.4 78.5,143.5 Z"/></g>
<g><path style="opacity:1" fill="#bbc8db" d="M 247.5,163.5 C 246.508,163.328 245.842,163.662 245.5,164.5C 244.115,163.698 244.282,163.031 246,162.5C 246.765,162.57 247.265,162.903 247.5,163.5 Z"/></g>
<g><path style="opacity:1" fill="#6f86b2" d="M 245.5,165.5 C 247.019,168.526 247.685,171.859 247.5,175.5C 247.497,178.025 247.163,180.359 246.5,182.5C 246.625,176.797 246.292,171.13 245.5,165.5 Z"/></g>
<g><path style="opacity:1" fill="#284b8b" d="M 127.5,179.5 C 139.709,179.92 144.209,186.254 141,198.5C 137.691,205.48 132.525,207.314 125.5,204C 120.798,199.078 119.298,193.245 121,186.5C 122.425,183.394 124.592,181.06 127.5,179.5 Z"/></g>
<g><path style="opacity:1" fill="#2b4d8c" d="M 195.5,179.5 C 207.231,179.074 212.064,184.741 210,196.5C 207.866,205.306 202.699,207.806 194.5,204C 188.514,198.993 187.014,192.826 190,185.5C 191.803,183.377 193.637,181.377 195.5,179.5 Z"/></g>
<g><path style="opacity:1" fill="#b3c0d6" d="M 459.5,195.5 C 466.167,196.833 472.833,196.833 479.5,195.5C 480.289,195.783 480.956,196.283 481.5,197C 473.812,197.831 466.145,197.665 458.5,196.5C 458.624,195.893 458.957,195.56 459.5,195.5 Z"/></g>
<g><path style="opacity:1" fill="#335390" d="M 163.5,202.5 C 166.48,202.241 168.313,203.574 169,206.5C 170.566,212.022 170.733,217.522 169.5,223C 167.559,223.743 165.726,223.576 164,222.5C 163.5,215.842 163.334,209.175 163.5,202.5 Z"/></g>
<g><path style="opacity:1" fill="#bbc7db" d="M 245.5,202.5 C 246.167,203.833 246.833,205.167 247.5,206.5C 247.44,207.043 247.107,207.376 246.5,207.5C 245.548,205.955 245.215,204.288 245.5,202.5 Z"/></g>
<g><path style="opacity:1" fill="#a7b6d0" d="M 322.5,211.5 C 326.634,212.485 330.968,212.818 335.5,212.5C 330.35,213.651 325.016,213.817 319.5,213C 320.244,211.961 321.244,211.461 322.5,211.5 Z"/></g>
<g><path style="opacity:1" fill="#bec9dc" d="M 245.5,216.5 C 244.71,217.401 243.71,218.068 242.5,218.5C 242.821,216.952 243.821,216.285 245.5,216.5 Z"/></g>
<g><path style="opacity:1" fill="#385692" d="M 177.5,232.5 C 180.187,232.336 182.854,232.503 185.5,233C 188.281,236.807 187.281,239.474 182.5,241C 174.634,243.258 166.634,243.924 158.5,243C 154.885,242.196 152.552,240.029 151.5,236.5C 157.138,235.67 162.804,235.17 168.5,235C 171.742,234.594 174.742,233.761 177.5,232.5 Z"/></g>
<g><path style="opacity:1" fill="#f9c07a" d="M 140.5,265.5 C 154.573,271.192 169.24,273.025 184.5,271C 186.25,269.681 188.25,269.181 190.5,269.5C 190.5,270.833 190.5,272.167 190.5,273.5C 182.188,274.24 173.854,274.573 165.5,274.5C 165.452,277.292 166.785,279.125 169.5,280C 176.606,281.418 183.606,281.918 190.5,281.5C 181.993,283.81 173.327,284.81 164.5,284.5C 164.872,288.043 166.872,290.21 170.5,291C 176.167,291.667 181.833,291.667 187.5,291C 188.877,289.759 190.21,289.592 191.5,290.5C 184.934,292.651 178.267,294.485 171.5,296C 173.221,297.527 175.221,298.527 177.5,299C 165.405,300.197 153.739,298.53 142.5,294C 141.833,293.333 141.167,292.667 140.5,292C 141.848,290.426 142.514,288.593 142.5,286.5C 140.84,279.602 140.174,272.602 140.5,265.5 Z"/></g>
<g><path style="opacity:1" fill="#b5c2d8" d="M 200.5,269.5 C 201.486,273.97 201.819,278.637 201.5,283.5C 204.059,283.198 206.393,283.532 208.5,284.5C 205.833,284.5 203.167,284.5 200.5,284.5C 200.5,279.5 200.5,274.5 200.5,269.5 Z"/></g>
<g><path style="opacity:1" fill="#f7f8fb" d="M 119.5,291.5 C 122.85,291.335 126.183,291.502 129.5,292C 133.585,297.079 138.585,301.079 144.5,304C 162.698,310.752 180.364,309.752 197.5,301C 200.008,298.31 202.008,295.31 203.5,292C 206.054,291.442 208.054,292.275 209.5,294.5C 201.211,306.154 189.878,312.987 175.5,315C 160.396,318.057 145.73,316.724 131.5,311C 125.496,306.484 121.163,300.651 118.5,293.5C 118.863,292.817 119.196,292.15 119.5,291.5 Z"/></g>
<g><path style="opacity:1" fill="#6676a4" d="M 106.5,295.5 C 108.167,295.5 109.833,295.5 111.5,295.5C 112.766,304.268 117.099,311.101 124.5,316C 146.585,327.622 169.252,328.622 192.5,319C 204.14,314.192 213.14,306.359 219.5,295.5C 223.464,296.439 227.464,297.272 231.5,298C 226.53,300.975 222.196,304.642 218.5,309C 219,309.167 219.5,309.333 220,309.5C 227.102,305.298 234.602,301.965 242.5,299.5C 245.998,300.535 249.331,301.869 252.5,303.5C 243.411,306.806 234.744,310.973 226.5,316C 238.893,312.155 251.56,308.988 264.5,306.5C 267.622,307.561 270.622,308.894 273.5,310.5C 261.622,315.605 249.622,320.438 237.5,325C 252.691,322.954 267.691,319.787 282.5,315.5C 286.385,317.053 289.718,319.386 292.5,322.5C 280.268,325.389 268.268,328.889 256.5,333C 262.08,334.517 267.747,334.851 273.5,334C 282.043,332.159 290.543,330.325 299,328.5C 302.226,330.869 304.392,333.869 305.5,337.5C 294.188,337.401 283.188,339.068 272.5,342.5C 274.078,343.298 275.744,343.798 277.5,344C 288.833,344.333 300.167,344.667 311.5,345C 313.202,347.235 314.202,349.735 314.5,352.5C 303.119,352.144 291.785,352.644 280.5,354C 280.043,354.414 279.709,354.914 279.5,355.5C 282.298,356.969 285.298,357.802 288.5,358C 298.22,358.586 307.887,358.586 317.5,358C 318.812,361.051 319.812,364.217 320.5,367.5C 312.54,367.739 304.54,367.906 296.5,368C 292.529,368.085 288.862,369.085 285.5,371C 296.489,371.842 307.489,372.508 318.5,373C 314.91,374.53 311.243,375.864 307.5,377C 294.699,379.637 281.865,381.804 269,383.5C 267.981,379.774 266.647,376.107 265,372.5C 262.408,371.018 260.075,371.352 258,373.5C 256.763,377.06 256.263,380.727 256.5,384.5C 246.507,385.333 236.507,386.166 226.5,387C 192.833,387.667 159.167,387.667 125.5,387C 106.428,386.204 87.4278,384.704 68.5,382.5C 68.6655,378.486 68.4988,374.486 68,370.5C 65.975,368.275 63.6417,367.941 61,369.5C 59.1541,372.204 57.9874,375.204 57.5,378.5C 56.8333,378.833 56.1667,379.167 55.5,379.5C 46.4711,377.101 37.4711,374.601 28.5,372C 22.5092,371.501 16.5092,371.334 10.5,371.5C 10.2728,359.619 13.7728,348.952 21,339.5C 32.6528,325.501 46.8195,315.001 63.5,308C 77.7491,303.078 92.0825,298.912 106.5,295.5 Z"/></g>
</svg>
