<?xml version="1.0" encoding="UTF-8"?>
<!DOCTYPE svg PUBLIC "-//W3C//DTD SVG 1.1//EN" "http://www.w3.org/Graphics/SVG/1.1/DTD/svg11.dtd">
<svg xmlns="http://www.w3.org/2000/svg" version="1.1" width="960px" height="540px" style="shape-rendering:geometricPrecision; text-rendering:geometricPrecision; image-rendering:optimizeQuality; fill-rule:evenodd; clip-rule:evenodd" xmlns:xlink="http://www.w3.org/1999/xlink">
<g><path style="opacity:1" fill="#fefefe" d="M -0.5,-0.5 C 319.5,-0.5 639.5,-0.5 959.5,-0.5C 959.5,179.5 959.5,359.5 959.5,539.5C 639.5,539.5 319.5,539.5 -0.5,539.5C -0.5,359.5 -0.5,179.5 -0.5,-0.5 Z"/></g>
<g><path style="opacity:1" fill="#24498a" d="M 605.5,71.5 C 663.023,66.8617 717.356,77.6951 768.5,104C 778.199,109.362 786.366,116.529 793,125.5C 800.473,140.116 807.14,155.116 813,170.5C 812.976,182.257 809.976,193.257 804,203.5C 789.77,222.393 771.937,236.893 750.5,247C 707.983,265.45 663.483,274.617 617,274.5C 600.587,274.232 584.421,272.065 568.5,268C 560.493,266.051 553.493,267.718 547.5,273C 513.37,287.516 478.037,291.85 441.5,286C 438.833,283.667 438.833,281.333 441.5,279C 463.227,274.554 482.061,264.721 498,249.5C 499.009,247.975 499.509,246.308 499.5,244.5C 472.349,236.184 454.182,218.517 445,191.5C 439.328,176.6 440.328,162.267 448,148.5C 457.044,135.783 467.211,123.949 478.5,113C 492.174,104.494 506.174,96.4942 520.5,89C 529.227,85.2022 538.227,82.2022 547.5,80C 566.882,76.4628 586.215,73.6295 605.5,71.5 Z"/></g>
<g><path style="opacity:1" fill="#fcfcfd" d="M 624.5,264.5 C 617.833,265.833 611.167,265.833 604.5,264.5C 604.489,262.983 603.823,261.816 602.5,261C 595.681,258.09 589.015,254.923 582.5,251.5C 581.5,251.833 580.833,252.5 580.5,253.5C 583.746,258.236 588.079,261.736 593.5,264C 584.452,263.326 575.452,261.993 566.5,260C 560.833,259.333 555.167,259.333 549.5,260C 535.51,270.225 519.843,276.558 502.5,279C 495.247,280.598 487.914,281.431 480.5,281.5C 475.968,281.818 471.634,281.485 467.5,280.5C 479.088,275.373 490.088,269.206 500.5,262C 503.704,259.131 506.537,255.965 509,252.5C 510.266,248.605 510.766,244.605 510.5,240.5C 480.127,231.457 461.294,211.457 454,180.5C 451.967,163.405 457.134,148.905 469.5,137C 477.803,129.698 485.803,122.031 493.5,114C 522.025,95.2679 553.359,84.2679 587.5,81C 617.198,78.7885 646.864,79.1218 676.5,82C 706.119,86.5397 734.119,95.873 760.5,110C 759.761,111.765 759.761,113.765 760.5,116C 762.669,116.429 764.669,115.929 766.5,114.5C 768.167,115.667 769.833,116.833 771.5,118C 768.143,119.512 766.143,122.012 765.5,125.5C 769.069,124.811 772.569,123.811 776,122.5C 778.185,124.353 780.018,126.52 781.5,129C 778.736,129.532 776.07,130.366 773.5,131.5C 772.614,132.325 772.281,133.325 772.5,134.5C 776.559,134.434 780.559,134.267 784.5,134C 785.399,136.192 786.399,138.358 787.5,140.5C 783.718,141.705 780.052,143.205 776.5,145C 775.663,146.011 775.33,147.178 775.5,148.5C 780.101,148.533 784.601,147.866 789,146.5C 791.223,148.28 792.39,150.614 792.5,153.5C 786.423,153.79 780.756,155.457 775.5,158.5C 782.183,159.051 788.849,159.384 795.5,159.5C 796.747,161.323 797.414,163.323 797.5,165.5C 790.341,166.206 783.341,167.706 776.5,170C 775.663,171.011 775.33,172.178 775.5,173.5C 783.56,173.491 791.56,172.824 799.5,171.5C 799.5,174.5 799.5,177.5 799.5,180.5C 788.009,180.701 776.676,182.034 765.5,184.5C 775.743,187.205 786.076,187.872 796.5,186.5C 797.081,190.28 796.081,193.78 793.5,197C 782.197,196.153 770.863,195.819 759.5,196C 768.916,199.526 778.583,202.359 788.5,204.5C 786.712,206.576 785.046,208.743 783.5,211C 774.935,209.221 766.268,207.554 757.5,206C 751.5,205.333 745.5,205.333 739.5,206C 741.275,207.439 743.275,208.439 745.5,209C 756.384,211.032 767.051,213.698 777.5,217C 774.78,219.745 771.613,221.579 768,222.5C 755.871,220.695 743.704,219.195 731.5,218C 730.294,220.709 731.294,222.375 734.5,223C 744.107,225.039 753.774,226.706 763.5,228C 760.42,230.29 757.253,232.457 754,234.5C 738.247,228.947 722.081,227.114 705.5,229C 704.273,230.587 704.606,231.921 706.5,233C 719.061,234.093 731.394,236.26 743.5,239.5C 739.669,242.165 735.502,244.165 731,245.5C 717.228,243.946 703.728,241.112 690.5,237C 685.875,235.838 681.208,235.504 676.5,236C 681.202,239.798 686.535,242.465 692.5,244C 701.632,246.95 710.965,248.95 720.5,250C 715.399,251.734 710.232,253.234 705,254.5C 696.372,251.774 687.539,249.941 678.5,249C 672.5,247 666.5,245 660.5,243C 657.446,242.179 654.446,242.345 651.5,243.5C 663.62,251.376 676.954,256.21 691.5,258C 684.55,259.714 677.55,261.214 670.5,262.5C 670.773,260.549 670.107,259.049 668.5,258C 657.229,254.132 645.895,250.465 634.5,247C 632.5,246.333 630.5,246.333 628.5,247C 628.043,247.414 627.709,247.914 627.5,248.5C 637.738,254.972 648.738,259.805 660.5,263C 655.039,264.063 649.539,264.896 644,265.5C 633.961,261.15 623.795,256.984 613.5,253C 609.687,251.228 605.687,250.395 601.5,250.5C 601.297,252.39 601.963,253.89 603.5,255C 610.027,259.264 617.027,262.431 624.5,264.5 Z"/></g>
<g><path style="opacity:1" fill="#385793" d="M 543.5,113.5 C 546.167,113.5 548.833,113.5 551.5,113.5C 551.5,114.5 551.5,115.5 551.5,116.5C 550.5,116.5 549.5,116.5 548.5,116.5C 548.521,124.678 548.855,132.844 549.5,141C 549.625,144.355 549.125,147.522 548,150.5C 546.523,139.329 546.023,127.996 546.5,116.5C 544.712,116.785 543.045,116.452 541.5,115.5C 542.243,114.818 542.909,114.151 543.5,113.5 Z"/></g>
<g><path style="opacity:1" fill="#375693" d="M 607.5,143.5 C 607.174,135.316 607.508,127.316 608.5,119.5C 609.33,128.324 609.83,137.324 610,146.5C 612.454,148.013 614.121,147.346 615,144.5C 615.833,135.5 616.667,126.5 617.5,117.5C 618.665,125.479 618.832,133.479 618,141.5C 617.641,145.579 615.807,148.579 612.5,150.5C 609.135,149.453 607.468,147.119 607.5,143.5 Z"/></g>
<g><path style="opacity:1" fill="#2c4e8d" d="M 563.5,135.5 C 562.432,134.566 561.099,134.232 559.5,134.5C 559.5,139.167 559.5,143.833 559.5,148.5C 559.44,149.043 559.107,149.376 558.5,149.5C 557.167,139.167 557.167,128.833 558.5,118.5C 559.493,123.12 559.827,127.786 559.5,132.5C 560.919,133.451 562.585,133.784 564.5,133.5C 564.81,130.287 564.477,127.287 563.5,124.5C 563.5,122.167 563.5,119.833 563.5,117.5C 564.5,117.5 565.5,117.5 566.5,117.5C 566.832,128.187 566.499,138.854 565.5,149.5C 564.914,149.291 564.414,148.957 564,148.5C 563.501,144.179 563.334,139.846 563.5,135.5 Z"/></g>
<g><path style="opacity:1" fill="#224889" d="M 579.5,132.5 C 578.167,132.5 576.833,132.5 575.5,132.5C 575.5,137.833 575.5,143.167 575.5,148.5C 577.167,148.5 578.833,148.5 580.5,148.5C 581.738,148.81 581.738,149.31 580.5,150C 578.19,150.497 575.857,150.663 573.5,150.5C 573.5,139.833 573.5,129.167 573.5,118.5C 575.527,118.338 577.527,118.505 579.5,119C 579.957,119.414 580.291,119.914 580.5,120.5C 579.224,121.645 577.891,121.645 576.5,120.5C 575.513,123.768 575.18,127.102 575.5,130.5C 577.483,130.157 578.817,130.824 579.5,132.5 Z"/></g>
<g><path style="opacity:1" fill="#31528f" d="M 595.5,118.5 C 598.167,118.5 600.833,118.5 603.5,118.5C 603.5,119.5 603.5,120.5 603.5,121.5C 602.07,121.579 600.736,121.246 599.5,120.5C 597.984,125.039 598.317,129.372 600.5,133.5C 599.675,134.386 598.675,134.719 597.5,134.5C 597.666,139.511 597.499,144.511 597,149.5C 595.633,150.524 594.8,150.024 594.5,148C 595.463,138.207 595.796,128.374 595.5,118.5 Z"/></g>
<g><path style="opacity:1" fill="#3b5994" d="M 621.5,119.5 C 624.687,118.194 628.02,118.194 631.5,119.5C 630.675,120.386 629.675,120.719 628.5,120.5C 629.364,130.181 629.364,139.848 628.5,149.5C 626.894,139.899 625.894,130.232 625.5,120.5C 624.041,120.567 622.708,120.234 621.5,119.5 Z"/></g>
<g><path style="opacity:1" fill="#355692" d="M 654.5,117.5 C 657.099,117.549 659.266,118.549 661,120.5C 661.69,125.142 661.19,129.642 659.5,134C 660.21,139.174 661.543,144.174 663.5,149C 662.99,150.826 662.156,150.993 661,149.5C 659.287,144.604 657.954,139.604 657,134.5C 656.829,139.864 656.329,145.198 655.5,150.5C 654.501,139.52 654.168,128.52 654.5,117.5 Z"/></g>
<g><path style="opacity:1" fill="#375893" d="M 669.5,118.5 C 672.157,118.162 674.49,118.829 676.5,120.5C 674.955,121.452 673.288,121.785 671.5,121.5C 671.5,124.5 671.5,127.5 671.5,130.5C 676.833,131.5 676.833,132.5 671.5,133.5C 671.5,138.5 671.5,143.5 671.5,148.5C 673.288,148.215 674.955,148.548 676.5,149.5C 673.966,150.777 671.466,150.777 669,149.5C 668.192,139.09 668.359,128.757 669.5,118.5 Z"/></g>
<g><path style="opacity:1" fill="#355591" d="M 689.5,118.5 C 691.924,118.192 694.257,118.526 696.5,119.5C 695.675,120.386 694.675,120.719 693.5,120.5C 693.598,129.209 694.265,137.876 695.5,146.5C 696.5,146.833 697.167,147.5 697.5,148.5C 694.833,149.833 692.167,149.833 689.5,148.5C 690.777,143.847 691.443,139.013 691.5,134C 691.394,128.66 690.727,123.493 689.5,118.5 Z"/></g>
<g><path style="opacity:1" fill="#345491" d="M 645.5,117.5 C 646.5,117.5 647.5,117.5 648.5,117.5C 648.839,126.226 648.339,134.893 647,143.5C 646.416,148.791 643.75,150.791 639,149.5C 638.027,147.608 637.36,145.608 637,143.5C 636.168,135.147 636.335,126.813 637.5,118.5C 638.182,127.854 639.016,137.188 640,146.5C 640.561,147.022 641.228,147.355 642,147.5C 643.735,146.318 644.735,144.651 645,142.5C 645.5,134.173 645.666,125.84 645.5,117.5 Z"/></g>
<g><path style="opacity:1" fill="#e5e9f1" d="M 656.5,119.5 C 658.478,120.317 659.478,121.817 659.5,124C 659.066,126.634 658.233,129.134 657,131.5C 656.501,127.514 656.334,123.514 656.5,119.5 Z"/></g>
<g><path style="opacity:1" fill="#6580ad" d="M 608.5,119.5 C 607.508,127.316 607.174,135.316 607.5,143.5C 606.179,135.324 606.179,126.991 607.5,118.5C 608.107,118.624 608.44,118.957 608.5,119.5 Z"/></g>
<g><path style="opacity:1" fill="#899dc0" d="M 563.5,124.5 C 564.477,127.287 564.81,130.287 564.5,133.5C 562.585,133.784 560.919,133.451 559.5,132.5C 560.833,132.5 562.167,132.5 563.5,132.5C 563.5,129.833 563.5,127.167 563.5,124.5 Z"/></g>
<g><path style="opacity:1" fill="#385793" d="M 702.5,117.5 C 707.422,118.334 707.589,119.668 703,121.5C 702.833,122.5 702.667,123.5 702.5,124.5C 704.645,129.955 706.645,135.455 708.5,141C 708.701,145.441 706.868,148.607 703,150.5C 701.941,150.37 701.108,149.87 700.5,149C 704.728,148.263 706.395,145.763 705.5,141.5C 705.155,136.801 703.655,132.467 701,128.5C 700.112,124.598 700.612,120.931 702.5,117.5 Z"/></g>
<g><path style="opacity:1" fill="#99abc9" d="M 579.5,132.5 C 578.791,133.404 577.791,133.737 576.5,133.5C 576.5,138.167 576.5,142.833 576.5,147.5C 578.099,147.232 579.432,147.566 580.5,148.5C 578.833,148.5 577.167,148.5 575.5,148.5C 575.5,143.167 575.5,137.833 575.5,132.5C 576.833,132.5 578.167,132.5 579.5,132.5 Z"/></g>
<g><path style="opacity:1" fill="#b3c0d7" d="M 563.5,135.5 C 562.5,135.5 561.5,135.5 560.5,135.5C 560.818,140.032 560.485,144.366 559.5,148.5C 559.5,143.833 559.5,139.167 559.5,134.5C 561.099,134.232 562.432,134.566 563.5,135.5 Z"/></g>
<g><path style="opacity:1" fill="#254a8a" d="M 314.5,136.5 C 378.707,136.19 407.707,167.69 401.5,231C 406.735,237.51 409.068,245.01 408.5,253.5C 408.119,265.094 403.785,274.928 395.5,283C 393.091,284.707 390.425,285.54 387.5,285.5C 381.626,300.731 372.626,313.898 360.5,325C 355.338,328.749 350.004,332.249 344.5,335.5C 345.457,341.439 345.79,347.439 345.5,353.5C 372.671,355.567 399.004,361.401 424.5,371C 440.785,379.448 454.118,391.282 464.5,406.5C 469.344,406.952 470.344,408.952 467.5,412.5C 473.316,422.773 476.149,433.773 476,445.5C 474.352,446.717 472.519,447.55 470.5,448C 467.78,452.365 463.78,454.699 458.5,455C 444.743,458.714 430.743,461.048 416.5,462C 350.877,468.949 285.21,469.282 219.5,463C 203.778,459.203 188.111,455.203 172.5,451C 166.186,450.153 159.853,449.487 153.5,449C 151.349,447.43 149.182,445.93 147,444.5C 146.333,438.5 146.333,432.5 147,426.5C 153.255,409.237 163.755,395.07 178.5,384C 195.329,372.718 213.662,364.718 233.5,360C 247.439,356.848 261.439,354.015 275.5,351.5C 275.334,347.486 275.501,343.486 276,339.5C 276.606,336.452 278.106,333.952 280.5,332C 261.886,322.386 247.553,308.386 237.5,290C 227.528,288.427 220.694,282.927 217,273.5C 212.69,262.105 212.69,250.771 217,239.5C 218.268,237.283 219.768,235.283 221.5,233.5C 221.502,211.495 227.336,191.162 239,172.5C 243.21,166.622 248.377,161.789 254.5,158C 259.411,156.508 264.411,156.174 269.5,157C 270.687,158.019 271.687,159.186 272.5,160.5C 267.278,162.517 261.945,164.351 256.5,166C 245.655,175.835 238.489,188.002 235,202.5C 233.014,209.063 232.014,215.73 232,222.5C 244.881,214.951 255.881,205.284 265,193.5C 266.902,189.422 268.569,185.422 270,181.5C 261.866,188.567 253.199,194.9 244,200.5C 244.472,196.982 246.306,194.149 249.5,192C 256.078,186.255 263.078,181.088 270.5,176.5C 271.386,175.675 271.719,174.675 271.5,173.5C 268.984,173.755 266.65,174.589 264.5,176C 258.146,181.034 251.313,185.201 244,188.5C 243.5,188 243,187.5 242.5,187C 246.196,182.642 250.53,178.975 255.5,176C 258.661,174.587 261.661,172.92 264.5,171C 267.063,169.921 269.729,169.421 272.5,169.5C 272.307,166.525 273.307,164.025 275.5,162C 277.112,161.28 278.612,161.446 280,162.5C 280.219,184.583 289.719,201.583 308.5,213.5C 308.967,208.631 308.3,203.798 306.5,199C 307.445,196.386 309.278,194.886 312,194.5C 327.574,202.703 343.407,210.537 359.5,218C 370.376,222.681 381.709,224.515 393.5,223.5C 395.03,202.964 390.53,183.964 380,166.5C 371.001,157.415 360.168,151.582 347.5,149C 325.108,142.319 303.774,144.652 283.5,156C 281.231,156.758 279.064,156.591 277,155.5C 276.333,154.5 276.333,153.5 277,152.5C 284.66,146.584 293.16,142.084 302.5,139C 306.665,138.295 310.665,137.461 314.5,136.5 Z"/></g>
<g><path style="opacity:1" fill="#264b8b" d="M 304.5,151.5 C 323.064,151.95 340.397,156.783 356.5,166C 358.684,168.016 360.684,170.183 362.5,172.5C 360.235,173.647 357.902,173.814 355.5,173C 347.049,169.608 338.716,165.941 330.5,162C 321.486,158.33 312.153,156.997 302.5,158C 300.051,158.725 297.717,159.725 295.5,161C 311.015,164.035 326.348,167.702 341.5,172C 342.833,173 342.833,174 341.5,175C 336.5,175.667 331.5,175.667 326.5,175C 316.519,172.393 306.519,169.893 296.5,167.5C 304.043,173.978 313.043,179.145 323.5,183C 334.117,185.16 344.784,186.994 355.5,188.5C 355.5,189.5 355.5,190.5 355.5,191.5C 330.332,195.054 309.165,187.387 292,168.5C 293.636,175.447 296.136,182.114 299.5,188.5C 291.979,185.514 287.812,179.847 287,171.5C 287.066,168.422 286.899,165.422 286.5,162.5C 287.942,159.223 290.275,156.723 293.5,155C 297.161,153.407 300.828,152.241 304.5,151.5 Z"/></g>
<g><path style="opacity:1" fill="#2a4e8d" d="M 720.5,170.5 C 721.794,172.048 722.461,174.048 722.5,176.5C 721.889,184.493 721.389,192.493 721,200.5C 719.856,195.671 719.356,190.671 719.5,185.5C 719.525,180.421 719.858,175.421 720.5,170.5 Z"/></g>
<g><path style="opacity:1" fill="#385793" d="M 639.5,175.5 C 640.833,175.5 642.167,175.5 643.5,175.5C 643.687,186.271 644.687,196.937 646.5,207.5C 645.5,207.5 644.5,207.5 643.5,207.5C 643.5,205.167 643.5,202.833 643.5,200.5C 641.5,200.167 639.5,199.833 637.5,199.5C 637.663,201.857 637.497,204.19 637,206.5C 635.989,207.337 634.822,207.67 633.5,207.5C 635.966,196.898 637.966,186.231 639.5,175.5 Z"/></g>
<g><path style="opacity:1" fill="#395793" d="M 549.5,178.5 C 548.521,181.625 548.187,184.958 548.5,188.5C 549.833,188.5 551.167,188.5 552.5,188.5C 552.179,190.048 551.179,190.715 549.5,190.5C 549.5,195.5 549.5,200.5 549.5,205.5C 551.288,205.215 552.955,205.548 554.5,206.5C 552.337,208.72 549.837,209.053 547,207.5C 546.333,197.167 546.333,186.833 547,176.5C 549.081,175.667 551.248,175.667 553.5,176.5C 553.5,177.5 553.5,178.5 553.5,179.5C 552.041,179.567 550.708,179.234 549.5,178.5 Z"/></g>
<g><path style="opacity:1" fill="#395893" d="M 576.5,178.5 C 575.521,181.625 575.187,184.958 575.5,188.5C 576.833,188.5 578.167,188.5 579.5,188.5C 579.179,190.048 578.179,190.715 576.5,190.5C 576.5,195.5 576.5,200.5 576.5,205.5C 578.288,205.215 579.955,205.548 581.5,206.5C 579.337,208.72 576.837,209.053 574,207.5C 573.333,197.167 573.333,186.833 574,176.5C 576.081,175.667 578.248,175.667 580.5,176.5C 580.5,177.5 580.5,178.5 580.5,179.5C 579.041,179.567 577.708,179.234 576.5,178.5 Z"/></g>
<g><path style="opacity:1" fill="#325390" d="M 588.5,175.5 C 590.074,175.937 591.241,176.937 592,178.5C 595.085,186.423 597.752,194.423 600,202.5C 600.5,193.84 600.666,185.173 600.5,176.5C 601.5,176.5 602.5,176.5 603.5,176.5C 603.176,186.505 602.676,196.505 602,206.5C 600.989,207.337 599.822,207.67 598.5,207.5C 596.581,198.576 593.748,189.909 590,181.5C 589.185,189.746 589.352,197.912 590.5,206C 589.975,206.692 589.308,207.192 588.5,207.5C 587.192,196.772 587.192,186.106 588.5,175.5 Z"/></g>
<g><path style="opacity:1" fill="#365692" d="M 607.5,175.5 C 610.5,175.5 613.5,175.5 616.5,175.5C 616.5,176.5 616.5,177.5 616.5,178.5C 615.5,178.5 614.5,178.5 613.5,178.5C 614.328,217.142 613.495,217.142 611,178.5C 609.271,178.026 608.105,177.026 607.5,175.5 Z"/></g>
<g><path style="opacity:1" fill="#355692" d="M 622.5,175.5 C 625.325,175.081 627.491,176.081 629,178.5C 629.731,182.983 629.231,187.317 627.5,191.5C 628.138,196.858 629.471,202.025 631.5,207C 631.167,207.5 630.833,208 630.5,208.5C 629.029,207.619 628.196,206.286 628,204.5C 627,200.167 626,195.833 625,191.5C 624.829,196.864 624.329,202.198 623.5,207.5C 622.501,196.854 622.168,186.187 622.5,175.5 Z"/></g>
<g><path style="opacity:1" fill="#30528f" d="M 651.5,175.5 C 653.474,185.111 654.141,195.111 653.5,205.5C 655.75,205.181 657.75,205.681 659.5,207C 656.518,207.498 653.518,207.665 650.5,207.5C 651.043,196.841 651.377,186.175 651.5,175.5 Z"/></g>
<g><path style="opacity:1" fill="#446199" d="M 663.5,175.5 C 665.167,175.5 666.833,175.5 668.5,175.5C 666.115,185.086 666.115,194.753 668.5,204.5C 669.308,204.808 669.975,205.308 670.5,206C 668.045,207.54 665.379,207.874 662.5,207C 661.391,205.187 662.058,204.354 664.5,204.5C 664.533,195.291 663.533,186.291 661.5,177.5C 662.243,176.818 662.909,176.151 663.5,175.5 Z"/></g>
<g><path style="opacity:1" fill="#3a5994" d="M 676.5,175.5 C 678.527,175.338 680.527,175.505 682.5,176C 683.022,176.561 683.355,177.228 683.5,178C 680.864,186.744 678.53,195.578 676.5,204.5C 677.833,204.5 679.167,204.5 680.5,204.5C 680.5,205.5 680.5,206.5 680.5,207.5C 678.167,207.5 675.833,207.5 673.5,207.5C 674.811,197.571 677.145,187.904 680.5,178.5C 679.127,178.657 677.793,178.49 676.5,178C 675.402,177.23 675.402,176.397 676.5,175.5 Z"/></g>
<g><path style="opacity:1" fill="#3e5d97" d="M 689.5,175.5 C 692.226,175.264 694.559,176.097 696.5,178C 695.135,179.682 693.635,179.849 692,178.5C 691.502,181.817 691.335,185.15 691.5,188.5C 696.833,189.167 696.833,189.833 691.5,190.5C 691.5,195.5 691.5,200.5 691.5,205.5C 693.288,205.215 694.955,205.548 696.5,206.5C 694.337,208.72 691.837,209.053 689,207.5C 688.192,196.757 688.358,186.09 689.5,175.5 Z"/></g>
<g><path style="opacity:1" fill="#335491" d="M 702.5,175.5 C 710.739,177.781 714.405,183.281 713.5,192C 714.091,197.804 712.425,202.804 708.5,207C 706.527,207.495 704.527,207.662 702.5,207.5C 702.5,196.833 702.5,186.167 702.5,175.5 Z"/></g>
<g><path style="opacity:1" fill="#395893" d="M 563.5,175.5 C 569.893,176.463 569.727,177.796 563,179.5C 560.861,187.935 561.027,196.268 563.5,204.5C 565.167,205.167 566.833,205.833 568.5,206.5C 566.166,208.987 563.666,208.987 561,206.5C 558.579,199.015 557.912,191.348 559,183.5C 559.738,180.352 561.238,177.685 563.5,175.5 Z"/></g>
<g><path style="opacity:1" fill="#f6f8fa" d="M 624.5,177.5 C 626.927,180.81 627.093,184.477 625,188.5C 624.501,184.848 624.335,181.182 624.5,177.5 Z"/></g>
<g><path style="opacity:1" fill="#f1f3f7" d="M 704.5,178.5 C 707.595,178.626 709.428,180.293 710,183.5C 710.667,189.167 710.667,194.833 710,200.5C 709.376,202.754 708.043,204.421 706,205.5C 705.215,196.513 704.715,187.513 704.5,178.5 Z"/></g>
<g><path style="opacity:1" fill="#315290" d="M 530.5,175.5 C 535.287,176.156 538.454,178.822 540,183.5C 540.667,189.5 540.667,195.5 540,201.5C 538.1,206.459 534.767,208.126 530,206.5C 529.192,196.09 529.359,185.757 530.5,175.5 Z"/></g>
<g><path style="opacity:1" fill="#edeff5" d="M 532.5,178.5 C 535.452,179.359 537.285,181.359 538,184.5C 538.789,190.237 538.456,195.903 537,201.5C 536.363,203.303 535.197,204.636 533.5,205.5C 532.502,196.525 532.168,187.525 532.5,178.5 Z"/></g>
<g><path style="opacity:1" fill="#91a5c5" d="M 549.5,178.5 C 549.5,181.5 549.5,184.5 549.5,187.5C 550.791,187.263 551.791,187.596 552.5,188.5C 551.167,188.5 549.833,188.5 548.5,188.5C 548.187,184.958 548.521,181.625 549.5,178.5 Z"/></g>
<g><path style="opacity:1" fill="#8da1c2" d="M 576.5,178.5 C 576.5,181.5 576.5,184.5 576.5,187.5C 577.791,187.263 578.791,187.596 579.5,188.5C 578.167,188.5 576.833,188.5 575.5,188.5C 575.187,184.958 575.521,181.625 576.5,178.5 Z"/></g>
<g><path style="opacity:1" fill="#e0e5ee" d="M 640.5,181.5 C 642.012,186.929 642.679,192.596 642.5,198.5C 641.167,198.5 639.833,198.5 638.5,198.5C 638.684,192.769 639.35,187.102 640.5,181.5 Z"/></g>
<g><path style="opacity:1" fill="#f9c078" d="M 391.5,251.5 C 392.163,249.359 392.497,247.025 392.5,244.5C 392.685,240.859 392.019,237.526 390.5,234.5C 390.5,234.167 390.5,233.833 390.5,233.5C 390.842,232.662 391.508,232.328 392.5,232.5C 403.09,246.791 403.09,261.124 392.5,275.5C 391.833,274.167 391.167,272.833 390.5,271.5C 388.151,267.196 384.984,266.53 381,269.5C 376.627,288.416 367.46,304.582 353.5,318C 333.613,332.319 312.28,334.986 289.5,326C 263.111,314.608 246.444,294.942 239.5,267C 237.888,266.28 236.388,266.446 235,267.5C 234.827,271.541 234.327,275.541 233.5,279.5C 224.651,273.048 220.651,264.215 221.5,253C 220.754,246.218 222.921,240.718 228,236.5C 228.031,240.768 229.031,244.768 231,248.5C 233,249.833 235,249.833 237,248.5C 236.411,240.564 238.078,233.231 242,226.5C 249.667,219.5 257.333,212.5 265,205.5C 268.894,199.601 271.894,193.268 274,186.5C 281.005,199.978 290.505,211.478 302.5,221C 306.594,223.198 310.927,224.698 315.5,225.5C 318.732,225.265 320.732,223.598 321.5,220.5C 320.17,216.197 319.337,211.863 319,207.5C 337.713,219.401 357.879,227.567 379.5,232C 380.46,233.419 381.293,234.919 382,236.5C 382.333,242.167 382.667,247.833 383,253.5C 385.153,255.444 387.653,255.944 390.5,255C 391.337,253.989 391.67,252.822 391.5,251.5 Z"/></g>
<g><path style="opacity:1" fill="#385894" d="M 719.5,204.5 C 720.995,204.415 721.995,205.081 722.5,206.5C 721.68,208.111 720.346,208.778 718.5,208.5C 718.433,207.041 718.766,205.708 719.5,204.5 Z"/></g>
<g><path style="opacity:1" fill="#bbc8db" d="M 392.5,232.5 C 391.508,232.328 390.842,232.662 390.5,233.5C 389.115,232.698 389.282,232.031 391,231.5C 391.765,231.57 392.265,231.903 392.5,232.5 Z"/></g>
<g><path style="opacity:1" fill="#6f86b2" d="M 390.5,234.5 C 392.019,237.526 392.685,240.859 392.5,244.5C 392.497,247.025 392.163,249.359 391.5,251.5C 391.625,245.797 391.292,240.13 390.5,234.5 Z"/></g>
<g><path style="opacity:1" fill="#284b8b" d="M 272.5,248.5 C 284.709,248.92 289.209,255.254 286,267.5C 282.691,274.48 277.525,276.314 270.5,273C 265.798,268.078 264.298,262.245 266,255.5C 267.425,252.394 269.592,250.06 272.5,248.5 Z"/></g>
<g><path style="opacity:1" fill="#2b4d8c" d="M 340.5,248.5 C 352.231,248.074 357.064,253.741 355,265.5C 352.866,274.306 347.699,276.806 339.5,273C 333.514,267.993 332.014,261.826 335,254.5C 336.803,252.377 338.637,250.377 340.5,248.5 Z"/></g>
<g><path style="opacity:1" fill="#b3c0d6" d="M 604.5,264.5 C 611.167,265.833 617.833,265.833 624.5,264.5C 625.289,264.783 625.956,265.283 626.5,266C 618.812,266.831 611.145,266.665 603.5,265.5C 603.624,264.893 603.957,264.56 604.5,264.5 Z"/></g>
<g><path style="opacity:1" fill="#335390" d="M 308.5,271.5 C 311.48,271.241 313.313,272.574 314,275.5C 315.566,281.022 315.733,286.522 314.5,292C 312.559,292.743 310.726,292.576 309,291.5C 308.5,284.842 308.334,278.175 308.5,271.5 Z"/></g>
<g><path style="opacity:1" fill="#bbc7db" d="M 390.5,271.5 C 391.167,272.833 391.833,274.167 392.5,275.5C 392.44,276.043 392.107,276.376 391.5,276.5C 390.548,274.955 390.215,273.288 390.5,271.5 Z"/></g>
<g><path style="opacity:1" fill="#a7b6d0" d="M 467.5,280.5 C 471.634,281.485 475.968,281.818 480.5,281.5C 475.35,282.651 470.016,282.817 464.5,282C 465.244,280.961 466.244,280.461 467.5,280.5 Z"/></g>
<g><path style="opacity:1" fill="#385692" d="M 322.5,301.5 C 325.187,301.336 327.854,301.503 330.5,302C 333.281,305.807 332.281,308.474 327.5,310C 319.634,312.258 311.634,312.924 303.5,312C 299.885,311.196 297.552,309.029 296.5,305.5C 302.138,304.67 307.804,304.17 313.5,304C 316.742,303.594 319.742,302.761 322.5,301.5 Z"/></g>
<g><path style="opacity:1" fill="#f8c07b" d="M 285.5,334.5 C 299.573,340.192 314.24,342.025 329.5,340C 331.25,338.681 333.25,338.181 335.5,338.5C 335.5,339.833 335.5,341.167 335.5,342.5C 327.188,343.24 318.854,343.573 310.5,343.5C 310.452,346.292 311.785,348.125 314.5,349C 321.606,350.418 328.606,350.918 335.5,350.5C 326.993,352.81 318.327,353.81 309.5,353.5C 309.872,357.043 311.872,359.21 315.5,360C 321.167,360.667 326.833,360.667 332.5,360C 333.877,358.759 335.21,358.592 336.5,359.5C 329.934,361.651 323.267,363.485 316.5,365C 318.221,366.527 320.221,367.527 322.5,368C 310.405,369.197 298.739,367.53 287.5,363C 286.833,362.333 286.167,361.667 285.5,361C 288.048,356.433 287.881,351.933 285,347.5C 284.294,343.113 284.46,338.78 285.5,334.5 Z"/></g>
<g><path style="opacity:1" fill="#f7f8fb" d="M 264.5,360.5 C 267.85,360.335 271.183,360.502 274.5,361C 278.585,366.079 283.585,370.079 289.5,373C 307.698,379.752 325.364,378.752 342.5,370C 345.008,367.31 347.008,364.31 348.5,361C 351.054,360.442 353.054,361.275 354.5,363.5C 346.211,375.154 334.878,381.987 320.5,384C 305.396,387.057 290.73,385.724 276.5,380C 270.496,375.484 266.163,369.651 263.5,362.5C 263.863,361.817 264.196,361.15 264.5,360.5 Z"/></g>
<g><path style="opacity:1" fill="#6676a4" d="M 251.5,364.5 C 253.167,364.5 254.833,364.5 256.5,364.5C 257.766,373.268 262.099,380.101 269.5,385C 291.585,396.622 314.252,397.622 337.5,388C 349.14,383.192 358.14,375.359 364.5,364.5C 368.464,365.439 372.464,366.272 376.5,367C 371.53,369.975 367.196,373.642 363.5,378C 364,378.167 364.5,378.333 365,378.5C 372.102,374.298 379.602,370.965 387.5,368.5C 390.998,369.535 394.331,370.869 397.5,372.5C 388.411,375.806 379.744,379.973 371.5,385C 383.893,381.155 396.56,377.988 409.5,375.5C 412.622,376.561 415.622,377.894 418.5,379.5C 406.622,384.605 394.622,389.438 382.5,394C 397.691,391.954 412.691,388.787 427.5,384.5C 431.385,386.053 434.718,388.386 437.5,391.5C 425.268,394.389 413.268,397.889 401.5,402C 407.08,403.517 412.747,403.851 418.5,403C 427.043,401.159 435.543,399.325 444,397.5C 447.226,399.869 449.392,402.869 450.5,406.5C 439.188,406.401 428.188,408.068 417.5,411.5C 419.078,412.298 420.744,412.798 422.5,413C 433.833,413.333 445.167,413.667 456.5,414C 458.202,416.235 459.202,418.735 459.5,421.5C 448.119,421.144 436.785,421.644 425.5,423C 425.043,423.414 424.709,423.914 424.5,424.5C 427.298,425.969 430.298,426.802 433.5,427C 443.22,427.586 452.887,427.586 462.5,427C 463.812,430.051 464.812,433.217 465.5,436.5C 457.54,436.739 449.54,436.906 441.5,437C 437.529,437.085 433.862,438.085 430.5,440C 441.489,440.842 452.489,441.508 463.5,442C 459.91,443.53 456.243,444.864 452.5,446C 439.699,448.637 426.865,450.804 414,452.5C 412.981,448.774 411.647,445.107 410,441.5C 407.408,440.018 405.075,440.352 403,442.5C 401.763,446.06 401.263,449.727 401.5,453.5C 391.507,454.333 381.507,455.166 371.5,456C 337.833,456.667 304.167,456.667 270.5,456C 251.428,455.204 232.428,453.704 213.5,451.5C 213.666,447.486 213.499,443.486 213,439.5C 210.975,437.275 208.642,436.941 206,438.5C 204.154,441.204 202.987,444.204 202.5,447.5C 201.833,447.833 201.167,448.167 200.5,448.5C 191.471,446.101 182.471,443.601 173.5,441C 167.509,440.501 161.509,440.334 155.5,440.5C 155.273,428.619 158.773,417.952 166,408.5C 177.653,394.501 191.819,384.001 208.5,377C 222.749,372.078 237.082,367.912 251.5,364.5 Z"/></g>
</svg>
