<?xml version="1.0" encoding="UTF-8"?>
<!DOCTYPE svg PUBLIC "-//W3C//DTD SVG 1.1//EN" "http://www.w3.org/Graphics/SVG/1.1/DTD/svg11.dtd">
<svg xmlns="http://www.w3.org/2000/svg" version="1.1" width="959px" height="460px" style="shape-rendering:geometricPrecision; text-rendering:geometricPrecision; image-rendering:optimizeQuality; fill-rule:evenodd; clip-rule:evenodd" xmlns:xlink="http://www.w3.org/1999/xlink">
<g><path style="opacity:1" fill="#fefefe" d="M -0.5,-0.5 C 319.167,-0.5 638.833,-0.5 958.5,-0.5C 958.5,152.833 958.5,306.167 958.5,459.5C 638.833,459.5 319.167,459.5 -0.5,459.5C -0.5,306.167 -0.5,152.833 -0.5,-0.5 Z"/></g>
<g><path style="opacity:1" fill="#24498a" d="M 605.5,30.5 C 663.023,25.8617 717.356,36.6951 768.5,63C 778.199,68.3624 786.366,75.529 793,84.5C 800.473,99.1159 807.14,114.116 813,129.5C 812.976,141.257 809.976,152.257 804,162.5C 789.77,181.393 771.937,195.893 750.5,206C 707.983,224.45 663.483,233.617 617,233.5C 600.587,233.232 584.421,231.065 568.5,227C 560.493,225.051 553.493,226.718 547.5,232C 513.37,246.516 478.037,250.85 441.5,245C 438.833,242.667 438.833,240.333 441.5,238C 463.227,233.554 482.061,223.721 498,208.5C 499.009,206.975 499.509,205.308 499.5,203.5C 472.349,195.184 454.182,177.517 445,150.5C 439.328,135.6 440.328,121.267 448,107.5C 457.044,94.7828 467.211,82.9494 478.5,72C 492.174,63.4942 506.174,55.4942 520.5,48C 529.227,44.2022 538.227,41.2022 547.5,39C 566.882,35.4628 586.215,32.6295 605.5,30.5 Z"/></g>
<g><path style="opacity:1" fill="#fcfcfd" d="M 624.5,223.5 C 617.833,224.833 611.167,224.833 604.5,223.5C 604.489,221.983 603.823,220.816 602.5,220C 595.681,217.09 589.015,213.923 582.5,210.5C 581.5,210.833 580.833,211.5 580.5,212.5C 583.746,217.236 588.079,220.736 593.5,223C 584.452,222.326 575.452,220.993 566.5,219C 560.833,218.333 555.167,218.333 549.5,219C 535.51,229.225 519.843,235.558 502.5,238C 495.247,239.598 487.914,240.431 480.5,240.5C 475.968,240.818 471.634,240.485 467.5,239.5C 479.088,234.373 490.088,228.206 500.5,221C 503.704,218.131 506.537,214.965 509,211.5C 510.266,207.605 510.766,203.605 510.5,199.5C 480.127,190.457 461.294,170.457 454,139.5C 451.967,122.405 457.134,107.905 469.5,96C 477.803,88.6978 485.803,81.0311 493.5,73C 522.025,54.2679 553.359,43.2679 587.5,40C 617.198,37.7885 646.864,38.1218 676.5,41C 706.119,45.5397 734.119,54.873 760.5,69C 759.761,70.7646 759.761,72.7646 760.5,75C 762.669,75.4294 764.669,74.9294 766.5,73.5C 768.167,74.6667 769.833,75.8333 771.5,77C 768.143,78.5125 766.143,81.0125 765.5,84.5C 769.069,83.8111 772.569,82.8111 776,81.5C 778.185,83.3531 780.018,85.5197 781.5,88C 778.736,88.5323 776.07,89.3657 773.5,90.5C 772.614,91.325 772.281,92.325 772.5,93.5C 776.559,93.4341 780.559,93.2674 784.5,93C 785.399,95.1917 786.399,97.3584 787.5,99.5C 783.718,100.705 780.052,102.205 776.5,104C 775.663,105.011 775.33,106.178 775.5,107.5C 780.101,107.533 784.601,106.866 789,105.5C 791.223,107.28 792.39,109.614 792.5,112.5C 786.423,112.79 780.756,114.457 775.5,117.5C 782.183,118.051 788.849,118.384 795.5,118.5C 796.747,120.323 797.414,122.323 797.5,124.5C 790.341,125.206 783.341,126.706 776.5,129C 775.663,130.011 775.33,131.178 775.5,132.5C 783.56,132.491 791.56,131.824 799.5,130.5C 799.5,133.5 799.5,136.5 799.5,139.5C 788.009,139.701 776.676,141.034 765.5,143.5C 775.743,146.205 786.076,146.872 796.5,145.5C 797.081,149.28 796.081,152.78 793.5,156C 782.197,155.153 770.863,154.819 759.5,155C 768.916,158.526 778.583,161.359 788.5,163.5C 786.712,165.576 785.046,167.743 783.5,170C 774.935,168.221 766.268,166.554 757.5,165C 751.5,164.333 745.5,164.333 739.5,165C 741.275,166.439 743.275,167.439 745.5,168C 756.384,170.032 767.051,172.698 777.5,176C 774.78,178.745 771.613,180.579 768,181.5C 755.871,179.695 743.704,178.195 731.5,177C 730.294,179.709 731.294,181.375 734.5,182C 744.107,184.039 753.774,185.706 763.5,187C 760.42,189.29 757.253,191.457 754,193.5C 738.247,187.947 722.081,186.114 705.5,188C 704.273,189.587 704.606,190.921 706.5,192C 719.061,193.093 731.394,195.26 743.5,198.5C 739.669,201.165 735.502,203.165 731,204.5C 717.228,202.946 703.728,200.112 690.5,196C 685.875,194.838 681.208,194.504 676.5,195C 681.202,198.798 686.535,201.465 692.5,203C 701.632,205.95 710.965,207.95 720.5,209C 715.399,210.734 710.232,212.234 705,213.5C 696.372,210.774 687.539,208.941 678.5,208C 672.5,206 666.5,204 660.5,202C 657.446,201.179 654.446,201.345 651.5,202.5C 663.62,210.376 676.954,215.21 691.5,217C 684.55,218.714 677.55,220.214 670.5,221.5C 670.773,219.549 670.107,218.049 668.5,217C 657.229,213.132 645.895,209.465 634.5,206C 632.5,205.333 630.5,205.333 628.5,206C 628.043,206.414 627.709,206.914 627.5,207.5C 637.738,213.972 648.738,218.805 660.5,222C 655.039,223.063 649.539,223.896 644,224.5C 633.961,220.15 623.795,215.984 613.5,212C 609.687,210.228 605.687,209.395 601.5,209.5C 601.297,211.39 601.963,212.89 603.5,214C 610.027,218.264 617.027,221.431 624.5,223.5 Z"/></g>
<g><path style="opacity:1" fill="#385793" d="M 543.5,72.5 C 546.167,72.5 548.833,72.5 551.5,72.5C 551.5,73.5 551.5,74.5 551.5,75.5C 550.5,75.5 549.5,75.5 548.5,75.5C 548.521,83.6776 548.855,91.8443 549.5,100C 549.625,103.355 549.125,106.522 548,109.5C 546.523,98.3289 546.023,86.9956 546.5,75.5C 544.712,75.7852 543.045,75.4519 541.5,74.5C 542.243,73.8182 542.909,73.1515 543.5,72.5 Z"/></g>
<g><path style="opacity:1" fill="#375693" d="M 607.5,102.5 C 607.174,94.3159 607.508,86.3159 608.5,78.5C 609.33,87.324 609.83,96.324 610,105.5C 612.454,107.013 614.121,106.346 615,103.5C 615.833,94.5 616.667,85.5 617.5,76.5C 618.665,84.4792 618.832,92.4792 618,100.5C 617.641,104.579 615.807,107.579 612.5,109.5C 609.135,108.453 607.468,106.119 607.5,102.5 Z"/></g>
<g><path style="opacity:1" fill="#2c4e8d" d="M 563.5,94.5 C 562.432,93.5655 561.099,93.2322 559.5,93.5C 559.5,98.1667 559.5,102.833 559.5,107.5C 559.44,108.043 559.107,108.376 558.5,108.5C 557.167,98.1667 557.167,87.8333 558.5,77.5C 559.493,82.1196 559.827,86.7863 559.5,91.5C 560.919,92.4511 562.585,92.7845 564.5,92.5C 564.81,89.2869 564.477,86.2869 563.5,83.5C 563.5,81.1667 563.5,78.8333 563.5,76.5C 564.5,76.5 565.5,76.5 566.5,76.5C 566.832,87.1874 566.499,97.8541 565.5,108.5C 564.914,108.291 564.414,107.957 564,107.5C 563.501,103.179 563.334,98.8461 563.5,94.5 Z"/></g>
<g><path style="opacity:1" fill="#224889" d="M 579.5,91.5 C 578.167,91.5 576.833,91.5 575.5,91.5C 575.5,96.8333 575.5,102.167 575.5,107.5C 577.167,107.5 578.833,107.5 580.5,107.5C 581.738,107.81 581.738,108.31 580.5,109C 578.19,109.497 575.857,109.663 573.5,109.5C 573.5,98.8333 573.5,88.1667 573.5,77.5C 575.527,77.3379 577.527,77.5045 579.5,78C 579.957,78.414 580.291,78.914 580.5,79.5C 579.224,80.6446 577.891,80.6446 576.5,79.5C 575.513,82.7683 575.18,86.1016 575.5,89.5C 577.483,89.1568 578.817,89.8235 579.5,91.5 Z"/></g>
<g><path style="opacity:1" fill="#31528f" d="M 595.5,77.5 C 598.167,77.5 600.833,77.5 603.5,77.5C 603.5,78.5 603.5,79.5 603.5,80.5C 602.07,80.5792 600.736,80.2458 599.5,79.5C 597.984,84.039 598.317,88.3723 600.5,92.5C 599.675,93.3857 598.675,93.719 597.5,93.5C 597.666,98.5111 597.499,103.511 597,108.5C 595.633,109.524 594.8,109.024 594.5,107C 595.463,97.2071 595.796,87.3737 595.5,77.5 Z"/></g>
<g><path style="opacity:1" fill="#3b5994" d="M 621.5,78.5 C 624.687,77.1944 628.02,77.1944 631.5,78.5C 630.675,79.3857 629.675,79.719 628.5,79.5C 629.364,89.1813 629.364,98.848 628.5,108.5C 626.894,98.8989 625.894,89.2322 625.5,79.5C 624.041,79.5674 622.708,79.2341 621.5,78.5 Z"/></g>
<g><path style="opacity:1" fill="#355692" d="M 654.5,76.5 C 657.099,76.5494 659.266,77.5494 661,79.5C 661.69,84.142 661.19,88.642 659.5,93C 660.21,98.1745 661.543,103.174 663.5,108C 662.99,109.826 662.156,109.993 661,108.5C 659.287,103.604 657.954,98.6036 657,93.5C 656.829,98.8642 656.329,104.198 655.5,109.5C 654.501,98.5202 654.168,87.5202 654.5,76.5 Z"/></g>
<g><path style="opacity:1" fill="#375893" d="M 669.5,77.5 C 672.157,77.162 674.49,77.8287 676.5,79.5C 674.955,80.4519 673.288,80.7852 671.5,80.5C 671.5,83.5 671.5,86.5 671.5,89.5C 676.833,90.5 676.833,91.5 671.5,92.5C 671.5,97.5 671.5,102.5 671.5,107.5C 673.288,107.215 674.955,107.548 676.5,108.5C 673.966,109.777 671.466,109.777 669,108.5C 668.192,98.0899 668.359,87.7565 669.5,77.5 Z"/></g>
<g><path style="opacity:1" fill="#355591" d="M 689.5,77.5 C 691.924,77.1924 694.257,77.5258 696.5,78.5C 695.675,79.3857 694.675,79.719 693.5,79.5C 693.598,88.2095 694.265,96.8761 695.5,105.5C 696.5,105.833 697.167,106.5 697.5,107.5C 694.833,108.833 692.167,108.833 689.5,107.5C 690.777,102.847 691.443,98.0135 691.5,93C 691.394,87.6602 690.727,82.4935 689.5,77.5 Z"/></g>
<g><path style="opacity:1" fill="#345491" d="M 645.5,76.5 C 646.5,76.5 647.5,76.5 648.5,76.5C 648.839,85.2259 648.339,93.8926 647,102.5C 646.416,107.791 643.75,109.791 639,108.5C 638.027,106.608 637.36,104.608 637,102.5C 636.168,94.1467 636.335,85.8134 637.5,77.5C 638.182,86.8543 639.016,96.1876 640,105.5C 640.561,106.022 641.228,106.355 642,106.5C 643.735,105.318 644.735,103.651 645,101.5C 645.5,93.1733 645.666,84.84 645.5,76.5 Z"/></g>
<g><path style="opacity:1" fill="#e5e9f1" d="M 656.5,78.5 C 658.478,79.3171 659.478,80.8171 659.5,83C 659.066,85.6342 658.233,88.1342 657,90.5C 656.501,86.5138 656.334,82.5138 656.5,78.5 Z"/></g>
<g><path style="opacity:1" fill="#6580ad" d="M 608.5,78.5 C 607.508,86.3159 607.174,94.3159 607.5,102.5C 606.179,94.3242 606.179,85.9909 607.5,77.5C 608.107,77.6236 608.44,77.9569 608.5,78.5 Z"/></g>
<g><path style="opacity:1" fill="#899dc0" d="M 563.5,83.5 C 564.477,86.2869 564.81,89.2869 564.5,92.5C 562.585,92.7845 560.919,92.4511 559.5,91.5C 560.833,91.5 562.167,91.5 563.5,91.5C 563.5,88.8333 563.5,86.1667 563.5,83.5 Z"/></g>
<g><path style="opacity:1" fill="#385793" d="M 702.5,76.5 C 707.422,77.3344 707.589,78.6677 703,80.5C 702.833,81.5 702.667,82.5 702.5,83.5C 704.645,88.9547 706.645,94.4547 708.5,100C 708.701,104.441 706.868,107.607 703,109.5C 701.941,109.37 701.108,108.87 700.5,108C 704.728,107.263 706.395,104.763 705.5,100.5C 705.155,95.8006 703.655,91.4673 701,87.5C 700.112,83.5979 700.612,79.9312 702.5,76.5 Z"/></g>
<g><path style="opacity:1" fill="#99abc9" d="M 579.5,91.5 C 578.791,92.404 577.791,92.7373 576.5,92.5C 576.5,97.1667 576.5,101.833 576.5,106.5C 578.099,106.232 579.432,106.566 580.5,107.5C 578.833,107.5 577.167,107.5 575.5,107.5C 575.5,102.167 575.5,96.8333 575.5,91.5C 576.833,91.5 578.167,91.5 579.5,91.5 Z"/></g>
<g><path style="opacity:1" fill="#b3c0d7" d="M 563.5,94.5 C 562.5,94.5 561.5,94.5 560.5,94.5C 560.818,99.0323 560.485,103.366 559.5,107.5C 559.5,102.833 559.5,98.1667 559.5,93.5C 561.099,93.2322 562.432,93.5655 563.5,94.5 Z"/></g>
<g><path style="opacity:1" fill="#254a8a" d="M 314.5,95.5 C 378.707,95.1902 407.707,126.69 401.5,190C 406.735,196.51 409.068,204.01 408.5,212.5C 408.119,224.094 403.785,233.928 395.5,242C 393.091,243.707 390.425,244.54 387.5,244.5C 381.626,259.731 372.626,272.898 360.5,284C 355.338,287.749 350.004,291.249 344.5,294.5C 345.457,300.439 345.79,306.439 345.5,312.5C 372.671,314.567 399.004,320.401 424.5,330C 440.785,338.448 454.118,350.282 464.5,365.5C 469.344,365.952 470.344,367.952 467.5,371.5C 473.316,381.773 476.149,392.773 476,404.5C 474.352,405.717 472.519,406.55 470.5,407C 467.78,411.365 463.78,413.699 458.5,414C 444.743,417.714 430.743,420.048 416.5,421C 350.877,427.949 285.21,428.282 219.5,422C 203.778,418.203 188.111,414.203 172.5,410C 166.186,409.153 159.853,408.487 153.5,408C 151.349,406.43 149.182,404.93 147,403.5C 146.333,397.5 146.333,391.5 147,385.5C 153.255,368.237 163.755,354.07 178.5,343C 195.329,331.718 213.662,323.718 233.5,319C 247.439,315.848 261.439,313.015 275.5,310.5C 275.334,306.486 275.501,302.486 276,298.5C 276.606,295.452 278.106,292.952 280.5,291C 261.886,281.386 247.553,267.386 237.5,249C 227.528,247.427 220.694,241.927 217,232.5C 212.69,221.105 212.69,209.771 217,198.5C 218.268,196.283 219.768,194.283 221.5,192.5C 221.502,170.495 227.336,150.162 239,131.5C 243.21,125.622 248.377,120.789 254.5,117C 259.411,115.508 264.411,115.174 269.5,116C 270.687,117.019 271.687,118.186 272.5,119.5C 267.278,121.517 261.945,123.351 256.5,125C 245.655,134.835 238.489,147.002 235,161.5C 233.014,168.063 232.014,174.73 232,181.5C 244.881,173.951 255.881,164.284 265,152.5C 266.902,148.422 268.569,144.422 270,140.5C 261.866,147.567 253.199,153.9 244,159.5C 244.472,155.982 246.306,153.149 249.5,151C 256.078,145.255 263.078,140.088 270.5,135.5C 271.386,134.675 271.719,133.675 271.5,132.5C 268.984,132.755 266.65,133.589 264.5,135C 258.146,140.034 251.313,144.201 244,147.5C 243.5,147 243,146.5 242.5,146C 246.196,141.642 250.53,137.975 255.5,135C 258.661,133.587 261.661,131.92 264.5,130C 267.063,128.921 269.729,128.421 272.5,128.5C 272.307,125.525 273.307,123.025 275.5,121C 277.112,120.28 278.612,120.446 280,121.5C 280.219,143.583 289.719,160.583 308.5,172.5C 308.967,167.631 308.3,162.798 306.5,158C 307.445,155.386 309.278,153.886 312,153.5C 327.574,161.703 343.407,169.537 359.5,177C 370.376,181.681 381.709,183.515 393.5,182.5C 395.03,161.964 390.53,142.964 380,125.5C 371.001,116.415 360.168,110.582 347.5,108C 325.108,101.319 303.774,103.652 283.5,115C 281.231,115.758 279.064,115.591 277,114.5C 276.333,113.5 276.333,112.5 277,111.5C 284.66,105.584 293.16,101.084 302.5,98C 306.665,97.2946 310.665,96.4613 314.5,95.5 Z"/></g>
<g><path style="opacity:1" fill="#264b8b" d="M 304.5,110.5 C 323.064,110.95 340.397,115.783 356.5,125C 358.684,127.016 360.684,129.183 362.5,131.5C 360.235,132.647 357.902,132.814 355.5,132C 347.049,128.608 338.716,124.941 330.5,121C 321.486,117.33 312.153,115.997 302.5,117C 300.051,117.725 297.717,118.725 295.5,120C 311.015,123.035 326.348,126.702 341.5,131C 342.833,132 342.833,133 341.5,134C 336.5,134.667 331.5,134.667 326.5,134C 316.519,131.393 306.519,128.893 296.5,126.5C 304.043,132.978 313.043,138.145 323.5,142C 334.117,144.16 344.784,145.994 355.5,147.5C 355.5,148.5 355.5,149.5 355.5,150.5C 330.332,154.054 309.165,146.387 292,127.5C 293.636,134.447 296.136,141.114 299.5,147.5C 291.979,144.514 287.812,138.847 287,130.5C 287.066,127.422 286.899,124.422 286.5,121.5C 287.942,118.223 290.275,115.723 293.5,114C 297.161,112.407 300.828,111.241 304.5,110.5 Z"/></g>
<g><path style="opacity:1" fill="#2a4e8d" d="M 720.5,129.5 C 721.794,131.048 722.461,133.048 722.5,135.5C 721.889,143.493 721.389,151.493 721,159.5C 719.856,154.671 719.356,149.671 719.5,144.5C 719.525,139.421 719.858,134.421 720.5,129.5 Z"/></g>
<g><path style="opacity:1" fill="#315390" d="M 530.5,134.5 C 535.287,135.156 538.454,137.822 540,142.5C 540.667,148.5 540.667,154.5 540,160.5C 538.1,165.459 534.767,167.126 530,165.5C 529.192,155.09 529.359,144.757 530.5,134.5 Z"/></g>
<g><path style="opacity:1" fill="#395793" d="M 549.5,137.5 C 548.521,140.625 548.187,143.958 548.5,147.5C 549.833,147.5 551.167,147.5 552.5,147.5C 552.179,149.048 551.179,149.715 549.5,149.5C 549.5,154.5 549.5,159.5 549.5,164.5C 551.288,164.215 552.955,164.548 554.5,165.5C 552.337,167.72 549.837,168.053 547,166.5C 546.333,156.167 546.333,145.833 547,135.5C 549.081,134.667 551.248,134.667 553.5,135.5C 553.5,136.5 553.5,137.5 553.5,138.5C 552.041,138.567 550.708,138.234 549.5,137.5 Z"/></g>
<g><path style="opacity:1" fill="#395893" d="M 576.5,137.5 C 575.521,140.625 575.187,143.958 575.5,147.5C 576.833,147.5 578.167,147.5 579.5,147.5C 579.179,149.048 578.179,149.715 576.5,149.5C 576.5,154.5 576.5,159.5 576.5,164.5C 578.288,164.215 579.955,164.548 581.5,165.5C 579.337,167.72 576.837,168.053 574,166.5C 573.333,156.167 573.333,145.833 574,135.5C 576.081,134.667 578.248,134.667 580.5,135.5C 580.5,136.5 580.5,137.5 580.5,138.5C 579.041,138.567 577.708,138.234 576.5,137.5 Z"/></g>
<g><path style="opacity:1" fill="#2e508e" d="M 588.5,134.5 C 590.074,134.937 591.241,135.937 592,137.5C 595.085,145.423 597.752,153.423 600,161.5C 600.5,152.84 600.666,144.173 600.5,135.5C 601.5,135.5 602.5,135.5 603.5,135.5C 603.176,145.505 602.676,155.505 602,165.5C 600.989,166.337 599.822,166.67 598.5,166.5C 596.581,157.576 593.748,148.909 590,140.5C 589.185,148.746 589.352,156.912 590.5,165C 589.975,165.692 589.308,166.192 588.5,166.5C 587.192,155.772 587.192,145.106 588.5,134.5 Z"/></g>
<g><path style="opacity:1" fill="#365692" d="M 607.5,134.5 C 610.5,134.5 613.5,134.5 616.5,134.5C 616.5,135.5 616.5,136.5 616.5,137.5C 615.5,137.5 614.5,137.5 613.5,137.5C 614.328,176.142 613.495,176.142 611,137.5C 609.271,137.026 608.105,136.026 607.5,134.5 Z"/></g>
<g><path style="opacity:1" fill="#355692" d="M 622.5,134.5 C 625.325,134.081 627.491,135.081 629,137.5C 629.731,141.983 629.231,146.317 627.5,150.5C 628.138,155.858 629.471,161.025 631.5,166C 631.167,166.5 630.833,167 630.5,167.5C 629.029,166.619 628.196,165.286 628,163.5C 627,159.167 626,154.833 625,150.5C 624.829,155.864 624.329,161.198 623.5,166.5C 622.501,155.854 622.168,145.187 622.5,134.5 Z"/></g>
<g><path style="opacity:1" fill="#30528f" d="M 651.5,134.5 C 653.474,144.111 654.141,154.111 653.5,164.5C 655.75,164.181 657.75,164.681 659.5,166C 656.518,166.498 653.518,166.665 650.5,166.5C 651.043,155.841 651.377,145.175 651.5,134.5 Z"/></g>
<g><path style="opacity:1" fill="#446199" d="M 663.5,134.5 C 665.167,134.5 666.833,134.5 668.5,134.5C 666.115,144.086 666.115,153.753 668.5,163.5C 669.308,163.808 669.975,164.308 670.5,165C 668.045,166.54 665.379,166.874 662.5,166C 661.391,164.187 662.058,163.354 664.5,163.5C 664.533,154.291 663.533,145.291 661.5,136.5C 662.243,135.818 662.909,135.151 663.5,134.5 Z"/></g>
<g><path style="opacity:1" fill="#3a5994" d="M 676.5,134.5 C 678.527,134.338 680.527,134.505 682.5,135C 683.022,135.561 683.355,136.228 683.5,137C 680.864,145.744 678.53,154.578 676.5,163.5C 677.833,163.5 679.167,163.5 680.5,163.5C 680.5,164.5 680.5,165.5 680.5,166.5C 678.167,166.5 675.833,166.5 673.5,166.5C 674.811,156.571 677.145,146.904 680.5,137.5C 679.127,137.657 677.793,137.49 676.5,137C 675.402,136.23 675.402,135.397 676.5,134.5 Z"/></g>
<g><path style="opacity:1" fill="#3e5d97" d="M 689.5,134.5 C 692.226,134.264 694.559,135.097 696.5,137C 695.135,138.682 693.635,138.849 692,137.5C 691.502,140.817 691.335,144.15 691.5,147.5C 696.833,148.167 696.833,148.833 691.5,149.5C 691.5,154.5 691.5,159.5 691.5,164.5C 693.288,164.215 694.955,164.548 696.5,165.5C 694.337,167.72 691.837,168.053 689,166.5C 688.192,155.757 688.358,145.09 689.5,134.5 Z"/></g>
<g><path style="opacity:1" fill="#335491" d="M 702.5,134.5 C 710.739,136.781 714.405,142.281 713.5,151C 714.091,156.804 712.425,161.804 708.5,166C 706.527,166.495 704.527,166.662 702.5,166.5C 702.5,155.833 702.5,145.167 702.5,134.5 Z"/></g>
<g><path style="opacity:1" fill="#395893" d="M 563.5,134.5 C 569.893,135.463 569.727,136.796 563,138.5C 560.861,146.935 561.027,155.268 563.5,163.5C 565.167,164.167 566.833,164.833 568.5,165.5C 566.166,167.987 563.666,167.987 561,165.5C 558.579,158.015 557.912,150.348 559,142.5C 559.738,139.352 561.238,136.685 563.5,134.5 Z"/></g>
<g><path style="opacity:1" fill="#f6f8fa" d="M 624.5,136.5 C 626.927,139.81 627.093,143.477 625,147.5C 624.501,143.848 624.335,140.182 624.5,136.5 Z"/></g>
<g><path style="opacity:1" fill="#f5f7fa" d="M 534.5,163.5 C 533.833,159.167 533.167,154.833 532.5,150.5C 532.174,146.116 532.508,141.783 533.5,137.5C 535.718,138.924 537.218,140.924 538,143.5C 538.667,147.833 538.667,152.167 538,156.5C 537.861,159.445 536.694,161.779 534.5,163.5 Z"/></g>
<g><path style="opacity:1" fill="#f1f3f7" d="M 704.5,137.5 C 707.595,137.626 709.428,139.293 710,142.5C 710.667,148.167 710.667,153.833 710,159.5C 709.376,161.754 708.043,163.421 706,164.5C 705.215,155.513 704.715,146.513 704.5,137.5 Z"/></g>
<g><path style="opacity:1" fill="#91a5c5" d="M 549.5,137.5 C 549.5,140.5 549.5,143.5 549.5,146.5C 550.791,146.263 551.791,146.596 552.5,147.5C 551.167,147.5 549.833,147.5 548.5,147.5C 548.187,143.958 548.521,140.625 549.5,137.5 Z"/></g>
<g><path style="opacity:1" fill="#8da1c2" d="M 576.5,137.5 C 576.5,140.5 576.5,143.5 576.5,146.5C 577.791,146.263 578.791,146.596 579.5,147.5C 578.167,147.5 576.833,147.5 575.5,147.5C 575.187,143.958 575.521,140.625 576.5,137.5 Z"/></g>
<g><path style="opacity:1" fill="#f9c078" d="M 391.5,210.5 C 392.163,208.359 392.497,206.025 392.5,203.5C 392.685,199.859 392.019,196.526 390.5,193.5C 390.5,193.167 390.5,192.833 390.5,192.5C 390.842,191.662 391.508,191.328 392.5,191.5C 403.09,205.791 403.09,220.124 392.5,234.5C 391.833,233.167 391.167,231.833 390.5,230.5C 388.151,226.196 384.984,225.53 381,228.5C 376.627,247.416 367.46,263.582 353.5,277C 333.613,291.319 312.28,293.986 289.5,285C 263.111,273.608 246.444,253.942 239.5,226C 237.888,225.28 236.388,225.446 235,226.5C 234.827,230.541 234.327,234.541 233.5,238.5C 224.651,232.048 220.651,223.215 221.5,212C 220.754,205.218 222.921,199.718 228,195.5C 228.031,199.768 229.031,203.768 231,207.5C 233,208.833 235,208.833 237,207.5C 236.411,199.564 238.078,192.231 242,185.5C 249.667,178.5 257.333,171.5 265,164.5C 268.894,158.601 271.894,152.268 274,145.5C 281.005,158.978 290.505,170.478 302.5,180C 306.594,182.198 310.927,183.698 315.5,184.5C 318.732,184.265 320.732,182.598 321.5,179.5C 320.17,175.197 319.337,170.863 319,166.5C 337.713,178.401 357.879,186.567 379.5,191C 380.46,192.419 381.293,193.919 382,195.5C 382.333,201.167 382.667,206.833 383,212.5C 385.153,214.444 387.653,214.944 390.5,214C 391.337,212.989 391.67,211.822 391.5,210.5 Z"/></g>
<g><path style="opacity:1" fill="#3d5a95" d="M 639.5,134.5 C 640.833,134.5 642.167,134.5 643.5,134.5C 643.687,145.271 644.687,155.937 646.5,166.5C 645.5,166.5 644.5,166.5 643.5,166.5C 643.5,164.167 643.5,161.833 643.5,159.5C 641.5,159.167 639.5,158.833 637.5,158.5C 637.663,160.857 637.497,163.19 637,165.5C 635.989,166.337 634.822,166.67 633.5,166.5C 635.966,155.898 637.966,145.231 639.5,134.5 Z"/></g>
<g><path style="opacity:1" fill="#e0e5ee" d="M 640.5,140.5 C 642.012,145.929 642.679,151.596 642.5,157.5C 641.167,157.5 639.833,157.5 638.5,157.5C 638.684,151.769 639.35,146.102 640.5,140.5 Z"/></g>
<g><path style="opacity:1" fill="#9fb0cc" d="M 532.5,150.5 C 533.167,154.833 533.833,159.167 534.5,163.5C 534.44,164.043 534.107,164.376 533.5,164.5C 532.507,159.88 532.173,155.214 532.5,150.5 Z"/></g>
<g><path style="opacity:1" fill="#385894" d="M 719.5,163.5 C 720.995,163.415 721.995,164.081 722.5,165.5C 721.68,167.111 720.346,167.778 718.5,167.5C 718.433,166.041 718.766,164.708 719.5,163.5 Z"/></g>
<g><path style="opacity:1" fill="#bbc8db" d="M 392.5,191.5 C 391.508,191.328 390.842,191.662 390.5,192.5C 389.115,191.698 389.282,191.031 391,190.5C 391.765,190.57 392.265,190.903 392.5,191.5 Z"/></g>
<g><path style="opacity:1" fill="#6f86b2" d="M 390.5,193.5 C 392.019,196.526 392.685,199.859 392.5,203.5C 392.497,206.025 392.163,208.359 391.5,210.5C 391.625,204.797 391.292,199.13 390.5,193.5 Z"/></g>
<g><path style="opacity:1" fill="#284b8b" d="M 272.5,207.5 C 284.709,207.92 289.209,214.254 286,226.5C 282.691,233.48 277.525,235.314 270.5,232C 265.798,227.078 264.298,221.245 266,214.5C 267.425,211.394 269.592,209.06 272.5,207.5 Z"/></g>
<g><path style="opacity:1" fill="#2b4d8c" d="M 340.5,207.5 C 352.231,207.074 357.064,212.741 355,224.5C 352.866,233.306 347.699,235.806 339.5,232C 333.514,226.993 332.014,220.826 335,213.5C 336.803,211.377 338.637,209.377 340.5,207.5 Z"/></g>
<g><path style="opacity:1" fill="#b3c0d6" d="M 604.5,223.5 C 611.167,224.833 617.833,224.833 624.5,223.5C 625.289,223.783 625.956,224.283 626.5,225C 618.812,225.831 611.145,225.665 603.5,224.5C 603.624,223.893 603.957,223.56 604.5,223.5 Z"/></g>
<g><path style="opacity:1" fill="#335390" d="M 308.5,230.5 C 311.48,230.241 313.313,231.574 314,234.5C 315.566,240.022 315.733,245.522 314.5,251C 312.559,251.743 310.726,251.576 309,250.5C 308.5,243.842 308.334,237.175 308.5,230.5 Z"/></g>
<g><path style="opacity:1" fill="#bbc7db" d="M 390.5,230.5 C 391.167,231.833 391.833,233.167 392.5,234.5C 392.44,235.043 392.107,235.376 391.5,235.5C 390.548,233.955 390.215,232.288 390.5,230.5 Z"/></g>
<g><path style="opacity:1" fill="#a7b6d0" d="M 467.5,239.5 C 471.634,240.485 475.968,240.818 480.5,240.5C 475.35,241.651 470.016,241.817 464.5,241C 465.244,239.961 466.244,239.461 467.5,239.5 Z"/></g>
<g><path style="opacity:1" fill="#385692" d="M 322.5,260.5 C 325.187,260.336 327.854,260.503 330.5,261C 333.281,264.807 332.281,267.474 327.5,269C 319.634,271.258 311.634,271.924 303.5,271C 299.885,270.196 297.552,268.029 296.5,264.5C 302.138,263.67 307.804,263.17 313.5,263C 316.742,262.594 319.742,261.761 322.5,260.5 Z"/></g>
<g><path style="opacity:1" fill="#f8c07b" d="M 285.5,293.5 C 299.573,299.192 314.24,301.025 329.5,299C 331.25,297.681 333.25,297.181 335.5,297.5C 335.5,298.833 335.5,300.167 335.5,301.5C 327.188,302.24 318.854,302.573 310.5,302.5C 310.452,305.292 311.785,307.125 314.5,308C 321.606,309.418 328.606,309.918 335.5,309.5C 326.993,311.81 318.327,312.81 309.5,312.5C 309.872,316.043 311.872,318.21 315.5,319C 321.167,319.667 326.833,319.667 332.5,319C 333.877,317.759 335.21,317.592 336.5,318.5C 329.934,320.651 323.267,322.485 316.5,324C 318.221,325.527 320.221,326.527 322.5,327C 310.405,328.197 298.739,326.53 287.5,322C 286.833,321.333 286.167,320.667 285.5,320C 288.048,315.433 287.881,310.933 285,306.5C 284.294,302.113 284.46,297.78 285.5,293.5 Z"/></g>
<g><path style="opacity:1" fill="#f7f8fb" d="M 264.5,319.5 C 267.85,319.335 271.183,319.502 274.5,320C 278.585,325.079 283.585,329.079 289.5,332C 307.698,338.752 325.364,337.752 342.5,329C 345.008,326.31 347.008,323.31 348.5,320C 351.054,319.442 353.054,320.275 354.5,322.5C 346.211,334.154 334.878,340.987 320.5,343C 305.396,346.057 290.73,344.724 276.5,339C 270.496,334.484 266.163,328.651 263.5,321.5C 263.863,320.817 264.196,320.15 264.5,319.5 Z"/></g>
<g><path style="opacity:1" fill="#6676a4" d="M 251.5,323.5 C 253.167,323.5 254.833,323.5 256.5,323.5C 257.766,332.268 262.099,339.101 269.5,344C 291.585,355.622 314.252,356.622 337.5,347C 349.14,342.192 358.14,334.359 364.5,323.5C 368.464,324.439 372.464,325.272 376.5,326C 371.53,328.975 367.196,332.642 363.5,337C 364,337.167 364.5,337.333 365,337.5C 372.102,333.298 379.602,329.965 387.5,327.5C 390.998,328.535 394.331,329.869 397.5,331.5C 388.411,334.806 379.744,338.973 371.5,344C 383.893,340.155 396.56,336.988 409.5,334.5C 412.622,335.561 415.622,336.894 418.5,338.5C 406.622,343.605 394.622,348.438 382.5,353C 397.691,350.954 412.691,347.787 427.5,343.5C 431.385,345.053 434.718,347.386 437.5,350.5C 425.268,353.389 413.268,356.889 401.5,361C 407.08,362.517 412.747,362.851 418.5,362C 427.043,360.159 435.543,358.325 444,356.5C 447.226,358.869 449.392,361.869 450.5,365.5C 439.188,365.401 428.188,367.068 417.5,370.5C 419.078,371.298 420.744,371.798 422.5,372C 433.833,372.333 445.167,372.667 456.5,373C 458.202,375.235 459.202,377.735 459.5,380.5C 448.119,380.144 436.785,380.644 425.5,382C 425.043,382.414 424.709,382.914 424.5,383.5C 427.298,384.969 430.298,385.802 433.5,386C 443.22,386.586 452.887,386.586 462.5,386C 463.812,389.051 464.812,392.217 465.5,395.5C 457.54,395.739 449.54,395.906 441.5,396C 437.529,396.085 433.862,397.085 430.5,399C 441.489,399.842 452.489,400.508 463.5,401C 459.91,402.53 456.243,403.864 452.5,405C 439.699,407.637 426.865,409.804 414,411.5C 412.981,407.774 411.647,404.107 410,400.5C 407.408,399.018 405.075,399.352 403,401.5C 401.763,405.06 401.263,408.727 401.5,412.5C 391.507,413.333 381.507,414.166 371.5,415C 337.833,415.667 304.167,415.667 270.5,415C 251.428,414.204 232.428,412.704 213.5,410.5C 213.666,406.486 213.499,402.486 213,398.5C 210.975,396.275 208.642,395.941 206,397.5C 204.154,400.204 202.987,403.204 202.5,406.5C 201.833,406.833 201.167,407.167 200.5,407.5C 191.471,405.101 182.471,402.601 173.5,400C 167.509,399.501 161.509,399.334 155.5,399.5C 155.273,387.619 158.773,376.952 166,367.5C 177.653,353.501 191.819,343.001 208.5,336C 222.749,331.078 237.082,326.912 251.5,323.5 Z"/></g>
</svg>
