<?xml version="1.0" encoding="UTF-8"?>
<!DOCTYPE svg PUBLIC "-//W3C//DTD SVG 1.1//EN" "http://www.w3.org/Graphics/SVG/1.1/DTD/svg11.dtd">
<svg xmlns="http://www.w3.org/2000/svg" version="1.1" width="960px" height="420px" style="shape-rendering:geometricPrecision; text-rendering:geometricPrecision; image-rendering:optimizeQuality; fill-rule:evenodd; clip-rule:evenodd" xmlns:xlink="http://www.w3.org/1999/xlink">
<g><path style="opacity:1" fill="#fefefe" d="M -0.5,-0.5 C 319.5,-0.5 639.5,-0.5 959.5,-0.5C 959.5,139.5 959.5,279.5 959.5,419.5C 639.5,419.5 319.5,419.5 -0.5,419.5C -0.5,279.5 -0.5,139.5 -0.5,-0.5 Z"/></g>
<g><path style="opacity:1" fill="#24498a" d="M 605.5,11.5 C 663.023,6.86175 717.356,17.6951 768.5,44C 778.199,49.3624 786.366,56.529 793,65.5C 800.473,80.1159 807.14,95.1159 813,110.5C 812.976,122.257 809.976,133.257 804,143.5C 789.77,162.393 771.937,176.893 750.5,187C 707.983,205.45 663.483,214.617 617,214.5C 600.587,214.232 584.421,212.065 568.5,208C 560.493,206.051 553.493,207.718 547.5,213C 513.37,227.516 478.037,231.85 441.5,226C 438.833,223.667 438.833,221.333 441.5,219C 463.227,214.554 482.061,204.721 498,189.5C 499.009,187.975 499.509,186.308 499.5,184.5C 472.349,176.184 454.182,158.517 445,131.5C 439.328,116.6 440.328,102.267 448,88.5C 457.044,75.7828 467.211,63.9494 478.5,53C 492.174,44.4942 506.174,36.4942 520.5,29C 529.227,25.2022 538.227,22.2022 547.5,20C 566.882,16.4628 586.215,13.6295 605.5,11.5 Z"/></g>
<g><path style="opacity:1" fill="#fcfcfd" d="M 624.5,204.5 C 617.833,205.833 611.167,205.833 604.5,204.5C 604.489,202.983 603.823,201.816 602.5,201C 595.681,198.09 589.015,194.923 582.5,191.5C 581.5,191.833 580.833,192.5 580.5,193.5C 583.746,198.236 588.079,201.736 593.5,204C 584.452,203.326 575.452,201.993 566.5,200C 560.833,199.333 555.167,199.333 549.5,200C 535.51,210.225 519.843,216.558 502.5,219C 495.247,220.598 487.914,221.431 480.5,221.5C 475.968,221.818 471.634,221.485 467.5,220.5C 479.088,215.373 490.088,209.206 500.5,202C 503.704,199.131 506.537,195.965 509,192.5C 510.266,188.605 510.766,184.605 510.5,180.5C 480.127,171.457 461.294,151.457 454,120.5C 451.967,103.405 457.134,88.9053 469.5,77C 477.803,69.6978 485.803,62.0311 493.5,54C 522.025,35.2679 553.359,24.2679 587.5,21C 617.198,18.7885 646.864,19.1218 676.5,22C 706.119,26.5397 734.119,35.873 760.5,50C 759.761,51.7646 759.761,53.7646 760.5,56C 762.669,56.4294 764.669,55.9294 766.5,54.5C 768.167,55.6667 769.833,56.8333 771.5,58C 768.143,59.5125 766.143,62.0125 765.5,65.5C 769.069,64.8111 772.569,63.8111 776,62.5C 778.185,64.3531 780.018,66.5197 781.5,69C 778.736,69.5323 776.07,70.3657 773.5,71.5C 772.614,72.325 772.281,73.325 772.5,74.5C 776.559,74.4341 780.559,74.2674 784.5,74C 785.399,76.1917 786.399,78.3584 787.5,80.5C 783.718,81.7054 780.052,83.2054 776.5,85C 775.663,86.0113 775.33,87.1779 775.5,88.5C 780.101,88.5331 784.601,87.8665 789,86.5C 791.223,88.2802 792.39,90.6135 792.5,93.5C 786.423,93.79 780.756,95.4567 775.5,98.5C 782.183,99.0506 788.849,99.384 795.5,99.5C 796.747,101.323 797.414,103.323 797.5,105.5C 790.341,106.206 783.341,107.706 776.5,110C 775.663,111.011 775.33,112.178 775.5,113.5C 783.56,113.491 791.56,112.824 799.5,111.5C 799.5,114.5 799.5,117.5 799.5,120.5C 788.009,120.701 776.676,122.034 765.5,124.5C 775.743,127.205 786.076,127.872 796.5,126.5C 797.081,130.28 796.081,133.78 793.5,137C 782.197,136.153 770.863,135.819 759.5,136C 768.916,139.526 778.583,142.359 788.5,144.5C 786.712,146.576 785.046,148.743 783.5,151C 774.935,149.221 766.268,147.554 757.5,146C 751.5,145.333 745.5,145.333 739.5,146C 741.275,147.439 743.275,148.439 745.5,149C 756.384,151.032 767.051,153.698 777.5,157C 774.78,159.745 771.613,161.579 768,162.5C 755.871,160.695 743.704,159.195 731.5,158C 730.294,160.709 731.294,162.375 734.5,163C 744.107,165.039 753.774,166.706 763.5,168C 760.42,170.29 757.253,172.457 754,174.5C 738.247,168.947 722.081,167.114 705.5,169C 704.273,170.587 704.606,171.921 706.5,173C 719.061,174.093 731.394,176.26 743.5,179.5C 739.669,182.165 735.502,184.165 731,185.5C 717.228,183.946 703.728,181.112 690.5,177C 685.875,175.838 681.208,175.504 676.5,176C 681.202,179.798 686.535,182.465 692.5,184C 701.632,186.95 710.965,188.95 720.5,190C 715.399,191.734 710.232,193.234 705,194.5C 696.372,191.774 687.539,189.941 678.5,189C 672.5,187 666.5,185 660.5,183C 657.446,182.179 654.446,182.345 651.5,183.5C 663.62,191.376 676.954,196.21 691.5,198C 684.55,199.714 677.55,201.214 670.5,202.5C 670.773,200.549 670.107,199.049 668.5,198C 657.229,194.132 645.895,190.465 634.5,187C 632.5,186.333 630.5,186.333 628.5,187C 628.043,187.414 627.709,187.914 627.5,188.5C 637.738,194.972 648.738,199.805 660.5,203C 655.039,204.063 649.539,204.896 644,205.5C 633.961,201.15 623.795,196.984 613.5,193C 609.687,191.228 605.687,190.395 601.5,190.5C 601.297,192.39 601.963,193.89 603.5,195C 610.027,199.264 617.027,202.431 624.5,204.5 Z"/></g>
<g><path style="opacity:1" fill="#385793" d="M 543.5,53.5 C 546.167,53.5 548.833,53.5 551.5,53.5C 551.5,54.5 551.5,55.5 551.5,56.5C 550.5,56.5 549.5,56.5 548.5,56.5C 548.521,64.6776 548.855,72.8443 549.5,81C 549.625,84.3552 549.125,87.5219 548,90.5C 546.523,79.3289 546.023,67.9956 546.5,56.5C 544.712,56.7852 543.045,56.4519 541.5,55.5C 542.243,54.8182 542.909,54.1515 543.5,53.5 Z"/></g>
<g><path style="opacity:1" fill="#375693" d="M 607.5,83.5 C 607.174,75.3159 607.508,67.3159 608.5,59.5C 609.33,68.324 609.83,77.324 610,86.5C 612.454,88.013 614.121,87.3463 615,84.5C 615.833,75.5 616.667,66.5 617.5,57.5C 618.665,65.4792 618.832,73.4792 618,81.5C 617.641,85.5786 615.807,88.5786 612.5,90.5C 609.135,89.4526 607.468,87.1193 607.5,83.5 Z"/></g>
<g><path style="opacity:1" fill="#2c4e8d" d="M 563.5,75.5 C 562.432,74.5655 561.099,74.2322 559.5,74.5C 559.5,79.1667 559.5,83.8333 559.5,88.5C 559.44,89.0431 559.107,89.3764 558.5,89.5C 557.167,79.1667 557.167,68.8333 558.5,58.5C 559.493,63.1196 559.827,67.7863 559.5,72.5C 560.919,73.4511 562.585,73.7845 564.5,73.5C 564.81,70.2869 564.477,67.2869 563.5,64.5C 563.5,62.1667 563.5,59.8333 563.5,57.5C 564.5,57.5 565.5,57.5 566.5,57.5C 566.832,68.1874 566.499,78.8541 565.5,89.5C 564.914,89.2907 564.414,88.9574 564,88.5C 563.501,84.1794 563.334,79.8461 563.5,75.5 Z"/></g>
<g><path style="opacity:1" fill="#224889" d="M 579.5,72.5 C 578.167,72.5 576.833,72.5 575.5,72.5C 575.5,77.8333 575.5,83.1667 575.5,88.5C 577.167,88.5 578.833,88.5 580.5,88.5C 581.738,88.81 581.738,89.31 580.5,90C 578.19,90.4966 575.857,90.6633 573.5,90.5C 573.5,79.8333 573.5,69.1667 573.5,58.5C 575.527,58.3379 577.527,58.5045 579.5,59C 579.957,59.414 580.291,59.914 580.5,60.5C 579.224,61.6446 577.891,61.6446 576.5,60.5C 575.513,63.7683 575.18,67.1016 575.5,70.5C 577.483,70.1568 578.817,70.8235 579.5,72.5 Z"/></g>
<g><path style="opacity:1" fill="#31528f" d="M 595.5,58.5 C 598.167,58.5 600.833,58.5 603.5,58.5C 603.5,59.5 603.5,60.5 603.5,61.5C 602.07,61.5792 600.736,61.2458 599.5,60.5C 597.984,65.039 598.317,69.3723 600.5,73.5C 599.675,74.3857 598.675,74.719 597.5,74.5C 597.666,79.5111 597.499,84.5111 597,89.5C 595.633,90.5243 594.8,90.0243 594.5,88C 595.463,78.2071 595.796,68.3737 595.5,58.5 Z"/></g>
<g><path style="opacity:1" fill="#3b5994" d="M 621.5,59.5 C 624.687,58.1944 628.02,58.1944 631.5,59.5C 630.675,60.3857 629.675,60.719 628.5,60.5C 629.364,70.1813 629.364,79.848 628.5,89.5C 626.894,79.8989 625.894,70.2322 625.5,60.5C 624.041,60.5674 622.708,60.2341 621.5,59.5 Z"/></g>
<g><path style="opacity:1" fill="#355692" d="M 654.5,57.5 C 657.099,57.5494 659.266,58.5494 661,60.5C 661.69,65.142 661.19,69.642 659.5,74C 660.21,79.1745 661.543,84.1745 663.5,89C 662.99,90.8261 662.156,90.9928 661,89.5C 659.287,84.6036 657.954,79.6036 657,74.5C 656.829,79.8642 656.329,85.1975 655.5,90.5C 654.501,79.5202 654.168,68.5202 654.5,57.5 Z"/></g>
<g><path style="opacity:1" fill="#375893" d="M 669.5,58.5 C 672.157,58.162 674.49,58.8287 676.5,60.5C 674.955,61.4519 673.288,61.7852 671.5,61.5C 671.5,64.5 671.5,67.5 671.5,70.5C 676.833,71.5 676.833,72.5 671.5,73.5C 671.5,78.5 671.5,83.5 671.5,88.5C 673.288,88.2148 674.955,88.5481 676.5,89.5C 673.966,90.7766 671.466,90.7766 669,89.5C 668.192,79.0899 668.359,68.7565 669.5,58.5 Z"/></g>
<g><path style="opacity:1" fill="#355591" d="M 689.5,58.5 C 691.924,58.1924 694.257,58.5258 696.5,59.5C 695.675,60.3857 694.675,60.719 693.5,60.5C 693.598,69.2095 694.265,77.8761 695.5,86.5C 696.5,86.8333 697.167,87.5 697.5,88.5C 694.833,89.8333 692.167,89.8333 689.5,88.5C 690.777,83.8468 691.443,79.0135 691.5,74C 691.394,68.6602 690.727,63.4935 689.5,58.5 Z"/></g>
<g><path style="opacity:1" fill="#345491" d="M 645.5,57.5 C 646.5,57.5 647.5,57.5 648.5,57.5C 648.839,66.2259 648.339,74.8926 647,83.5C 646.416,88.7912 643.75,90.7912 639,89.5C 638.027,87.6079 637.36,85.6079 637,83.5C 636.168,75.1467 636.335,66.8134 637.5,58.5C 638.182,67.8543 639.016,77.1876 640,86.5C 640.561,87.0219 641.228,87.3552 642,87.5C 643.735,86.3181 644.735,84.6515 645,82.5C 645.5,74.1733 645.666,65.84 645.5,57.5 Z"/></g>
<g><path style="opacity:1" fill="#e5e9f1" d="M 656.5,59.5 C 658.478,60.3171 659.478,61.8171 659.5,64C 659.066,66.6342 658.233,69.1342 657,71.5C 656.501,67.5138 656.334,63.5138 656.5,59.5 Z"/></g>
<g><path style="opacity:1" fill="#6580ad" d="M 608.5,59.5 C 607.508,67.3159 607.174,75.3159 607.5,83.5C 606.179,75.3242 606.179,66.9909 607.5,58.5C 608.107,58.6236 608.44,58.9569 608.5,59.5 Z"/></g>
<g><path style="opacity:1" fill="#899dc0" d="M 563.5,64.5 C 564.477,67.2869 564.81,70.2869 564.5,73.5C 562.585,73.7845 560.919,73.4511 559.5,72.5C 560.833,72.5 562.167,72.5 563.5,72.5C 563.5,69.8333 563.5,67.1667 563.5,64.5 Z"/></g>
<g><path style="opacity:1" fill="#385793" d="M 702.5,57.5 C 707.422,58.3344 707.589,59.6677 703,61.5C 702.833,62.5 702.667,63.5 702.5,64.5C 704.645,69.9547 706.645,75.4547 708.5,81C 708.701,85.4408 706.868,88.6075 703,90.5C 701.941,90.3699 701.108,89.8699 700.5,89C 704.728,88.2635 706.395,85.7635 705.5,81.5C 705.155,76.8006 703.655,72.4673 701,68.5C 700.112,64.5979 700.612,60.9312 702.5,57.5 Z"/></g>
<g><path style="opacity:1" fill="#99abc9" d="M 579.5,72.5 C 578.791,73.404 577.791,73.7373 576.5,73.5C 576.5,78.1667 576.5,82.8333 576.5,87.5C 578.099,87.2322 579.432,87.5655 580.5,88.5C 578.833,88.5 577.167,88.5 575.5,88.5C 575.5,83.1667 575.5,77.8333 575.5,72.5C 576.833,72.5 578.167,72.5 579.5,72.5 Z"/></g>
<g><path style="opacity:1" fill="#b3c0d7" d="M 563.5,75.5 C 562.5,75.5 561.5,75.5 560.5,75.5C 560.818,80.0323 560.485,84.3656 559.5,88.5C 559.5,83.8333 559.5,79.1667 559.5,74.5C 561.099,74.2322 562.432,74.5655 563.5,75.5 Z"/></g>
<g><path style="opacity:1" fill="#254a8a" d="M 314.5,76.5 C 378.707,76.1902 407.707,107.69 401.5,171C 406.735,177.51 409.068,185.01 408.5,193.5C 408.119,205.094 403.785,214.928 395.5,223C 393.091,224.707 390.425,225.54 387.5,225.5C 381.626,240.731 372.626,253.898 360.5,265C 355.338,268.749 350.004,272.249 344.5,275.5C 345.457,281.439 345.79,287.439 345.5,293.5C 372.671,295.567 399.004,301.401 424.5,311C 440.785,319.448 454.118,331.282 464.5,346.5C 469.344,346.952 470.344,348.952 467.5,352.5C 473.316,362.773 476.149,373.773 476,385.5C 474.352,386.717 472.519,387.55 470.5,388C 467.78,392.365 463.78,394.699 458.5,395C 444.743,398.714 430.743,401.048 416.5,402C 350.877,408.949 285.21,409.282 219.5,403C 203.778,399.203 188.111,395.203 172.5,391C 166.186,390.153 159.853,389.487 153.5,389C 151.349,387.43 149.182,385.93 147,384.5C 146.333,378.5 146.333,372.5 147,366.5C 153.255,349.237 163.755,335.07 178.5,324C 195.329,312.718 213.662,304.718 233.5,300C 247.439,296.848 261.439,294.015 275.5,291.5C 275.334,287.486 275.501,283.486 276,279.5C 276.606,276.452 278.106,273.952 280.5,272C 261.886,262.386 247.553,248.386 237.5,230C 227.528,228.427 220.694,222.927 217,213.5C 212.69,202.105 212.69,190.771 217,179.5C 218.268,177.283 219.768,175.283 221.5,173.5C 221.502,151.495 227.336,131.162 239,112.5C 243.21,106.622 248.377,101.789 254.5,98C 259.411,96.5076 264.411,96.1743 269.5,97C 270.687,98.0195 271.687,99.1861 272.5,100.5C 267.278,102.517 261.945,104.351 256.5,106C 245.655,115.835 238.489,128.002 235,142.5C 233.014,149.063 232.014,155.73 232,162.5C 244.881,154.951 255.881,145.284 265,133.5C 266.902,129.422 268.569,125.422 270,121.5C 261.866,128.567 253.199,134.9 244,140.5C 244.472,136.982 246.306,134.149 249.5,132C 256.078,126.255 263.078,121.088 270.5,116.5C 271.386,115.675 271.719,114.675 271.5,113.5C 268.984,113.755 266.65,114.589 264.5,116C 258.146,121.034 251.313,125.201 244,128.5C 243.5,128 243,127.5 242.5,127C 246.196,122.642 250.53,118.975 255.5,116C 258.661,114.587 261.661,112.92 264.5,111C 267.063,109.921 269.729,109.421 272.5,109.5C 272.307,106.525 273.307,104.025 275.5,102C 277.112,101.28 278.612,101.446 280,102.5C 280.219,124.583 289.719,141.583 308.5,153.5C 308.967,148.631 308.3,143.798 306.5,139C 307.445,136.386 309.278,134.886 312,134.5C 327.574,142.703 343.407,150.537 359.5,158C 370.376,162.681 381.709,164.515 393.5,163.5C 395.03,142.964 390.53,123.964 380,106.5C 371.001,97.4149 360.168,91.5815 347.5,89C 325.108,82.3186 303.774,84.652 283.5,96C 281.231,96.7581 279.064,96.5914 277,95.5C 276.333,94.5 276.333,93.5 277,92.5C 284.66,86.5844 293.16,82.0844 302.5,79C 306.665,78.2946 310.665,77.4613 314.5,76.5 Z"/></g>
<g><path style="opacity:1" fill="#264b8b" d="M 304.5,91.5 C 323.064,91.9501 340.397,96.7835 356.5,106C 358.684,108.016 360.684,110.183 362.5,112.5C 360.235,113.647 357.902,113.814 355.5,113C 347.049,109.608 338.716,105.941 330.5,102C 321.486,98.3299 312.153,96.9965 302.5,98C 300.051,98.7246 297.717,99.7246 295.5,101C 311.015,104.035 326.348,107.702 341.5,112C 342.833,113 342.833,114 341.5,115C 336.5,115.667 331.5,115.667 326.5,115C 316.519,112.393 306.519,109.893 296.5,107.5C 304.043,113.978 313.043,119.145 323.5,123C 334.117,125.16 344.784,126.994 355.5,128.5C 355.5,129.5 355.5,130.5 355.5,131.5C 330.332,135.054 309.165,127.387 292,108.5C 293.636,115.447 296.136,122.114 299.5,128.5C 291.979,125.514 287.812,119.847 287,111.5C 287.066,108.422 286.899,105.422 286.5,102.5C 287.942,99.2231 290.275,96.7231 293.5,95C 297.161,93.4075 300.828,92.2408 304.5,91.5 Z"/></g>
<g><path style="opacity:1" fill="#2a4e8d" d="M 720.5,110.5 C 721.794,112.048 722.461,114.048 722.5,116.5C 721.889,124.493 721.389,132.493 721,140.5C 719.856,135.671 719.356,130.671 719.5,125.5C 719.525,120.421 719.858,115.421 720.5,110.5 Z"/></g>
<g><path style="opacity:1" fill="#315390" d="M 530.5,115.5 C 535.287,116.156 538.454,118.822 540,123.5C 540.667,129.5 540.667,135.5 540,141.5C 538.1,146.459 534.767,148.126 530,146.5C 529.192,136.09 529.359,125.757 530.5,115.5 Z"/></g>
<g><path style="opacity:1" fill="#395793" d="M 549.5,118.5 C 548.521,121.625 548.187,124.958 548.5,128.5C 549.833,128.5 551.167,128.5 552.5,128.5C 552.179,130.048 551.179,130.715 549.5,130.5C 549.5,135.5 549.5,140.5 549.5,145.5C 551.288,145.215 552.955,145.548 554.5,146.5C 552.337,148.72 549.837,149.053 547,147.5C 546.333,137.167 546.333,126.833 547,116.5C 549.081,115.667 551.248,115.667 553.5,116.5C 553.5,117.5 553.5,118.5 553.5,119.5C 552.041,119.567 550.708,119.234 549.5,118.5 Z"/></g>
<g><path style="opacity:1" fill="#395893" d="M 576.5,118.5 C 575.521,121.625 575.187,124.958 575.5,128.5C 576.833,128.5 578.167,128.5 579.5,128.5C 579.179,130.048 578.179,130.715 576.5,130.5C 576.5,135.5 576.5,140.5 576.5,145.5C 578.288,145.215 579.955,145.548 581.5,146.5C 579.337,148.72 576.837,149.053 574,147.5C 573.333,137.167 573.333,126.833 574,116.5C 576.081,115.667 578.248,115.667 580.5,116.5C 580.5,117.5 580.5,118.5 580.5,119.5C 579.041,119.567 577.708,119.234 576.5,118.5 Z"/></g>
<g><path style="opacity:1" fill="#2e508e" d="M 588.5,115.5 C 590.074,115.937 591.241,116.937 592,118.5C 595.085,126.423 597.752,134.423 600,142.5C 600.5,133.84 600.666,125.173 600.5,116.5C 601.5,116.5 602.5,116.5 603.5,116.5C 603.176,126.505 602.676,136.505 602,146.5C 600.989,147.337 599.822,147.67 598.5,147.5C 596.581,138.576 593.748,129.909 590,121.5C 589.185,129.746 589.352,137.912 590.5,146C 589.975,146.692 589.308,147.192 588.5,147.5C 587.192,136.772 587.192,126.106 588.5,115.5 Z"/></g>
<g><path style="opacity:1" fill="#365692" d="M 607.5,115.5 C 610.5,115.5 613.5,115.5 616.5,115.5C 616.5,116.5 616.5,117.5 616.5,118.5C 615.5,118.5 614.5,118.5 613.5,118.5C 614.328,157.142 613.495,157.142 611,118.5C 609.271,118.026 608.105,117.026 607.5,115.5 Z"/></g>
<g><path style="opacity:1" fill="#355692" d="M 622.5,115.5 C 625.325,115.081 627.491,116.081 629,118.5C 629.731,122.983 629.231,127.317 627.5,131.5C 628.138,136.858 629.471,142.025 631.5,147C 631.167,147.5 630.833,148 630.5,148.5C 629.029,147.619 628.196,146.286 628,144.5C 627,140.167 626,135.833 625,131.5C 624.829,136.864 624.329,142.198 623.5,147.5C 622.501,136.854 622.168,126.187 622.5,115.5 Z"/></g>
<g><path style="opacity:1" fill="#30528f" d="M 651.5,115.5 C 653.474,125.111 654.141,135.111 653.5,145.5C 655.75,145.181 657.75,145.681 659.5,147C 656.518,147.498 653.518,147.665 650.5,147.5C 651.043,136.841 651.377,126.175 651.5,115.5 Z"/></g>
<g><path style="opacity:1" fill="#446199" d="M 663.5,115.5 C 665.167,115.5 666.833,115.5 668.5,115.5C 666.115,125.086 666.115,134.753 668.5,144.5C 669.308,144.808 669.975,145.308 670.5,146C 668.045,147.54 665.379,147.874 662.5,147C 661.391,145.187 662.058,144.354 664.5,144.5C 664.533,135.291 663.533,126.291 661.5,117.5C 662.243,116.818 662.909,116.151 663.5,115.5 Z"/></g>
<g><path style="opacity:1" fill="#3a5994" d="M 676.5,115.5 C 678.527,115.338 680.527,115.505 682.5,116C 683.022,116.561 683.355,117.228 683.5,118C 680.864,126.744 678.53,135.578 676.5,144.5C 677.833,144.5 679.167,144.5 680.5,144.5C 680.5,145.5 680.5,146.5 680.5,147.5C 678.167,147.5 675.833,147.5 673.5,147.5C 674.811,137.571 677.145,127.904 680.5,118.5C 679.127,118.657 677.793,118.49 676.5,118C 675.402,117.23 675.402,116.397 676.5,115.5 Z"/></g>
<g><path style="opacity:1" fill="#3e5d97" d="M 689.5,115.5 C 692.226,115.264 694.559,116.097 696.5,118C 695.135,119.682 693.635,119.849 692,118.5C 691.502,121.817 691.335,125.15 691.5,128.5C 696.833,129.167 696.833,129.833 691.5,130.5C 691.5,135.5 691.5,140.5 691.5,145.5C 693.288,145.215 694.955,145.548 696.5,146.5C 694.337,148.72 691.837,149.053 689,147.5C 688.192,136.757 688.358,126.09 689.5,115.5 Z"/></g>
<g><path style="opacity:1" fill="#335491" d="M 702.5,115.5 C 710.739,117.781 714.405,123.281 713.5,132C 714.091,137.804 712.425,142.804 708.5,147C 706.527,147.495 704.527,147.662 702.5,147.5C 702.5,136.833 702.5,126.167 702.5,115.5 Z"/></g>
<g><path style="opacity:1" fill="#395893" d="M 563.5,115.5 C 569.893,116.463 569.727,117.796 563,119.5C 560.861,127.935 561.027,136.268 563.5,144.5C 565.167,145.167 566.833,145.833 568.5,146.5C 566.166,148.987 563.666,148.987 561,146.5C 558.579,139.015 557.912,131.348 559,123.5C 559.738,120.352 561.238,117.685 563.5,115.5 Z"/></g>
<g><path style="opacity:1" fill="#f6f8fa" d="M 624.5,117.5 C 626.927,120.81 627.093,124.477 625,128.5C 624.501,124.848 624.335,121.182 624.5,117.5 Z"/></g>
<g><path style="opacity:1" fill="#f5f7fa" d="M 534.5,144.5 C 533.833,140.167 533.167,135.833 532.5,131.5C 532.174,127.116 532.508,122.783 533.5,118.5C 535.718,119.924 537.218,121.924 538,124.5C 538.667,128.833 538.667,133.167 538,137.5C 537.861,140.445 536.694,142.779 534.5,144.5 Z"/></g>
<g><path style="opacity:1" fill="#f1f3f7" d="M 704.5,118.5 C 707.595,118.626 709.428,120.293 710,123.5C 710.667,129.167 710.667,134.833 710,140.5C 709.376,142.754 708.043,144.421 706,145.5C 705.215,136.513 704.715,127.513 704.5,118.5 Z"/></g>
<g><path style="opacity:1" fill="#91a5c5" d="M 549.5,118.5 C 549.5,121.5 549.5,124.5 549.5,127.5C 550.791,127.263 551.791,127.596 552.5,128.5C 551.167,128.5 549.833,128.5 548.5,128.5C 548.187,124.958 548.521,121.625 549.5,118.5 Z"/></g>
<g><path style="opacity:1" fill="#8da1c2" d="M 576.5,118.5 C 576.5,121.5 576.5,124.5 576.5,127.5C 577.791,127.263 578.791,127.596 579.5,128.5C 578.167,128.5 576.833,128.5 575.5,128.5C 575.187,124.958 575.521,121.625 576.5,118.5 Z"/></g>
<g><path style="opacity:1" fill="#f9c078" d="M 391.5,191.5 C 392.163,189.359 392.497,187.025 392.5,184.5C 392.685,180.859 392.019,177.526 390.5,174.5C 390.5,174.167 390.5,173.833 390.5,173.5C 390.842,172.662 391.508,172.328 392.5,172.5C 403.09,186.791 403.09,201.124 392.5,215.5C 391.833,214.167 391.167,212.833 390.5,211.5C 388.151,207.196 384.984,206.53 381,209.5C 376.627,228.416 367.46,244.582 353.5,258C 333.613,272.319 312.28,274.986 289.5,266C 263.111,254.608 246.444,234.942 239.5,207C 237.888,206.28 236.388,206.446 235,207.5C 234.827,211.541 234.327,215.541 233.5,219.5C 224.651,213.048 220.651,204.215 221.5,193C 220.754,186.218 222.921,180.718 228,176.5C 228.031,180.768 229.031,184.768 231,188.5C 233,189.833 235,189.833 237,188.5C 236.411,180.564 238.078,173.231 242,166.5C 249.667,159.5 257.333,152.5 265,145.5C 268.894,139.601 271.894,133.268 274,126.5C 281.005,139.978 290.505,151.478 302.5,161C 306.594,163.198 310.927,164.698 315.5,165.5C 318.732,165.265 320.732,163.598 321.5,160.5C 320.17,156.197 319.337,151.863 319,147.5C 337.713,159.401 357.879,167.567 379.5,172C 380.46,173.419 381.293,174.919 382,176.5C 382.333,182.167 382.667,187.833 383,193.5C 385.153,195.444 387.653,195.944 390.5,195C 391.337,193.989 391.67,192.822 391.5,191.5 Z"/></g>
<g><path style="opacity:1" fill="#3d5a95" d="M 639.5,115.5 C 640.833,115.5 642.167,115.5 643.5,115.5C 643.687,126.271 644.687,136.937 646.5,147.5C 645.5,147.5 644.5,147.5 643.5,147.5C 643.5,145.167 643.5,142.833 643.5,140.5C 641.5,140.167 639.5,139.833 637.5,139.5C 637.663,141.857 637.497,144.19 637,146.5C 635.989,147.337 634.822,147.67 633.5,147.5C 635.966,136.898 637.966,126.231 639.5,115.5 Z"/></g>
<g><path style="opacity:1" fill="#e0e5ee" d="M 640.5,121.5 C 642.012,126.929 642.679,132.596 642.5,138.5C 641.167,138.5 639.833,138.5 638.5,138.5C 638.684,132.769 639.35,127.102 640.5,121.5 Z"/></g>
<g><path style="opacity:1" fill="#9fb0cc" d="M 532.5,131.5 C 533.167,135.833 533.833,140.167 534.5,144.5C 534.44,145.043 534.107,145.376 533.5,145.5C 532.507,140.88 532.173,136.214 532.5,131.5 Z"/></g>
<g><path style="opacity:1" fill="#385894" d="M 719.5,144.5 C 720.995,144.415 721.995,145.081 722.5,146.5C 721.68,148.111 720.346,148.778 718.5,148.5C 718.433,147.041 718.766,145.708 719.5,144.5 Z"/></g>
<g><path style="opacity:1" fill="#bbc8db" d="M 392.5,172.5 C 391.508,172.328 390.842,172.662 390.5,173.5C 389.115,172.698 389.282,172.031 391,171.5C 391.765,171.57 392.265,171.903 392.5,172.5 Z"/></g>
<g><path style="opacity:1" fill="#6f86b2" d="M 390.5,174.5 C 392.019,177.526 392.685,180.859 392.5,184.5C 392.497,187.025 392.163,189.359 391.5,191.5C 391.625,185.797 391.292,180.13 390.5,174.5 Z"/></g>
<g><path style="opacity:1" fill="#284b8b" d="M 272.5,188.5 C 284.709,188.92 289.209,195.254 286,207.5C 282.691,214.48 277.525,216.314 270.5,213C 265.798,208.078 264.298,202.245 266,195.5C 267.425,192.394 269.592,190.06 272.5,188.5 Z"/></g>
<g><path style="opacity:1" fill="#2b4d8c" d="M 340.5,188.5 C 352.231,188.074 357.064,193.741 355,205.5C 352.866,214.306 347.699,216.806 339.5,213C 333.514,207.993 332.014,201.826 335,194.5C 336.803,192.377 338.637,190.377 340.5,188.5 Z"/></g>
<g><path style="opacity:1" fill="#b3c0d6" d="M 604.5,204.5 C 611.167,205.833 617.833,205.833 624.5,204.5C 625.289,204.783 625.956,205.283 626.5,206C 618.812,206.831 611.145,206.665 603.5,205.5C 603.624,204.893 603.957,204.56 604.5,204.5 Z"/></g>
<g><path style="opacity:1" fill="#335390" d="M 308.5,211.5 C 311.48,211.241 313.313,212.574 314,215.5C 315.566,221.022 315.733,226.522 314.5,232C 312.559,232.743 310.726,232.576 309,231.5C 308.5,224.842 308.334,218.175 308.5,211.5 Z"/></g>
<g><path style="opacity:1" fill="#bbc7db" d="M 390.5,211.5 C 391.167,212.833 391.833,214.167 392.5,215.5C 392.44,216.043 392.107,216.376 391.5,216.5C 390.548,214.955 390.215,213.288 390.5,211.5 Z"/></g>
<g><path style="opacity:1" fill="#a7b6d0" d="M 467.5,220.5 C 471.634,221.485 475.968,221.818 480.5,221.5C 475.35,222.651 470.016,222.817 464.5,222C 465.244,220.961 466.244,220.461 467.5,220.5 Z"/></g>
<g><path style="opacity:1" fill="#385692" d="M 322.5,241.5 C 325.187,241.336 327.854,241.503 330.5,242C 333.281,245.807 332.281,248.474 327.5,250C 319.634,252.258 311.634,252.924 303.5,252C 299.885,251.196 297.552,249.029 296.5,245.5C 302.138,244.67 307.804,244.17 313.5,244C 316.742,243.594 319.742,242.761 322.5,241.5 Z"/></g>
<g><path style="opacity:1" fill="#f8c07b" d="M 285.5,274.5 C 299.573,280.192 314.24,282.025 329.5,280C 331.25,278.681 333.25,278.181 335.5,278.5C 335.5,279.833 335.5,281.167 335.5,282.5C 327.188,283.24 318.854,283.573 310.5,283.5C 310.452,286.292 311.785,288.125 314.5,289C 321.606,290.418 328.606,290.918 335.5,290.5C 326.993,292.81 318.327,293.81 309.5,293.5C 309.872,297.043 311.872,299.21 315.5,300C 321.167,300.667 326.833,300.667 332.5,300C 333.877,298.759 335.21,298.592 336.5,299.5C 329.934,301.651 323.267,303.485 316.5,305C 318.221,306.527 320.221,307.527 322.5,308C 310.405,309.197 298.739,307.53 287.5,303C 286.833,302.333 286.167,301.667 285.5,301C 288.048,296.433 287.881,291.933 285,287.5C 284.294,283.113 284.46,278.78 285.5,274.5 Z"/></g>
<g><path style="opacity:1" fill="#f7f8fb" d="M 264.5,300.5 C 267.85,300.335 271.183,300.502 274.5,301C 278.585,306.079 283.585,310.079 289.5,313C 307.698,319.752 325.364,318.752 342.5,310C 345.008,307.31 347.008,304.31 348.5,301C 351.054,300.442 353.054,301.275 354.5,303.5C 346.211,315.154 334.878,321.987 320.5,324C 305.396,327.057 290.73,325.724 276.5,320C 270.496,315.484 266.163,309.651 263.5,302.5C 263.863,301.817 264.196,301.15 264.5,300.5 Z"/></g>
<g><path style="opacity:1" fill="#6676a4" d="M 251.5,304.5 C 253.167,304.5 254.833,304.5 256.5,304.5C 257.766,313.268 262.099,320.101 269.5,325C 291.585,336.622 314.252,337.622 337.5,328C 349.14,323.192 358.14,315.359 364.5,304.5C 368.464,305.439 372.464,306.272 376.5,307C 371.53,309.975 367.196,313.642 363.5,318C 364,318.167 364.5,318.333 365,318.5C 372.102,314.298 379.602,310.965 387.5,308.5C 390.998,309.535 394.331,310.869 397.5,312.5C 388.411,315.806 379.744,319.973 371.5,325C 383.893,321.155 396.56,317.988 409.5,315.5C 412.622,316.561 415.622,317.894 418.5,319.5C 406.622,324.605 394.622,329.438 382.5,334C 397.691,331.954 412.691,328.787 427.5,324.5C 431.385,326.053 434.718,328.386 437.5,331.5C 425.268,334.389 413.268,337.889 401.5,342C 407.08,343.517 412.747,343.851 418.5,343C 427.043,341.159 435.543,339.325 444,337.5C 447.226,339.869 449.392,342.869 450.5,346.5C 439.188,346.401 428.188,348.068 417.5,351.5C 419.078,352.298 420.744,352.798 422.5,353C 433.833,353.333 445.167,353.667 456.5,354C 458.202,356.235 459.202,358.735 459.5,361.5C 448.119,361.144 436.785,361.644 425.5,363C 425.043,363.414 424.709,363.914 424.5,364.5C 427.298,365.969 430.298,366.802 433.5,367C 443.22,367.586 452.887,367.586 462.5,367C 463.812,370.051 464.812,373.217 465.5,376.5C 457.54,376.739 449.54,376.906 441.5,377C 437.529,377.085 433.862,378.085 430.5,380C 441.489,380.842 452.489,381.508 463.5,382C 459.91,383.53 456.243,384.864 452.5,386C 439.699,388.637 426.865,390.804 414,392.5C 412.981,388.774 411.647,385.107 410,381.5C 407.408,380.018 405.075,380.352 403,382.5C 401.763,386.06 401.263,389.727 401.5,393.5C 391.507,394.333 381.507,395.166 371.5,396C 337.833,396.667 304.167,396.667 270.5,396C 251.428,395.204 232.428,393.704 213.5,391.5C 213.666,387.486 213.499,383.486 213,379.5C 210.975,377.275 208.642,376.941 206,378.5C 204.154,381.204 202.987,384.204 202.5,387.5C 201.833,387.833 201.167,388.167 200.5,388.5C 191.471,386.101 182.471,383.601 173.5,381C 167.509,380.501 161.509,380.334 155.5,380.5C 155.273,368.619 158.773,357.952 166,348.5C 177.653,334.501 191.819,324.001 208.5,317C 222.749,312.078 237.082,307.912 251.5,304.5 Z"/></g>
</svg>
