<svg version="1.1" viewBox="0.0 0.0 960.0 540.0" fill="none" stroke="none" stroke-linecap="square" stroke-miterlimit="10" xmlns:xlink="http://www.w3.org/1999/xlink" xmlns="http://www.w3.org/2000/svg"><clipPath id="g35f391192_04.0"><path d="m0 0l960.0 0l0 540.0l-960.0 0l0 -540.0z" clip-rule="nonzero"/></clipPath><g clip-path="url(#g35f391192_04.0)"><path fill="#ffffff" d="m0 0l960.0 0l0 540.0l-960.0 0z" fill-rule="evenodd"/><path fill="#000000" fill-opacity="0.0" d="m496.9487 103.15879l259.05515 0l0 116.34646l-259.05515 0z" fill-rule="evenodd"/><path fill="#1c4587" d="m548.48047 150.729q-0.71875 0 -1.140625 -0.703125q-0.40625 -0.703125 -0.40625 -1.703125q0 -1.578125 0.203125 -3.890625l0.09375 -1.25l0.09375 -2.546875q0 -1.671875 -0.34375 -7.484375q-0.328125 -5.8125 -0.328125 -7.484375q0 -0.140625 0.015625 -0.546875q0.03125 -0.421875 0.03125 -1.28125q0.046875 -0.953125 0.046875 -2.34375q0 -3.515625 -0.484375 -4.46875q-0.28125 0 -1.234375 0.140625l-1.34375 0.09375q-0.625 0 -1.109375 -0.359375q-0.484375 -0.359375 -0.484375 -0.9375q0 -0.5625 1.15625 -1.0q1.671875 -0.578125 5.703125 -0.8125q1.640625 -0.109375 1.96875 -0.109375q0.578125 0 1.0625 0.390625q0.484375 0.390625 0.484375 0.96875q0 0.5625 -0.421875 0.921875q-0.40625 0.359375 -1.015625 0.359375l-0.875 -0.046875q-0.375 -0.046875 -0.859375 -0.046875l-0.484375 0q0.34375 3.265625 0.34375 5.90625l-0.046875 3.078125q-0.046875 1.390625 -0.046875 3.109375q0 2.3125 0.1875 5.53125q0.234375 3.984375 0.234375 5.515625q0 1.828125 0.203125 4.3125q0.1875 2.546875 0.1875 4.328125q0 2.359375 -1.390625 2.359375zm17.466675 -0.34375q-1.625 0 -1.625 -7.921875l0.046875 -2.734375l0.046875 -2.203125l0 -0.15625l0 -0.46875q0.046875 -0.390625 0.046875 -0.921875q0 -0.09375 -0.140625 -0.234375q-0.15625 -0.140625 -0.15625 -0.234375l0 -0.046875q-0.234375 0.09375 -0.859375 0.09375q-0.625 0 -1.53125 -0.203125q-0.296875 -0.046875 -1.546875 -0.234375l0 5.515625q0 1.25 0.15625 3.9375q0.140625 2.640625 0.140625 3.9375q0 0.71875 -0.390625 1.25q-0.375 0.53125 -1.0 0.53125q-0.921875 0 -1.296875 -1.78125q-0.390625 -1.828125 -0.390625 -4.75l0.09375 -3.890625q0.0625 -1.625 0.0625 -3.453125l0 -0.8125l0 -0.671875q0 -0.765625 -0.0625 -1.015625l0 -0.234375l0.15625 -2.78125q0 -1.828125 -0.15625 -5.421875q-0.140625 -3.609375 -0.140625 -5.4375q0 -0.5625 0.375 -1.0q0.390625 -0.4375 0.96875 -0.4375q1.546875 0 1.546875 2.890625l-0.109375 5.953125q-0.09375 2.6875 -0.09375 6.0q0.71875 0.234375 2.59375 0.234375l1.78125 0q0.09375 -0.28125 0.09375 -0.578125q0 -2.296875 -0.28125 -6.8125q-0.34375 -4.21875 -0.34375 -6.859375q0 -0.53125 0.40625 -0.890625q0.40625 -0.359375 0.984375 -0.359375q0.34375 0 0.96875 0.234375l0.421875 0.1875q0 6.828125 0.484375 18.203125l0.4375 12.140625q0 0.671875 -0.515625 1.0625q-0.5 0.375 -1.171875 0.375zm9.6536255 0.625q-0.625 0 -1.140625 -0.4375q-0.5 -0.421875 -0.546875 -1.046875l0 -1.25l0 -0.96875q-0.046875 -0.421875 -0.046875 -1.0q0 -1.015625 -0.140625 -3.078125l-0.09375 -3.0625q0 -2.359375 0.140625 -7.015625q0.1875 -4.171875 0.1875 -7.0q0 -0.671875 -0.140625 -2.015625q-0.140625 -1.390625 -0.140625 -2.015625q0 -3.421875 2.015625 -3.421875q1.578125 0 3.65625 0.625q2.09375 0.625 2.09375 1.5q0 0.46875 -0.40625 0.890625q-0.40625 0.40625 -0.984375 0.640625q-2.015625 -0.71875 -3.640625 -0.953125q0.046875 0.71875 0.046875 2.0625q0 1.90625 -0.046875 3.453125q-0.140625 2.296875 -0.140625 3.453125l0.140625 0.765625l0.765625 -0.046875q0.390625 -0.046875 0.96875 -0.046875q2.296875 0 2.296875 1.34375q0 0.53125 -0.4375 0.890625q-0.421875 0.359375 -1.09375 0.359375q-0.875 0 -1.34375 -0.09375l-1.203125 0q0.09375 1.25 0.09375 3.640625q0 2.40625 -0.046875 4.328125q-0.140625 2.921875 -0.140625 4.359375q0 2.6875 0.09375 2.6875l1.578125 -0.046875q0.8125 -0.046875 1.96875 -0.046875q1.828125 0 1.828125 1.15625q0 0.671875 -0.609375 1.03125q-0.59375 0.359375 -1.453125 0.359375l-4.078125 0zm21.212952 -0.1875q-0.71875 0 -1.734375 -0.71875q0.390625 -3.984375 0.625 -12.25q0.25 -8.59375 0.34375 -10.3125l0 -1.15625q0.1875 -4.703125 0.1875 -6.53125q0 -0.671875 0.546875 -1.046875q0.5625 -0.390625 1.28125 -0.390625q1.671875 0 3.59375 0.28125q1.25 0.203125 1.984375 0.640625q0.75 0.421875 0.75 1.046875q0 1.34375 -2.4375 1.34375q-0.921875 -0.484375 -2.5 -0.484375l-0.578125 0l0 0.578125q0 1.875 -0.1875 4.75q-0.25 2.6875 -0.25 4.859375l0 1.296875l0.390625 0l0.484375 0q2.34375 0 2.34375 1.234375q0 0.625 -0.5 1.015625q-0.5 0.375 -1.21875 0.375q-1.15625 0 -1.875 -0.234375l0 13.578125q0 2.125 -1.25 2.125zm15.981018 0.28125q-1.15625 0 -2.0625 -0.5q-0.90625 -0.5 -1.484375 -1.46875q-1.15625 -2.015625 -1.484375 -4.5625q-0.34375 -2.203125 -0.34375 -5.28125q-0.140625 -5.171875 -0.140625 -12.671875l-0.046875 -3.6875q-0.046875 -0.296875 -0.046875 -0.96875q-0.09375 -1.8125 -0.09375 -2.203125q0.421875 -1.0 1.0 -1.0q0.578125 0 1.03125 0.859375q0.453125 0.859375 0.453125 1.875l0 13.046875q0 1.921875 0.34375 5.09375q0.328125 3.9375 0.328125 5.09375q0 3.546875 3.03125 3.546875q3.453125 0 3.453125 -25.828125l0 -2.6875l0 -0.4375q-0.046875 -0.140625 -0.046875 -0.375q0 -0.578125 0.265625 -0.84375q0.265625 -0.265625 1.03125 -0.265625q0.625 0 0.984375 0.359375q0.359375 0.359375 0.453125 0.84375q0.046875 0.28125 0.046875 1.109375q0 0.765625 -0.140625 2.4375q-0.1875 1.390625 -0.1875 2.40625q0 1.109375 -0.109375 1.96875l-0.09375 2.015625l0 0.375q0.046875 0.203125 0.046875 0.4375q0 21.3125 -6.1875 21.3125zm14.874878 -1.484375l-0.046875 -1.875q-0.046875 -0.8125 -0.046875 -1.828125l0.046875 -1.625q-0.140625 -0.53125 -0.71875 -10.515625q-0.578125 -9.984375 -0.671875 -12.8125q-2.78125 -0.09375 -3.546875 -0.578125q-0.53125 -0.390625 -0.53125 -0.859375q0 -0.390625 0.5 -0.703125q0.515625 -0.3125 1.03125 -0.3125q1.34375 0 3.265625 0.1875q1.828125 0.25 3.265625 0.25l0.390625 0l0.375 0q1.5 0 1.5 1.15625q0 0.5625 -0.484375 0.9375q-0.484375 0.359375 -1.109375 0.359375q-0.421875 0 -1.25 -0.15625l-0.953125 -0.1875l-0.046875 0.234375l-0.046875 0.25q0 4.265625 0.8125 13.625q0.765625 8.78125 0.765625 13.640625q0 0.5625 -0.5 1.0q-0.5 0.4375 -1.125 0.4375l-0.875 -0.625zm14.74115 1.484375q-1.15625 0 -2.0625 -0.5q-0.90625 -0.5 -1.484375 -1.46875q-1.15625 -2.015625 -1.484375 -4.5625q-0.34375 -2.203125 -0.34375 -5.28125q-0.140625 -5.171875 -0.140625 -12.671875l-0.046875 -3.6875q-0.046875 -0.296875 -0.046875 -0.96875q-0.09375 -1.8125 -0.09375 -2.203125q0.421875 -1.0 1.0 -1.0q0.578125 0 1.03125 0.859375q0.453125 0.859375 0.453125 1.875l0 13.046875q0 1.921875 0.34375 5.09375q0.328125 3.9375 0.328125 5.09375q0 3.546875 3.03125 3.546875q3.453125 0 3.453125 -25.828125l0 -2.6875l0 -0.4375q-0.046875 -0.140625 -0.046875 -0.375q0 -0.578125 0.265625 -0.84375q0.265625 -0.265625 1.03125 -0.265625q0.625 0 0.984375 0.359375q0.359375 0.359375 0.453125 0.84375q0.046875 0.28125 0.046875 1.109375q0 0.765625 -0.140625 2.4375q-0.1875 1.390625 -0.1875 2.40625q0 1.109375 -0.109375 1.96875l-0.09375 2.015625l0 0.375q0.046875 0.203125 0.046875 0.4375q0 21.3125 -6.1875 21.3125zm20.593689 0.09375q-1.0625 0 -1.921875 -2.296875q-1.0 -2.5 -1.484375 -5.140625l-0.34375 -1.625q-1.390625 -6.875 -1.765625 -7.828125l-0.578125 0q0 1.390625 -0.046875 2.546875l0 2.640625q0 6.421875 0.90625 10.03125l-0.53125 1.296875l-1.34375 0l-0.625 -0.71875l0.046875 -3.21875q0 -4.328125 -0.421875 -13.109375q-0.390625 -9.359375 -0.390625 -13.109375q0 -2.296875 1.59375 -2.296875q2.59375 0 4.234375 1.34375q1.65625 1.34375 1.65625 3.75l0 3.359375q0 0.71875 -0.234375 1.65625q-0.234375 0.9375 -0.53125 1.5l-0.90625 1.734375l-0.765625 1.4375l0.234375 1.15625l0.671875 3.40625q0.671875 3.703125 1.296875 6.0q0.625 2.296875 1.53125 4.171875l0.296875 0.578125q0.484375 0.96875 0.484375 1.53125q0 0.484375 -0.296875 0.84375q-0.28125 0.359375 -0.765625 0.359375zm-5.90625 -19.25q1.0625 -0.515625 1.796875 -2.890625q0.75 -2.390625 0.75 -4.40625q0 -1.53125 -0.390625 -2.875q-0.234375 -0.765625 -0.796875 -1.171875q-0.546875 -0.40625 -1.359375 -0.40625l-0.09375 0.234375l-0.09375 0.4375l0.09375 5.65625q0.09375 2.5 0.09375 5.421875zm13.878784 19.0625q-0.625 0 -1.140625 -0.4375q-0.5 -0.421875 -0.546875 -1.046875l0 -1.25l0 -0.96875q-0.046875 -0.421875 -0.046875 -1.0q0 -1.015625 -0.140625 -3.078125l-0.09375 -3.0625q0 -2.359375 0.140625 -7.015625q0.1875 -4.171875 0.1875 -7.0q0 -0.671875 -0.140625 -2.015625q-0.140625 -1.390625 -0.140625 -2.015625q0 -3.421875 2.015625 -3.421875q1.578125 0 3.65625 0.625q2.09375 0.625 2.09375 1.5q0 0.46875 -0.40625 0.890625q-0.40625 0.40625 -0.984375 0.640625q-2.015625 -0.71875 -3.640625 -0.953125q0.046875 0.71875 0.046875 2.0625q0 1.90625 -0.046875 3.453125q-0.140625 2.296875 -0.140625 3.453125l0.140625 0.765625l0.765625 -0.046875q0.390625 -0.046875 0.96875 -0.046875q2.296875 0 2.296875 1.34375q0 0.53125 -0.4375 0.890625q-0.421875 0.359375 -1.09375 0.359375q-0.875 0 -1.34375 -0.09375l-1.203125 0q0.09375 1.25 0.09375 3.640625q0 2.40625 -0.046875 4.328125q-0.140625 2.921875 -0.140625 4.359375q0 2.6875 0.09375 2.6875l1.578125 -0.046875q0.8125 -0.046875 1.96875 -0.046875q1.828125 0 1.828125 1.15625q0 0.671875 -0.609375 1.03125q-0.59375 0.359375 -1.453125 0.359375l-4.078125 0zm22.603516 -0.671875q-4.171875 0 -4.171875 -1.4375q0 -1.15625 1.484375 -1.15625l0.53125 0l0.46875 0.046875q0.390625 0 0.53125 -0.234375q0.140625 -0.25 0.140625 -0.875q0 -0.8125 -0.09375 -2.53125q-0.140625 -1.15625 -0.328125 -4.140625q-0.4375 -7.34375 -0.4375 -11.078125q0 -1.34375 0.046875 -2.453125l0.046875 -2.453125q0 -1.578125 -0.140625 -2.625q-0.765625 0.1875 -1.109375 0.1875q-1.140625 0 -1.140625 -1.15625q0 -0.578125 0.71875 -1.0q0.71875 -0.4375 1.828125 -0.625q1.90625 -0.390625 3.40625 -0.390625q0.578125 0 0.984375 0.40625q0.40625 0.40625 0.40625 0.9375q0 0.53125 -0.3125 0.921875q-0.3125 0.375 -0.796875 0.375q-0.28125 0 -0.484375 -0.046875l-0.375 0q-0.484375 0 -0.703125 0.21875q-0.21875 0.21875 -0.21875 0.78125q0 4.65625 0.578125 14.015625q0.09375 1.734375 0.390625 5.09375q0.234375 2.203125 0.234375 4.515625l0 1.828125q0.296875 -0.046875 0.96875 -0.046875q2.015625 0 2.015625 1.671875l0 0.28125l-1.203125 0.828125q-0.046875 0 -0.3125 0.03125q-0.265625 0.015625 -0.984375 0.015625q-1.53125 0.09375 -1.96875 0.09375zm9.316772 0.71875q-0.875 -0.140625 -1.46875 -0.625q-0.59375 -0.484375 -0.703125 -1.25l0.53125 -0.8125q0.296875 0 0.921875 0.1875q0.71875 0.140625 1.09375 0.140625q0.875 0 1.5625 -0.765625q0.703125 -0.765625 1.03125 -2.015625q0.625 -2.296875 0.625 -4.125q0 -3.171875 -2.015625 -6.671875l-0.53125 -0.90625q-0.90625 -1.59375 -1.53125 -2.828125q-0.625 -1.25 -1.0625 -2.703125q-0.5625 -1.859375 -0.5625 -3.734375q0 -2.109375 0.953125 -4.421875q0.484375 -1.09375 1.359375 -1.796875q0.890625 -0.703125 2.0 -0.703125q0.859375 0 1.609375 0.5625q0.75 0.546875 0.75 1.3125q0 0.4375 -0.34375 0.6875q-0.328125 0.234375 -0.8125 0.234375q-0.53125 0 -1.015625 -0.296875q-1.046875 0.046875 -1.671875 1.875q-0.53125 1.6875 -0.53125 2.78125q0 1.390625 0.421875 2.8125q0.4375 1.421875 1.109375 2.5625l1.0625 1.921875l1.671875 3.171875q0.671875 1.34375 1.078125 3.125q0.421875 1.765625 0.421875 3.59375q0 2.921875 -1.34375 5.5625q-0.671875 1.34375 -1.90625 2.171875q-1.21875 0.8125 -2.703125 0.8125l0 0.140625z" fill-rule="nonzero"/><path fill="#1c4587" d="m531.4648 208.26651q-1.25 0 -1.25 -6.28125l0.09375 -7.578125q0.046875 -3.359375 0.046875 -7.546875q0 -1.53125 -0.28125 -4.75q-0.25 -3.5 -0.25 -4.265625q0 -0.625 0.53125 -1.109375q0.53125 -0.484375 1.15625 -0.484375q1.671875 0 3.234375 0.75q1.5625 0.75 2.765625 2.09375q2.546875 2.921875 3.359375 6.421875q0.421875 1.78125 0.421875 3.515625q0 0.609375 -0.046875 1.140625l-0.046875 1.296875l0 2.640625q0 3.078125 -0.1875 4.84375q-0.28125 2.40625 -1.109375 4.28125q-0.953125 2.015625 -2.78125 3.59375q-0.859375 0.71875 -2.203125 1.4375l-3.453125 0zm2.109375 -2.4375q0.953125 0 1.765625 -0.5q0.828125 -0.515625 1.40625 -1.375q0.46875 -0.765625 0.875 -1.9375q0.421875 -1.1875 0.609375 -2.28125q0.421875 -2.171875 0.53125 -4.421875q0.046875 -0.578125 0.046875 -1.6875q0 -14.484375 -5.625 -15.109375q-0.328125 2.15625 -0.328125 4.984375q0 3.03125 0.375 10.5625q0.34375 6.671875 0.34375 10.609375l0 1.15625zm15.170532 2.78125q-0.625 0 -1.140625 -0.4375q-0.5 -0.421875 -0.546875 -1.046875l0 -1.25l0 -0.96875q-0.046875 -0.421875 -0.046875 -1.0q0 -1.015625 -0.140625 -3.078125l-0.09375 -3.0625q0 -2.359375 0.140625 -7.015625q0.1875 -4.171875 0.1875 -7.0q0 -0.671875 -0.140625 -2.015625q-0.140625 -1.390625 -0.140625 -2.015625q0 -3.421875 2.015625 -3.421875q1.578125 0 3.65625 0.625q2.09375 0.625 2.09375 1.5q0 0.46875 -0.40625 0.890625q-0.40625 0.40625 -0.984375 0.640625q-2.015625 -0.71875 -3.640625 -0.953125q0.046875 0.71875 0.046875 2.0625q0 1.90625 -0.046875 3.453125q-0.140625 2.296875 -0.140625 3.453125l0.140625 0.765625l0.765625 -0.046875q0.390625 -0.046875 0.96875 -0.046875q2.296875 0 2.296875 1.34375q0 0.53125 -0.4375 0.890625q-0.421875 0.359375 -1.09375 0.359375q-0.875 0 -1.34375 -0.09375l-1.203125 0q0.09375 1.25 0.09375 3.640625q0 2.40625 -0.046875 4.328125q-0.140625 2.921875 -0.140625 4.359375q0 2.6875 0.09375 2.6875l1.578125 -0.046875q0.8125 -0.046875 1.96875 -0.046875q1.828125 0 1.828125 1.15625q0 0.671875 -0.609375 1.03125q-0.59375 0.359375 -1.453125 0.359375l-4.078125 0zm17.850769 0.046875q-1.0625 0 -2.234375 -0.3125q-1.171875 -0.3125 -1.796875 -0.703125q-3.21875 -2.0625 -3.21875 -11.265625l0 -1.296875l0 -1.5l0 -1.140625q0 -1.921875 0.046875 -3.4375q0.046875 -1.515625 0.203125 -3.28125q0.140625 -1.875 0.421875 -3.046875q0.296875 -1.1875 0.96875 -2.671875q0.5625 -1.390625 1.40625 -2.15625q0.84375 -0.765625 2.1875 -1.296875q1.203125 -0.53125 2.96875 -0.53125q0.734375 0 1.109375 0.34375q0.390625 0.328125 0.390625 0.859375q0 0.484375 -0.3125 0.875q-0.3125 0.375 -0.75 0.421875l-2.25 0q-0.96875 0 -1.6875 1.203125q-0.71875 1.1875 -1.0 3.109375q-0.625 3.5625 -0.625 5.765625l0 0.234375l-0.09375 4.609375q-0.109375 2.0625 -0.109375 4.65625q0 1.828125 0.15625 2.984375q0.234375 1.71875 0.8125 2.875q0.578125 1.296875 1.96875 1.875q0.71875 0.28125 1.578125 0.28125q0.53125 0 1.0625 -0.375q0.625 0 1.03125 0.265625q0.40625 0.25 0.40625 0.78125q0 1.875 -2.640625 1.875zm9.173279 -0.046875q-0.625 0 -1.140625 -0.4375q-0.5 -0.421875 -0.546875 -1.046875l0 -1.25l0 -0.96875q-0.046875 -0.421875 -0.046875 -1.0q0 -1.015625 -0.140625 -3.078125l-0.09375 -3.0625q0 -2.359375 0.140625 -7.015625q0.1875 -4.171875 0.1875 -7.0q0 -0.671875 -0.140625 -2.015625q-0.140625 -1.390625 -0.140625 -2.015625q0 -3.421875 2.015625 -3.421875q1.578125 0 3.65625 0.625q2.09375 0.625 2.09375 1.5q0 0.46875 -0.40625 0.890625q-0.40625 0.40625 -0.984375 0.640625q-2.015625 -0.71875 -3.640625 -0.953125q0.046875 0.71875 0.046875 2.0625q0 1.90625 -0.046875 3.453125q-0.140625 2.296875 -0.140625 3.453125l0.140625 0.765625l0.765625 -0.046875q0.390625 -0.046875 0.96875 -0.046875q2.296875 0 2.296875 1.34375q0 0.53125 -0.4375 0.890625q-0.421875 0.359375 -1.09375 0.359375q-0.875 0 -1.34375 -0.09375l-1.203125 0q0.09375 1.25 0.09375 3.640625q0 2.40625 -0.046875 4.328125q-0.140625 2.921875 -0.140625 4.359375q0 2.6875 0.09375 2.6875l1.578125 -0.046875q0.8125 -0.046875 1.96875 -0.046875q1.828125 0 1.828125 1.15625q0 0.671875 -0.609375 1.03125q-0.59375 0.359375 -1.453125 0.359375l-4.078125 0zm24.522705 -0.484375q-0.578125 0 -0.875 -0.3125q-0.28125 -0.3125 -0.421875 -1.078125l-0.28125 -0.90625l0 -0.09375l0 -0.15625q0 -1.578125 -3.296875 -10.796875q-3.28125 -9.21875 -5.15625 -13.625l0 24.140625l0.1875 0.328125q0.046875 0.109375 0.1875 0.34375q0.15625 0.234375 0.15625 0.484375q0 0.625 -0.4375 1.0625q-0.4375 0.421875 -1.046875 0.421875q-1.546875 0 -1.546875 -2.921875l-0.046875 -8.21875q-0.046875 -3.6875 -0.046875 -8.25q0 -1.53125 0.140625 -4.46875q0.15625 -3.015625 0.15625 -4.46875q0 -2.25 1.71875 -3.546875l0 0.296875q0.296875 -0.109375 0.390625 -0.109375q1.09375 0 2.78125 3.84375q1.34375 3.078125 2.421875 6.484375q1.078125 3.40625 2.859375 9.6875l0.484375 1.734375q1.09375 3.890625 1.671875 5.5625q0.953125 -10.3125 0.953125 -24.375l0 -0.625q-0.046875 -0.296875 -0.046875 -0.625q0 -1.4375 1.15625 -1.4375q0.671875 0 1.03125 0.53125q0.359375 0.515625 0.359375 1.34375l0 3.59375q-0.09375 7.390625 -0.578125 16.03125q-0.46875 8.640625 -1.140625 9.75q-1.390625 0.375 -1.734375 0.375zm12.570129 -0.90625l-0.046875 -1.875q-0.046875 -0.8125 -0.046875 -1.828125l0.046875 -1.625q-0.140625 -0.53125 -0.71875 -10.515625q-0.578125 -9.984375 -0.671875 -12.8125q-2.78125 -0.09375 -3.546875 -0.578125q-0.53125 -0.390625 -0.53125 -0.859375q0 -0.390625 0.5 -0.703125q0.515625 -0.3125 1.03125 -0.3125q1.34375 0 3.265625 0.1875q1.828125 0.25 3.265625 0.25l0.390625 0l0.375 0q1.5 0 1.5 1.15625q0 0.5625 -0.484375 0.9375q-0.484375 0.359375 -1.109375 0.359375q-0.421875 0 -1.25 -0.15625l-0.953125 -0.1875l-0.046875 0.234375l-0.046875 0.25q0 4.265625 0.8125 13.625q0.765625 8.78125 0.765625 13.640625q0 0.5625 -0.5 1.0q-0.5 0.4375 -1.125 0.4375l-0.875 -0.625zm18.006836 1.578125q-1.0625 0 -1.921875 -2.296875q-1.0 -2.5 -1.484375 -5.140625l-0.34375 -1.625q-1.390625 -6.875 -1.765625 -7.828125l-0.57818604 0q0 1.390625 -0.046875 2.546875l0 2.640625q0 6.421875 0.90631104 10.03125l-0.53125 1.296875l-1.343811 0l-0.625 -0.71875l0.046875 -3.21875q0 -4.328125 -0.421875 -13.109375q-0.390625 -9.359375 -0.390625 -13.109375q0 -2.296875 1.59375 -2.296875q2.593811 0 4.234436 1.34375q1.65625 1.34375 1.65625 3.75l0 3.359375q0 0.71875 -0.234375 1.65625q-0.234375 0.9375 -0.53125 1.5l-0.90625 1.734375l-0.765625 1.4375l0.234375 1.15625l0.671875 3.40625q0.671875 3.703125 1.296875 6.0q0.625 2.296875 1.53125 4.171875l0.296875 0.578125q0.484375 0.96875 0.484375 1.53125q0 0.484375 -0.296875 0.84375q-0.28125 0.359375 -0.765625 0.359375zm-5.90625 -19.25q1.0625 -0.515625 1.796875 -2.890625q0.75 -2.390625 0.75 -4.40625q0 -1.53125 -0.390625 -2.875q-0.234375 -0.765625 -0.796875 -1.171875q-0.546875 -0.40625 -1.359375 -0.40625l-0.093811035 0.234375l-0.09375 0.4375l0.09375 5.65625q0.093811035 2.5 0.093811035 5.421875zm21.128784 18.875q-1.109375 0 -1.640625 -0.34375q-0.53125 -0.328125 -0.53125 -1.25q0 -1.4375 -0.46875 -4.890625l-0.203125 -1.015625l-4.75 -0.71875q-0.28125 1.109375 -0.8125 4.46875q-0.28125 2.359375 -0.90625 3.125q-0.34375 0.421875 -0.96875 0.421875q-0.578125 0 -1.0625 -0.359375q-0.46875 -0.359375 -0.46875 -0.890625l0.09375 -0.234375l0.046875 -0.1875q3.171875 -12.34375 4.796875 -24.34375q0 -0.1875 0.046875 -0.640625q0.046875 -0.453125 0.09375 -1.328125q0.15625 -1.765625 0.3125 -2.8125q0.171875 -1.0625 0.5625 -1.59375l1.625 0q0.671875 0 1.15625 0.3125q0.484375 0.3125 0.484375 0.890625q0 3.640625 1.0 10.84375q0.96875 7.390625 0.96875 10.359375q0 0.296875 0.234375 1.5q0.234375 1.09375 0.234375 1.4375q0 0.328125 0.484375 2.875q0.4375 2.3125 0.4375 2.984375l0 0.046875q0 1.046875 -0.765625 1.34375zm-3.171875 -9.21875q-0.140625 -0.71875 -0.140625 -1.78125q0 -4.3125 -0.78125 -11.03125l-0.46875 -5.0q-2.0625 11.28125 -2.84375 17.046875q0.734375 0.46875 4.234375 0.765625zm15.44574 9.546875q-1.71875 -0.578125 -4.265625 -0.578125q-0.765625 0.484375 -1.625 0.484375q-0.578125 0 -0.984375 -0.515625q-0.40625 -0.5 -0.40625 -1.0625q0 -4.03125 0.328125 -10.75q0.28125 -7.15625 0.28125 -10.71875l0 -0.328125q-0.28125 -3.03125 -0.28125 -4.515625q0 -4.5625 1.6875 -4.5625q0.46875 0 0.828125 0.359375q0.359375 0.359375 0.359375 0.84375q0 0.578125 -0.140625 1.828125q-0.140625 1.203125 -0.140625 1.828125q0 3.203125 0.046875 5.796875q0.046875 2.546875 0.046875 5.765625q-0.234375 0.71875 -0.234375 2.015625l0 0.578125l-0.09375 3.796875q-0.109375 1.671875 -0.109375 3.828125q0 3.3125 1.59375 3.3125q0.09375 0 0.3125 -0.015625q0.21875 -0.03125 0.59375 -0.03125q0.4375 -0.046875 1.109375 -0.046875q2.59375 0 2.59375 1.4375q0 0.484375 -0.4375 0.8125q-0.4375 0.34375 -1.0625 0.4375zm7.8796997 -0.8125q-4.171875 0 -4.171875 -1.4375q0 -1.15625 1.484375 -1.15625l0.53125 0l0.46875 0.046875q0.390625 0 0.53125 -0.234375q0.140625 -0.25 0.140625 -0.875q0 -0.8125 -0.09375 -2.53125q-0.140625 -1.15625 -0.328125 -4.140625q-0.4375 -7.34375 -0.4375 -11.078125q0 -1.34375 0.046875 -2.453125l0.046875 -2.453125q0 -1.578125 -0.140625 -2.625q-0.765625 0.1875 -1.109375 0.1875q-1.140625 0 -1.140625 -1.15625q0 -0.578125 0.71875 -1.0q0.71875 -0.4375 1.828125 -0.625q1.90625 -0.390625 3.40625 -0.390625q0.578125 0 0.984375 0.40625q0.40625 0.40625 0.40625 0.9375q0 0.53125 -0.3125 0.921875q-0.3125 0.375 -0.796875 0.375q-0.28125 0 -0.484375 -0.046875l-0.375 0q-0.484375 0 -0.703125 0.21875q-0.21875 0.21875 -0.21875 0.78125q0 4.65625 0.578125 14.015625q0.09375 1.734375 0.390625 5.09375q0.234375 2.203125 0.234375 4.515625l0 1.828125q0.296875 -0.046875 0.96875 -0.046875q2.015625 0 2.015625 1.671875l0 0.28125l-1.203125 0.828125q-0.046875 0 -0.3125 0.03125q-0.265625 0.015625 -0.984375 0.015625q-1.53125 0.09375 -1.96875 0.09375zm9.160522 0.140625q-0.515625 0 -0.90625 -0.3125q-0.375 -0.3125 -0.375 -0.796875q0 -2.875 1.125 -7.578125q1.125 -4.703125 3.28125 -11.609375q2.15625 -7.15625 2.6875 -9.21875q-0.578125 0 -1.875 0.140625q-1.296875 0.140625 -2.0625 0.140625q-0.46875 0 -0.859375 -0.40625q-0.390625 -0.40625 -0.390625 -0.9375q0 -1.390625 5.28125 -1.390625q2.40625 0 2.40625 1.34375q0 1.546875 -1.0625 4.5625q-1.0 2.6875 -1.25 4.078125q-0.46875 3.40625 -2.484375 11.140625l-2.109375 8.296875l0.859375 0l1.0 -0.09375q0.4375 -0.046875 1.015625 -0.046875l0 -0.046875q1.921875 0 1.921875 1.203125q0 0.53125 -0.484375 0.84375q-0.484375 0.3125 -1.203125 0.3125q-0.765625 0 -1.390625 -0.0625l-1.4375 -0.09375q-0.28125 0 -0.8125 0.296875q-0.625 0.234375 -0.875 0.234375zm15.515991 0.53125q-0.625 0 -1.140625 -0.4375q-0.5 -0.421875 -0.546875 -1.046875l0 -1.25l0 -0.96875q-0.046875 -0.421875 -0.046875 -1.0q0 -1.015625 -0.140625 -3.078125l-0.09375 -3.0625q0 -2.359375 0.140625 -7.015625q0.1875 -4.171875 0.1875 -7.0q0 -0.671875 -0.140625 -2.015625q-0.140625 -1.390625 -0.140625 -2.015625q0 -3.421875 2.015625 -3.421875q1.578125 0 3.65625 0.625q2.09375 0.625 2.09375 1.5q0 0.46875 -0.40625 0.890625q-0.40625 0.40625 -0.984375 0.640625q-2.015625 -0.71875 -3.640625 -0.953125q0.046875 0.71875 0.046875 2.0625q0 1.90625 -0.046875 3.453125q-0.140625 2.296875 -0.140625 3.453125l0.140625 0.765625l0.765625 -0.046875q0.390625 -0.046875 0.96875 -0.046875q2.296875 0 2.296875 1.34375q0 0.53125 -0.4375 0.890625q-0.421875 0.359375 -1.09375 0.359375q-0.875 0 -1.34375 -0.09375l-1.203125 0q0.09375 1.25 0.09375 3.640625q0 2.40625 -0.046875 4.328125q-0.140625 2.921875 -0.140625 4.359375q0 2.6875 0.09375 2.6875l1.578125 -0.046875q0.8125 -0.046875 1.96875 -0.046875q1.828125 0 1.828125 1.15625q0 0.671875 -0.609375 1.03125q-0.59375 0.359375 -1.453125 0.359375l-4.078125 0zm12.960144 -0.34375q-1.25 0 -1.25 -6.28125l0.09375 -7.578125q0.046875 -3.359375 0.046875 -7.546875q0 -1.53125 -0.28125 -4.75q-0.25 -3.5 -0.25 -4.265625q0 -0.625 0.53125 -1.109375q0.53125 -0.484375 1.15625 -0.484375q1.671875 0 3.234375 0.75q1.5625 0.75 2.765625 2.09375q2.546875 2.921875 3.359375 6.421875q0.421875 1.78125 0.421875 3.515625q0 0.609375 -0.046875 1.140625l-0.046875 1.296875l0 2.640625q0 3.078125 -0.1875 4.84375q-0.28125 2.40625 -1.109375 4.28125q-0.953125 2.015625 -2.78125 3.59375q-0.859375 0.71875 -2.203125 1.4375l-3.453125 0zm2.109375 -2.4375q0.953125 0 1.765625 -0.5q0.828125 -0.515625 1.40625 -1.375q0.46875 -0.765625 0.875 -1.9375q0.421875 -1.1875 0.609375 -2.28125q0.421875 -2.171875 0.53125 -4.421875q0.046875 -0.578125 0.046875 -1.6875q0 -14.484375 -5.625 -15.109375q-0.328125 2.15625 -0.328125 4.984375q0 3.03125 0.375 10.5625q0.34375 6.671875 0.34375 10.609375l0 1.15625zm15.311157 -5.0q-0.484375 0 -0.90625 -1.203125q-0.4375 -1.234375 -0.4375 -3.6875q0 -0.859375 0.09375 -3.265625q0.09375 -1.78125 0.09375 -3.9375l-0.09375 -7.875l-0.09375 -7.859375q0 -0.78125 0.625 -1.328125q0.625 -0.546875 1.390625 -0.546875q0.484375 0 0.8125 0.34375q0.34375 0.328125 0.34375 0.84375q0 4.234375 -0.484375 11.484375q-0.53125 8.015625 -0.53125 11.46875q0 2.546875 -0.078125 3.671875q-0.0625 1.125 -0.234375 1.515625q-0.171875 0.375 -0.5 0.375zm-0.859375 8.21875q-0.578125 0 -1.09375 -0.53125q-0.5 -0.53125 -0.5 -1.296875q0 -0.859375 0.578125 -1.5q0.578125 -0.65625 1.390625 -0.65625q0.859375 0 1.40625 0.65625q0.5625 0.640625 0.5625 1.640625q0 1.6875 -2.34375 1.6875z" fill-rule="nonzero"/><path fill="#1c4587" d="m644.18475 79.45758l9.8116455 0.6925812l9.8116455 0.67845154l9.274048 1.031807l9.8116455 1.38517l9.251648 1.7102661l9.274048 2.063614l8.713989 2.4169846l8.736389 2.7420654l11.44696 4.127243l11.44696 4.4805984l10.349243 4.8056946l5.4434814 2.7562027l4.368225 2.7562027l-1.635315 1.7102585l-0.53759766 2.0636215l0 0.6925888l0.53759766 0.33921814l1.635315 0.6925888l1.6352539 0l1.6352539 -0.6925888l1.635315 -1.3710327l5.4434204 4.127243l-2.1729126 1.031807l-1.6352539 1.0318146l-2.1729126 2.4028397l-0.55999756 1.0318146l0 0.6925812l0 0.6925888l0.55999756 0.33922577l1.0752563 0l1.635315 -0.33922577l3.2705078 -1.0318146l4.9058228 -1.38517l2.7329712 3.0954285l2.1728516 3.4487991l-4.345764 1.0317993l-2.1953125 0.67845154l-2.1729126 0.6925812l-0.53759766 1.0318146l0 1.0318146l1.0752563 0.6925812l1.6352539 0.3392334l2.7329102 0l2.1729126 -0.3392334l4.368225 -0.6925812l3.2705688 7.5618896l-3.8082275 0.6925812l-3.8305664 1.371048l-3.2705688 1.7243958l-1.0752563 1.0317993l-0.55999756 1.0318146l0 0.6925812l0.55999756 0.3392334l0.5376587 0.33921814l1.0976562 0.35336304l2.1729126 0l2.1728516 -0.35336304l3.8306274 -1.0318146l4.9058228 -0.67845154l2.1729126 6.190872l-3.8082275 1.0317993l-3.8305664 0.67845154l-3.2705688 1.0318146l-3.2705078 1.3851624l-3.2705688 1.371048l0 0.6925812l0 0.33921814l0.55999756 0.3392334l8.176392 0l7.0787354 -0.67845154l4.368225 -0.35336304l2.7105103 6.190857l-5.981079 1.3710327l-4.9058228 1.0318146l-8.176392 2.0636292l-1.0976562 0.35334778l-1.6352539 0.67845154l-0.5376587 0.6925812l-0.55999756 0.69259644l0.55999756 -0.35336304l-0.55999756 0.6925812l0 0.3392334l0.55999756 0.35334778l1.0752563 0.67845154l2.7329712 0.35336304l4.368164 0l4.9058228 -0.6925812l4.905884 -0.6925812l5.981079 -1.0318146l0 4.819824l0 4.466461l-1.635315 0l-8.176392 0.6925812l-7.616333 0.3392334l-8.176392 0.6925812l-8.176392 1.3710327l-0.55999756 0.35336304l0 0.3392334l0 0.33921814l0.55999756 0.35336304l16.352783 1.7102509l3.8081665 0.35336304l4.368225 0.3392334l3.8081665 -0.3392334l3.8081665 -0.6925812l0 0.6925812l-2.1729126 5.4982758l-2.7329102 5.1590576l-6.5410767 -0.69259644l-6.5411377 -0.67845154l-4.9058228 -0.6925812l-4.9058228 -0.33921814l-10.349304 0.33921814l-0.53759766 0l0 0.3392334l0 0.35334778l0.53759766 0l3.2705688 0.67845154l3.2705688 1.0318146l7.638733 2.416977l7.0787354 2.0636292l3.8081665 0.67845154l3.8305664 0.6925812l-2.7329102 3.7880096l-3.2705688 3.77388l-4.9058228 -1.7102509l-4.9058228 -1.3851776l-10.909302 -1.7102661l-4.9058228 -1.0317993l-5.981079 -0.6925812l-5.4658813 -0.3392334l-3.2705078 0l-2.1729126 0.67845154l-0.5376587 0.35336304l0 0.33921814l3.2705688 1.7243958l4.345825 1.3710327l8.176392 1.7243958l11.446899 2.7420807l5.4658813 1.3851624l5.4434204 1.3710327l-7.638733 6.5300903l-1.6352539 -0.67845154l-2.1729126 -0.35336304l-4.9058228 -1.0318146l-9.274048 -0.6784363l-4.9058228 -1.0318146l-5.981079 -1.0318146l-3.2705688 -0.35336304l-3.2705688 -0.33921814l-2.1953125 0.33921814l-2.7105103 0.69259644l0 0.33921814l0.53759766 1.7243958l1.635315 1.0318146l2.1729126 1.0317993l2.7329102 0.69259644l5.4434814 1.3710327l4.9058228 0.6925812l7.638733 1.7102661l4.368225 0.6925812l4.345764 0.33921814l-9.251587 6.190872l-3.2705688 -1.371048l-3.8305664 -1.0317993l-7.616394 -1.371048l-8.176392 -1.3851624l-8.176331 -1.0318146l-8.176392 -0.33921814l-8.176392 0.6925812l-0.5600586 0l-1.0752563 0.3392334l-0.55999756 1.0317993l-0.53759766 1.0318146l0.53759766 0.33921814l0.55999756 1.0318146l1.635315 0.6925812l13.619812 1.371048l6.5411377 1.0317993l6.5410767 1.0318146l6.003479 1.3851624l5.4434814 1.371048l-7.0787354 3.7880096l-7.638794 3.0954285l-0.53759766 -0.6925812l-1.0976562 -0.6925812l-3.8081665 -1.0318146l-3.8305664 -0.3392334l-4.345825 -0.33921814l-4.368225 -0.6925812l-8.176331 -1.7243958l-6.5411377 -1.7102661l-7.0787354 -1.7243958l-3.2705688 -0.6925812l-3.2705078 -0.67845154l-3.8306274 -0.35336304l-3.2705078 0l-0.5376587 0.35336304l0 0.67845154l1.635315 1.3851624l2.7329102 1.7102661l2.7105103 1.0318146l2.7329102 1.3851624l6.003479 1.7102661l5.981079 1.7243958l5.4658813 1.3710327l5.981079 1.3851624l6.003479 1.0318146l3.2705688 0.3392334l2.7329102 0l-8.736389 3.0954285l-8.713989 2.402832l-1.0976562 -0.6784363l-2.7105713 -1.3851776l-2.7329102 -0.67845154l-6.5410767 -1.3851624l-6.003479 -1.0318146l-5.98114 -1.0318146l-3.2705078 -1.0317993l-3.2705688 -1.0318146l-6.003479 -2.063614l-3.2705688 -1.0318146l-3.2705688 -0.67845154l-3.2705078 -0.35336304l-3.8081665 0l-1.0976562 0.35336304l-0.5376587 0.33921814l0 0.69259644l0.5376587 0.33921814l4.9058228 2.7562103l4.9058228 2.4028473l6.003479 2.402832l5.4434204 1.7243958l4.905884 1.3710327l4.9058228 1.0318146l10.349243 2.0636292l-11.446899 2.4169617l-11.984558 2.0636292l0 -0.35336304l1.0976562 -1.7102661l0 -0.6925659l-0.5376587 -0.69259644l-1.0976562 -0.6784363l-1.0976562 -0.69259644l-23.431458 -7.9152527l-3.8082275 -1.3710327l-4.9058228 -1.3710327l-2.1952515 -0.35336304l-2.7105713 -0.3392334l-2.1953125 0.3392334l-1.6352539 0.6925812l0 0.3392334l0.55999756 1.3851624l1.635315 1.0318146l3.8081665 2.4028473l7.638733 3.4346466l10.349304 4.127228l5.4434814 1.7243958l6.003479 1.3710632l-10.349304 1.3851624l-10.371704 0.6784363l-0.53759766 -0.6784363l-4.368225 -2.4169922l-4.9058228 -2.0636292l-10.349304 -3.7738647l-9.273987 -3.7880096l-4.345825 -1.7243958l-4.9058228 -1.0318146l-1.0976562 0l-0.53759766 0.6925812l0 1.7243958l0.53759766 1.3710327l1.6352539 1.3710327l1.635315 1.0318146l3.8081665 2.4169922l3.8305664 1.7102356l7.0787354 3.095459l7.638733 2.756195l-2.1952515 0l-11.44696 0.3392334l-10.886902 -0.6784668l0.53759766 -0.35336304l0.5376587 -0.6784363l0.55999756 -1.0318298l-0.55999756 -0.6925659l-0.5376587 -1.0318298l-1.0976562 -1.0317993l-2.7105103 -1.3710327l-6.5410767 -2.756195l-6.003479 -3.0954437l-2.7329712 -1.0317993l-1.6352539 -0.69259644l-0.53759766 -0.67845154l0 -0.35334778l-0.5376587 0l-0.55999756 0.35334778l-0.5376587 1.0318146l-0.53759766 0.67845154l0.53759766 2.063614l1.0976562 1.0318146l1.0752563 1.3851624l2.7329102 2.0636292l3.2705688 2.0636292l3.2705688 1.7102661l3.8081665 1.7243958l0 0l-9.251648 -1.3710632l-8.736389 -1.7243958l-8.176392 -1.7243958l-4.345825 -0.6784363l-4.368164 -0.35336304l-4.368225 -0.3392334l-4.345825 0.3392334l-2.1952515 0.35336304l-1.635315 0.6784363l-1.6352539 1.0318298l-0.5376587 1.3851624l-3.2705078 2.0636292l-3.8082275 2.0635986l-3.8305664 2.0636292l-3.8081665 1.7102661l-6.5411377 2.756195l-7.0786743 2.0636292l-7.638794 2.0636292l-7.0787354 1.3710327l-7.638733 1.3710327l-8.176392 1.0317993l-8.176392 0.69259644l-7.6163635 0.3392334l-3.8305664 0l-3.808197 -0.3392334l6.541107 -2.756195l6.541107 -3.095459l6.0035095 -3.4346313l5.443451 -3.0954285l8.176361 -5.1590576l3.808197 -2.7420654l3.8081665 -3.4487915l2.7329407 -3.4346619l2.172882 -3.4346619l1.0976562 -3.4487762l0 -1.7102661l0 -1.7243958l0.5376282 -1.3710327l-0.5376282 -1.0318146l-0.5376282 -1.0318146l-1.6352539 -0.6925812l-4.368225 -1.3710327l-3.8081665 -1.7243958l-7.6387634 -3.4346466l-6.541107 -4.127243l-5.981079 -4.480606l-4.9058228 -4.8056793l-4.9058228 -5.1590576l-3.830597 -5.5124054l-3.2705383 -5.4982758l-3.2705688 -5.4982758l-2.7105103 -5.851639l-1.6352844 -6.190857l-1.6352844 -6.190857l-0.5600281 -6.190857l0 -5.851639l1.0976562 -6.190857l2.1729126 -5.837509l2.7329102 -6.190857l4.368225 -6.190857l4.9058228 -5.851639l5.981079 -5.4982758l6.541107 -6.190857l6.003479 -6.190857l6.003479 -5.851639l3.8081665 -2.742073l3.808197 -2.7562027l7.6387634 -4.1272354l7.078705 -3.7880173l7.638794 -3.4346542l8.176392 -3.4346542l8.176331 -2.7562103l8.176392 -2.7562027l8.71405 -2.0636215l9.273987 -2.063614l9.251648 -1.3710403l9.274048 -1.3710327l9.8116455 -1.031807l9.8116455 -0.6925888l9.811707 -0.6925812l9.8116455 -0.33922577zm-15.792786 -7.2226715l-17.988037 0.33922577l-17.988037 1.38517l-10.909302 1.031807l-10.349304 1.3710327l-10.371643 1.7243958l-10.349304 2.0636215l-10.349304 2.4028473l-9.273987 3.0954285l-9.274048 3.7880173l-8.71405 4.1272354l-10.349243 5.8375015l-9.811676 5.512413l-4.9058228 3.0954285l-4.9058228 2.7420654l-4.368225 3.4487915l-3.8081665 3.4346542l-7.0787354 7.2226715l-6.541107 7.9152603l-6.541107 7.901108l-5.465851 7.915268l-2.1729126 3.4346466l-1.6352539 3.4487915l-1.6352844 3.4346619l-1.0976562 3.4346466l-0.5376282 7.2226715l0 7.2226715l1.0976562 7.2226715l2.1729126 7.2226715l2.7329102 6.883438l3.2705688 6.8693085l3.2705383 6.190857l4.3457947 5.851639l4.9058533 5.851639l5.465851 5.4982758l6.541107 5.1590424l7.0787354 4.4664764l3.8081665 2.063614l4.3681946 2.063614l4.368225 1.7243958l4.3457947 1.371048l-0.5376282 3.0954285l-1.6352844 2.756195l-2.7329102 2.7562103l-2.7105408 2.7420654l-3.2705383 2.4169922l-3.2705688 2.0635986l-7.1011353 4.4664917l-7.616333 4.127228l-8.176392 4.127228l-4.9058228 1.7243958l-4.368225 1.3710327l-4.9058228 1.3710327l-4.9058228 1.0318298l-2.1729126 0.6925659l-1.6352844 1.3710327l-0.5600281 1.3710632l0.5600281 1.3851624l0.5376282 1.3710327l2.1729126 1.0317993l2.1953125 0.69259644l2.7105103 0l1.0976562 -0.35336304l3.2705688 1.0317993l2.7329102 0.69259644l7.0787354 1.0317993l7.0787354 0.3392334l8.176392 0l7.638733 -0.6784363l7.0787354 -0.69259644l12.544586 -1.7243958l8.176392 -1.7102661l8.176392 -2.0636292l8.176392 -2.0635986l7.616333 -2.7562256l5.4658813 -2.0635986l5.4434204 -2.4028625l4.9058228 -3.0954285l2.1729126 -1.7243958l1.635315 -1.7102661l4.9058228 0.3392334l4.9058228 0.3392334l9.274048 1.7243958l9.8116455 2.0636292l4.368225 1.0317993l4.9058228 0.69259644l5.981079 0.6784363l6.003479 0.35336304l11.984558 0.3392334l12.006958 -0.3392334l11.984558 -0.69259644l9.8116455 -0.6925659l10.349304 -1.0318298l9.8116455 -1.3710327l9.8116455 -1.7243958l9.811707 -1.7102661l9.273987 -2.0635986l9.251648 -2.4169922l9.274048 -2.7420654l9.274048 -3.0954285l8.713989 -3.4487915l8.713989 -3.77388l8.73645 -4.127243l7.616333 -4.480591l7.638733 -4.8056946l7.638794 -4.819824l6.5410767 -5.1590576l5.981079 -5.4982605l5.4658813 -5.851639l4.9058228 -5.851639l4.345825 -6.190857l3.2705078 -6.190857l2.7329712 -6.5300903l1.6352539 -6.5300903l1.0976562 -6.54422l0 -3.4346466l-0.55999756 -3.0954285l-2.1729126 -6.5300903l-2.7329712 -6.5300903l-2.7105103 -6.190857l-3.2705688 -6.54422l-2.7329102 -6.530075l-2.7329102 -6.5300903l-3.8081665 -6.190857l-4.368225 -5.851639l-5.4434814 -5.15905l-6.5410767 -4.819824l-6.5411377 -4.466461l-7.638733 -4.127243l-7.616333 -3.7880173l-8.176392 -3.77388l-8.73645 -3.4487839l-8.176331 -3.095436l-8.71405 -3.0954285l-9.274048 -2.7420654l-8.713989 -2.0636215l-9.274048 -2.0636215l-9.251587 -1.7243958l-9.811707 -1.031807l-9.8116455 -1.0318146l-17.988037 -1.031807z" fill-rule="evenodd"/><path fill="#1c4587" d="m310.28003 152.19743l-4.612793 0.49726868l-5.1183167 0.47738647l-4.612793 1.4520264l-4.1073 2.4266815l-2.0430908 1.4520264l-1.5375977 1.4520264l-1.0321045 1.9294128l-1.0110168 2.4266815l0.5055237 0.47737122l0.50549316 0.47738647l1.0321045 -0.47738647l0.50549316 0.47738647l-1.0110168 0.97465515l-0.5265808 0.9746399l0 3.3814392l0.5265808 2.904068l1.0110168 3.381424l1.0321045 3.3814392l1.5375977 2.904068l2.5696716 2.4266815l2.5486145 2.4266815l2.5697021 1.4520264l1.032074 0l0.5055237 -0.49726868l0 -0.47738647l0 -0.47737122l-5.6448975 -9.686829l-1.5375977 -4.8334656l-1.5375977 -4.833481l6.1503906 5.7882385l7.182495 5.3307343l7.1824646 4.8334656l8.193512 3.878708l4.1073 1.9294128l4.086212 0.9746399l4.1072693 0.97465515l4.612793 0.9547577l8.720093 0l4.612793 -0.47737122l4.612793 -0.97465515l0.5055237 -0.47738647l0.50549316 -0.9746399l-0.50549316 -0.9547577l-0.5055237 -0.49726868l-8.214569 -1.4520416l-7.6879883 -1.4520264l-8.193512 -0.9547577l-7.6879883 -1.949295l-4.1072693 -1.4520264l-3.580719 -1.9294128l-7.6879883 -3.878708l-7.182495 -4.3560944l-7.1614075 -4.336197l5.1183167 1.4520264l5.1183167 0.9547577l10.25766 2.4266815l6.6559143 1.4520416l7.1824646 1.9293976l6.6559143 0.47738647l3.6017761 0l3.580719 -0.47738647l1.032074 -0.47737122l0 -0.97465515l0 -0.47737122l-0.5265808 -0.97465515l-6.1503906 -2.4266815l-6.6559143 -1.9294128l-13.332855 -2.406784l-10.763184 -2.4266815l-5.6238403 -0.97465515l-5.644867 0l4.612793 -2.406784l4.612793 -1.4520264l5.644867 -0.49726868l5.6238403 0.49726868l5.644867 0.9547577l5.6448975 1.4520264l4.612793 1.4520264l4.086212 1.4520416l8.720093 4.356079l9.225586 3.878708l4.1072693 1.4520416l4.612793 0.9547577l1.0110168 -0.47738647l0.5265808 -0.47737122l0.5055237 -0.49728394l-0.5055237 -0.9547577l-4.1072693 -3.878708l-4.612793 -3.3814392l-5.6448975 -2.9040527l-5.62381 -2.4266815l-6.1503906 -1.9294128l-6.1503906 -1.9293976l-11.289764 -2.4266815l-4.0862427 -0.97465515zm-39.97757 24.684494l-0.5055237 0.47738647l-3.5806885 2.4266815l-3.6017761 2.4266815l-6.6559143 5.8081207l-6.655899 5.310837l-3.0751953 2.904068l-2.569687 3.4013214l0 0.9547577l0.5055084 0.49726868l4.1072845 -1.949295l3.0751953 -1.9294128l6.1503906 -4.8334656l7.6879883 -6.3053894l7.182495 -5.8081207l0.50549316 -1.4520264l-0.50549316 -0.9547577l-1.0321045 -0.97465515zm4.612793 72.1241l-1.0110168 0.47737122l-1.0321045 0.47738647l-1.032074 0.97465515l-1.5375977 0.9746399l-1.5375977 0.9547577l-1.0110168 1.4520416l-1.0321045 1.949295l-1.032074 3.3814392l0 3.3814392l0 1.9493103l1.032074 2.4067688l1.0321045 1.9493103l1.0110168 1.4520264l1.5375977 1.4520264l2.0641785 1.4520264l2.0430908 0.95477295l2.0431213 0.49725342l3.0751953 0l1.5375977 -0.49725342l1.0321045 -0.95477295l2.5696716 -2.9040527l1.5375977 -3.4013367l0.5055237 -3.8588257l0 -3.8786926l-1.0321045 -3.878708l-0.50549316 -1.4520264l-1.5375977 -1.9294128l-1.0321045 -1.4520264l-2.0430908 -0.97465515l-1.5376282 -0.9547577zm68.68643 0l-1.0321045 0.47737122l-1.0110168 0.47738647l-1.032074 0.97465515l-1.5376282 0.9746399l-1.5375977 0.9547577l-1.032074 1.4520416l-1.0110168 1.949295l-1.0321045 3.3814392l0 3.3814392l0 1.9493103l1.0321045 2.4067688l1.0110168 1.9493103l1.032074 1.4520264l1.5375977 1.4520264l2.0431213 1.4520264l2.0641785 0.95477295l2.0431213 0.49725342l3.0751953 0l1.5375977 -0.49725342l1.032074 -0.95477295l2.5486145 -2.9040527l1.5375977 -3.4013367l0.5265808 -3.8588257l0 -3.8786926l-1.032074 -3.878708l-0.5055237 -1.4520264l-1.5375977 -1.9294128l-1.032074 -1.4520264l-2.0431213 -0.97465515l-1.5375977 -0.9547577zm-33.321655 22.735184l-1.0110474 0.9746704l-0.5265503 0.9746399l0 4.356079l0.5265503 4.3561096l0 4.356079l0.5055237 4.356079l0.5055237 0.95477295l0.5265503 0.49725342l2.0431213 0.95477295l1.032074 -0.47738647l1.0110474 0l0.5265503 -0.9746399l0.5055237 -0.95477295l0 -1.9492798l0 -2.4067993l-0.5055237 -4.356079l-1.032074 -4.853363l-0.5055237 -2.4067993l-1.5375977 -2.4266663l-1.032074 -0.9746704zm16.913574 30.015259l-7.1614075 1.9294128l-6.6769714 1.4520264l-7.161438 0.49725342l-3.6017761 0l-3.5806885 -0.49725342l-1.0321045 0.49725342l-0.50549316 0l-0.5055237 0.95477295l0.5055237 0.49725342l1.032074 1.9294128l1.5375977 0.9746704l1.5375977 1.4520264l2.0431213 0.47735596l4.1072693 0.9746704l5.1183167 0l4.612793 -0.49728394l5.1183167 -0.95474243l4.1072693 -0.9746704l3.580719 -1.4520264l1.5375977 -0.9746399l0.5265808 -0.95477295l0 -1.4520264l0 -1.4520264l-1.0321045 -0.9746399l-1.032074 -0.9746399l-1.5375977 -0.47738647zm-41.515167 32.899384l5.139374 1.9493103l5.1183167 1.4520264l5.644867 1.4520264l5.1183167 0.95477295l5.1183167 0.49725342l5.644867 0.47738647l5.1183167 -0.47738647l5.139374 -0.49725342l4.612793 -0.95477295l4.612793 -0.9746399l-0.5265808 4.8334656l-6.1503906 0.49728394l-6.1503906 0.47735596l-0.5055237 0l-5.644867 -0.47735596l-3.0751953 0l-3.0751953 0.47735596l0 0.47738647l-0.5055237 0.49728394l0 0.95474243l1.032074 1.4520264l1.0110474 0.49728394l3.0751953 1.4520264l3.0751953 0.47738647l2.5696716 0.47738647l7.182495 0l3.5806885 -0.47738647l3.580719 -0.47738647l0 2.4067993l-7.1614075 0.9746399l-3.0751953 0.47738647l-3.6017761 0.49725342l-9.225586 0l-3.0751953 0.95477295l-0.5055237 0.9746399l0.5055237 0.47738647l2.064148 1.9493103l3.0751953 1.4520264l3.580719 0.95474243l8.193512 0l3.6017761 -0.47735596l3.5806885 -0.47738647l3.0751953 -1.4520264l1.0321045 1.9294128l-3.6017761 1.4520264l-4.086212 0.9746399l-12.827362 2.4067993l-0.5055237 0l0 0.49725342l0.5055237 0.47738647l4.1072693 1.4520264l5.1183167 0.47738647l-4.612793 0.9746399l-4.612793 0.47738647l-4.612793 0l-4.612793 -0.47738647l-6.150421 -0.47738647l-6.1503906 -1.4520264l-5.62381 -1.9492798l-2.5696716 -1.4520569l-2.5697021 -1.9293823l-0.50549316 -0.9746704l1.5375977 -0.95474243l1.032074 -1.4520264l0 -1.9493103l0 -1.4520264l-1.032074 -2.9040527l-1.0321045 -3.8588257l-0.50549316 -3.8787231l0 -3.3814392l0.50549316 -3.4013062l0.5265808 -1.9294128l0 -0.47738647l-0.5265808 0.95477295l0 -1.4520569zm63.568115 25.65918l3.0751953 1.4520264l3.0751953 1.4520264l-1.5375977 2.9040527l-2.0641785 2.4266663l-2.5486145 2.9040833l-2.5696716 1.9293823l-5.6448975 3.8787231l-6.6559143 3.3814392l-7.1824646 2.4266663l-7.1614075 1.4520264l-7.182495 0.95477295l-6.6559143 0.49728394l-7.6879883 0l-7.1824646 -0.9746704l-7.6879883 -1.9294128l-3.0751953 -1.4520264l-3.580719 -1.4520264l-2.5697021 -1.9493103l-2.0430908 -1.9293823l-2.0641785 -1.9294128l-1.5375977 -1.9493103l-2.5486145 -4.8334656l-2.5697021 -5.3307495l1.5375977 -0.47735596l4.1073 -0.47738647l5.62381 -0.49728394l1.5375977 2.4266968l2.0641785 2.4266663l3.580719 3.3814392l3.0751953 1.9294128l3.5806885 1.9493103l7.182495 2.4067688l7.1824646 1.4520264l7.6879883 0.9746704l7.161438 0l7.1824646 -0.47738647l7.182495 -1.9493103l3.5806885 -0.95474243l3.580719 -1.4520264l2.5697021 -1.9493103l3.0751953 -2.9040527l2.5696716 -2.9040527l0.5055237 -1.9294128l0.50549316 -1.4520264l0.5265808 -1.4520264zm-92.78247 4.356079l0 2.9040527l1.032074 2.9040527l1.0321045 2.9040527l1.5375977 2.9040833l4.086212 4.8334656l4.612793 3.8786926l4.1072693 2.4266968l4.1073 2.4067688l4.086212 1.4520264l4.612793 1.4520264l4.612793 0.9746704l4.612793 0.9746399l9.225616 0.47738647l8.720062 -0.47738647l8.720093 -0.9746399l9.225586 -2.4266968l8.193481 -2.9040527l4.1073 -1.9294128l4.086212 -2.4266663l3.6017761 -2.4067993l3.580719 -2.9040527l3.0751953 -2.9040527l2.5696716 -2.9040527l2.5486145 -3.8787231l2.0641785 -3.3814392l12.300781 1.9294128l0.5055237 0l-3.0751953 1.9294128l-3.580719 1.9493103l-3.0751953 2.4067688l-3.0751953 2.9040527l-1.032074 1.4520264l-0.5055237 1.9493103l3.0751953 -0.9746399l3.0751953 -1.4520264l5.6238403 -3.3814392l7.1824646 -2.9040527l2.5697021 -0.49728394l2.5486145 -0.95477295l0.5265808 -0.49725342l11.7742 3.4013367l-6.1503906 1.9294128l-6.1503906 2.4266663l-6.1503906 2.4067993l-5.6238403 3.4013062l-5.1393433 3.3814392l-0.5055237 0.47738647l0.5055237 0.49728394l10.763184 -3.8787231l10.763184 -3.3814392l4.612793 -0.9746399l4.612793 -0.9746704l4.612793 -0.47735596l4.612793 -1.4520264l9.225586 3.8786926l-5.118286 1.4520264l-4.612793 1.9294128l-13.332886 5.3307495l-6.1503906 2.9040527l-6.6559143 1.9294128l-0.50549316 0.47738647l-0.5265808 0.49725342l0.5265808 0.47738647l0.50549316 0.47738647l12.300781 -2.4067993l12.806305 -2.9040527l4.612793 -0.9746704l5.1183167 -0.9746399l5.139374 -1.4520264l2.5486145 -0.95474243l2.0641785 -0.9746704l5.1183167 3.3814392l5.118286 3.8787231l-5.62381 0.9746399l-15.902557 3.8588257l-7.6879883 1.9492798l-7.1614075 2.4067993l-1.0321045 0.9746399l0.5055237 0.47738647l3.0751953 0.9746399l3.0751953 0.47738647l2.5696716 0.49728394l3.0751953 -0.49728394l6.1503906 -0.47738647l5.6448975 -1.4520264l9.225586 -1.9293823l4.086212 -0.9746704l4.612793 -0.47738647l2.0641785 -0.49725342l3.580719 3.8786926l3.0751953 3.8787231l-6.6559143 0.47738647l-7.1824646 0.47735596l-6.6559143 0.9746704l-6.6769714 0.9746399l-3.580719 0.95477295l-3.0751953 0.9746399l-0.50549316 0.47738647l0 0.49725342l0.50549316 0.47738647l0 0.47738647l6.1503906 0.9746399l5.6448975 0.47738647l11.268707 -0.47738647l15.8815 0l3.6017456 7.2601624l-10.763184 0.47735596l-12.300781 0l-6.1503906 0.49728394l-3.0751953 0.47738647l-3.0751953 0.47738647l-0.5265808 0.49725342l-0.5055237 0.95477295l0.5055237 0.9746399l0.5265808 0.47738647l6.1503906 1.4520264l6.1503906 0.49725342l18.956696 0l6.6559143 -0.49725342l1.5375977 5.330719l1.032074 5.3307495l-3.580719 -0.9746399l-3.6017456 0l-7.6879883 -0.47738647l-4.6128235 0l-5.118286 0.47738647l-4.612793 0.47738647l-5.1183167 1.4520264l-0.5265808 0.49725342l0 0.47738647l0 0.9746399l1.0321045 0l9.731079 0.47738647l9.225616 0.47738647l8.214539 0.49725342l3.580719 0l3.580719 -0.49725342l0 0l-2.0431213 0.49725342l-6.1503906 1.9294128l-6.1503906 1.9294128l-12.300781 2.4266968l-12.806305 1.9293823l-12.827362 1.4520569l-0.5055237 -2.4067993l-0.50549316 -3.8787231l-0.5265808 -1.9294128l-1.5375977 -1.9492798l-1.5375977 -1.4520264l-2.0431213 -0.47738647l-2.0430908 0.47738647l-1.5375977 1.4520264l-1.0321045 1.9492798l-0.50549316 1.9294128l0 3.8787231l0 3.3814392l-7.182495 0.9746399l-10.763184 0.95477295l-11.268707 0.9746399l-22.03189 0.9746399l-44.590363 0l-22.558441 -0.49725342l-22.03189 -0.95477295l-22.052963 -1.4520264l-22.03189 -1.9492798l-3.0751953 -0.47738647l0 -0.9746704l0 -1.9293823l-0.5055084 -0.9746704l0 -0.95474243l0.5055084 -3.4013367l0 -1.9294128l-0.5055084 -1.9294128l-1.0320892 -1.4520264l-1.5375977 -0.9746399l-1.5375977 0l-2.0431213 0.47738647l-2.043106 1.9492798l-1.5375977 2.4067993l-0.52656555 2.4266663l-0.5055237 2.9040527l0 1.9294128l-11.795273 -3.3814392l-11.774216 -3.3814392l-5.644882 -1.4520264l-5.644882 -0.49725342l-6.1503906 -0.47738647l-5.62381 0.47738647l-0.5265808 -4.3561096l0.5265808 -3.8587952l0.5055084 -4.3561096l1.5375977 -3.8786926l1.5375977 -3.8787231l2.043106 -3.8587952l2.0641785 -3.4013367l2.5486145 -3.8588257l5.644882 -6.3053894l6.6559143 -6.285492l6.6769714 -5.3307495l6.655899 -4.8334656l4.612793 -2.9040527l4.1072845 -1.9294128l9.225586 -4.356079l9.225601 -2.9040527l9.731094 -2.9040527l6.1503906 -1.9493103l7.1614227 -1.4520264l13.838394 -3.3814392zm62.53601 -227.47134l-8.193512 0.9746399l-7.1824646 1.4520264l-6.6559143 2.4067993l-10.25766 4.356079l-5.1183167 2.904068l-3.0751953 2.4266815l-1.5375977 1.4520264l-0.5265808 0.9746399l0.5265808 1.4520416l1.0110168 0.9547577l1.032074 0.49726868l3.580719 0l2.5697021 -0.97465515l2.5696716 -1.4520264l9.73111 -3.878708l5.118286 -1.9294128l5.139374 -1.9294128l7.161438 -0.9746399l7.1824646 -0.47738647l8.193512 0.47738647l8.214569 0.9746399l7.6879883 1.9294128l7.6879883 2.4266815l7.1614075 2.406784l6.150421 2.904068l4.612793 2.4266815l3.6017456 2.9040527l3.0752258 3.3814392l3.0751953 3.4013214l2.5486145 4.336197l2.0641785 3.878708l2.0430908 4.3560944l1.5375977 4.8334656l2.0431213 9.209457l1.5375977 9.666931l0.5265808 9.686829l0 9.189545l-11.289764 0l-5.1183167 -0.47737122l-5.1183167 -1.4520264l-5.1393433 -0.97465515l-5.1183167 -1.9294128l-9.73111 -3.878708l-9.752167 -4.8334656l-9.225586 -4.8334656l-9.73111 -5.3307343l-9.225586 -4.8334656l-1.5375977 -0.49728394l-1.5375977 0l-1.032074 0.49728394l-1.0110474 0.47737122l-1.032074 0.97465515l-0.5055237 0.9547577l-0.5265503 1.4520264l0 0.97465515l1.5375977 7.260147l1.5375977 7.260147l-3.0751953 -1.9294128l-3.0751953 -1.949295l-6.150421 -5.310852l-5.118286 -5.8081207l-4.612793 -6.7827606l-4.1073 -6.782776l-2.5486145 -6.7628784l-0.5265808 -3.4013214l-0.50549316 -3.3814392l0 -3.3814392l0.50549316 -2.9040527l0 -1.4520416l0 -0.9746399l-1.0110168 -0.9547577l-1.0321045 -0.49728394l-2.0430908 0l-1.0321045 0.49728394l-1.032074 0.9547577l-1.5375977 2.9040527l-0.5055237 3.3814392l-4.1072693 0.49726868l-3.580719 0.9547577l-3.5806885 1.9493103l-3.6017761 1.9293976l-4.612808 2.904068l-4.086212 2.9040527l-3.6017761 2.4266815l-1.5375977 1.4520264l-1.0110168 1.9294128l-0.5265808 0.47737122l0.5265808 0.49728394l0.5055084 0.47737122l0.5055084 0.47738647l2.0641785 -0.47738647l1.5375977 -0.47737122l3.5807037 -1.9493103l6.1503906 -4.356079l7.182495 -4.833481l7.6879883 -3.878708l0 3.878708l1.0110168 3.3814392l1.032074 3.4013367l1.5375977 3.8588104l3.0751953 6.782776l3.580719 5.8081207l3.0751953 3.878708l3.0751953 4.356079l4.1073 3.8588257l3.5806885 3.878708l4.612793 3.3814392l4.6128235 2.9040527l5.1393433 1.949295l5.1183167 1.4520416l2.0431213 0l2.0641785 -1.4520416l1.0110168 -0.49726868l0.5265808 -0.9547577l0 -1.4520264l0 -0.97465515l-3.6017761 -13.545639l0 0l15.375977 8.214905l14.870483 7.260147l7.6879883 2.904068l7.6879883 2.9040527l7.6879883 2.4266815l8.193512 0.9746399l2.0641785 3.8588257l1.5375977 3.4013214l0.50549316 3.3814392l0 3.3814392l-0.50549316 6.782776l0.50549316 1.4520264l1.0321045 1.4520264l1.0110168 0.97465515l3.0751953 0l1.5375977 -0.49726868l1.032074 -0.9547577l0.5055237 -1.4520416l1.032074 -4.356079l0 -5.3307343l-0.50549316 -4.3560944l-1.5375977 -4.8334656l-1.0321045 -1.949295l2.5697021 -0.47738647l2.5486145 3.3814392l2.5696716 3.4013214l1.5375977 3.8588257l1.0110474 3.878708l0.5265503 3.878708l0.5055237 3.8588257l-0.5055237 4.3560944l-0.5265503 3.8786926l-1.0110474 4.356079l-2.0430908 3.3814392l-2.0641785 3.8787231l-3.0751953 2.9040527l-0.5055237 0.9746399l0 -2.9040527l0 -2.4266663l-1.032074 -1.9294128l-1.5375977 -1.9493103l-1.5375977 -0.95474243l-3.0751953 0l-1.0110168 0.95474243l-1.0321045 0.9746704l-0.50549316 0.9746399l0 1.4520264l0.50549316 1.4520264l-0.50549316 -0.49725342l-0.5265808 0.49725342l0 2.4067993l-1.5375977 4.853363l-2.0431213 4.356079l-4.612793 9.666931l-5.644867 9.209442l-3.580719 5.310852l-4.612793 4.853363l-4.612793 4.356079l-5.6448975 3.8588257l-5.62381 3.4013367l-6.1503906 2.9040527l-6.6769714 1.9294128l-6.6559143 0.95474243l-7.1824646 0.49728394l-7.161438 -0.49728394l-7.1824646 -1.4520264l-7.182495 -1.9294128l-7.1614075 -2.9040527l-6.1503906 -3.3814392l-6.6769714 -3.3814392l-5.62381 -4.356079l-5.139374 -3.8787231l-4.612793 -4.8334656l-4.612808 -4.853363l-3.5807037 -5.3108215l-2.043106 -3.4013367l-1.5375977 -2.9040527l-2.569687 -6.7628784l-2.043106 -6.782776l-2.569687 -6.285492l-1.0320892 -1.4520264l-1.5375977 -0.49728394l-1.5375977 0.49728394l-0.5055084 0.47735596l-0.5055237 0.9746704l-0.52656555 5.8081055l0.52656555 5.808136l-3.0751953 -1.9493103l-2.569687 -1.9294128l-2.5486145 -2.4266663l-1.5375977 -2.4067993l-1.5375977 -2.9040527l-1.0320892 -3.4013367l-1.5375977 -6.7628784l-0.5055084 -6.3053894l0.5055084 -2.9040527l0.5055084 -2.9040527l1.0320892 -2.904068l1.0320892 -2.9040527l1.5375977 -2.4067993l2.5486145 -1.949295l1.0320892 0l-0.5055084 3.878708l0.5055084 3.878708l0.5055084 1.4520264l1.0320892 1.4520416l1.0110321 1.4520264l1.5375977 0.9547577l1.5375977 0.49726868l1.0320892 -0.49726868l1.032074 -0.47738647l1.0110321 -0.9746399l0 -2.4067993l0 -1.4520264l-1.0110321 -3.878708l0.5055237 -2.4266815l0.5055084 -2.406784l2.0641785 -4.3560944l2.043106 -3.4013214l2.043106 -3.3814392l9.225586 -7.7375336l6.150406 -5.3307343l6.1503906 -6.285492l2.5696716 -3.878708l2.0431213 -3.3814392l1.5375977 -3.878708l1.032074 -3.878708l-0.50549316 -0.9547577l-1.0321045 -0.49726868l-1.032074 0l-0.5055237 0.49726868l-3.0751953 2.406784l-2.5696716 3.4013367l-4.612793 6.285492l-5.623825 5.3307343l-6.1503906 5.310852l-3.6017761 2.4266815l-4.086212 2.9040527l-8.214569 5.8081207l1.032074 -8.712173l2.0431213 -8.712189l2.569687 -8.234787l3.0751953 -8.214905l2.569687 -5.8081207l3.5807037 -5.8081207l3.5807037 -5.3307343l4.612793 -4.3560944l2.0641937 -1.4520264l2.5486145 -1.4520264l4.612793 -0.9547577l4.612793 -0.97465515l2.0641785 -0.47737122l2.5486145 -0.97465515l0 -0.47738647l0 -0.49726868l-1.5375977 -1.9293976l-1.5375977 -1.4520416l-2.5486145 -0.9746399l-5.139374 0l-2.5486145 0.49726868l-4.612808 1.4520264l-3.0751953 1.4520264l-2.569687 1.9294128l-2.569687 2.4266815l-2.5486145 2.406784l-4.1072845 4.8334656l-3.580719 5.8081207l-3.0751953 5.8081207l-3.0751953 6.7827606l-2.569687 7.260147l-2.5486145 6.782776l-1.5375977 7.260147l-1.0320892 7.7375183l0 6.782776l0.5055084 7.260147l-2.5486145 1.4520264l-2.0641785 2.9040527l-1.5375977 2.904068l-1.0110168 3.8588104l-2.0641785 6.782776l-0.5055084 4.8334656l0.5055084 5.3307343l1.0320892 5.8081055l1.5375977 5.808136l2.569687 5.330719l3.0751953 4.8334656l2.043106 1.9294128l2.569687 1.9493103l2.043106 1.4520264l2.5486298 0.95477295l3.0751953 0.9746399l3.0751953 0l2.569687 4.8334656l2.569687 4.853363l3.0751953 4.356079l3.5807037 4.356079l3.5807037 3.8588257l3.6017914 3.4013367l8.193481 6.7628784l7.6879883 5.3307495l8.720093 4.8334656l-1.5375977 0.47735596l-1.5375977 1.4520264l-0.5265808 1.4520569l-1.0110168 1.4520264l-0.5265808 3.8786926l-0.5055237 3.8787231l0 2.9040527l0.5055237 3.8588257l-3.580719 0.49725342l-3.0751953 0.47738647l-5.644867 0.9746399l-7.6879883 1.4520264l-7.6880035 1.9294128l-14.849411 3.3814392l-14.343887 3.8787231l-10.25769 3.8786926l-9.731094 3.8588257l-9.752167 4.853363l-8.69902 5.8081055l-7.18248 5.808136l-7.18248 6.285492l-6.1503906 7.260132l-5.62381 7.2601624l-2.0641785 4.356079l-2.043106 3.8787231l-2.0431213 4.356079l-1.0320892 4.356079l-1.032074 4.3561096l-0.5055237 4.356079l0.5055237 4.356079l0.52656555 4.356079l0.5055084 1.9294128l1.0320892 0.9746704l1.0110321 0.47735596l1.5375977 0l1.5375977 1.4520569l2.0641785 0.47735596l8.193497 0.49728394l8.7200775 1.4520264l8.193512 1.9294128l8.193497 1.9294128l16.408066 4.853363l8.193512 1.9293823l8.214569 1.4520569l22.03189 1.9293823l22.5374 0.9746704l22.052948 0.9746399l22.03189 0.47738647l44.590363 0l22.558441 -1.4520264l22.03189 -1.9294128l17.419098 -1.9493103l16.913605 -1.9294128l8.720062 -0.9746399l8.699036 -1.9294128l8.214539 -1.9294128l8.193512 -2.4266663l1.5375977 -0.9746399l1.5375977 -1.4520569l0.5055237 -1.4520264l0.5265808 -1.4520264l2.0430908 0l2.0431213 -0.95474243l1.032074 -0.49728394l0.5055237 -0.95474243l0 -0.9746704l0 -1.4520264l-1.0110168 -8.234802l-2.0641785 -7.7375183l-2.5486145 -7.7375183l-3.6017761 -7.2601624l0.5265808 0l1.0110168 -0.49725342l0.5265808 -1.4520264l0 -0.95477295l-1.0321045 -0.9746399l-4.1072693 -1.4520264l-2.548645 -3.8787231l-3.0751953 -4.356079l-7.1824646 -7.7375183l-8.193512 -7.2601624l-8.720062 -6.285492l-5.1183167 -2.9040527l-4.612793 -2.9040527l-10.763184 -4.3561096l-10.763184 -3.4013367l-11.268707 -2.9040527l-12.827362 -2.4067688l-12.806305 -1.9493103l-2.5697021 -0.47738647l-2.0430908 -0.47738647l-7.6879883 -1.4520264l-4.1073 -0.49725342l-4.086212 0l0 -1.9294128l0 -2.4266968l0 -4.8334656l0 -4.8334656l-0.5265808 -2.4266663l-0.50549316 -1.4520264l4.612793 -2.9040527l4.612793 -2.4266968l4.612793 -3.3814392l4.1072693 -3.3814392l3.580719 -3.8786926l3.580719 -3.8588257l3.6017456 -4.356079l3.0751953 -4.3561096l5.1183167 -8.234772l3.580719 -6.2855225l3.0751953 -6.3053894l1.5375977 0l1.5375977 -0.47735596l3.0751953 -1.4520264l3.0751953 -2.9040833l3.0751953 -3.3814392l2.5697021 -3.8786926l1.5375977 -3.3814392l2.5486145 -5.8081055l1.032074 -4.3561096l0.5055237 -4.356079l0 -4.3560944l-0.5055237 -4.356079l-0.50549316 -4.3560944l-1.5375977 -4.3560944l-2.0641785 -3.878708l-2.5486145 -3.878708l1.0110168 -0.47737122l1.032074 -0.97465515l0.5055237 -1.9294128l-0.5055237 -1.9293976l-1.5375977 -1.9493103l0 -11.1189575l-0.50549316 -11.138855l-1.0321045 -5.3307343l-1.032074 -5.8081207l-1.5375977 -5.310852l-1.5165405 -5.3307343l-2.0641785 -5.3307343l-2.5486145 -4.833481l-3.0751953 -4.356079l-3.6017761 -4.3560944l-3.580719 -4.356079l-4.612793 -3.3814392l-4.612793 -3.3814392l-5.644867 -2.904068l-6.6559143 -2.9040527l-8.193512 -2.4266815l-7.6879883 -1.9294128l-8.720093 -1.4520264l-8.720062 -0.49726868l-8.193512 -0.47737122z" fill-rule="evenodd"/></g></svg>