<?xml version="1.0" encoding="UTF-8"?>
<!DOCTYPE svg PUBLIC "-//W3C//DTD SVG 1.1//EN" "http://www.w3.org/Graphics/SVG/1.1/DTD/svg11.dtd">
<svg xmlns="http://www.w3.org/2000/svg" version="1.1" width="585px" height="452px" style="shape-rendering:geometricPrecision; text-rendering:geometricPrecision; image-rendering:optimizeQuality; fill-rule:evenodd; clip-rule:evenodd" xmlns:xlink="http://www.w3.org/1999/xlink">
<g><path style="opacity:1" fill="#fefefe" d="M -0.5,-0.5 C 194.5,-0.5 389.5,-0.5 584.5,-0.5C 584.5,150.167 584.5,300.833 584.5,451.5C 389.5,451.5 194.5,451.5 -0.5,451.5C -0.5,300.833 -0.5,150.167 -0.5,-0.5 Z"/></g>
<g><path style="opacity:1" fill="#4e725b" d="M 236.5,8.5 C 274.315,24.8266 297.815,53.16 307,93.5C 308.171,107.135 308.838,120.802 309,134.5C 333.875,104.64 365.708,87.14 404.5,82C 422.167,81.3333 439.833,81.3333 457.5,82C 462.333,84.1667 465.833,87.6667 468,92.5C 472.344,126.398 468.011,159.065 455,190.5C 431.932,236.403 395.099,263.737 344.5,272.5C 332.515,273.243 320.515,273.576 308.5,273.5C 308.5,289.5 308.5,305.5 308.5,321.5C 308.667,339.17 308.5,356.836 308,374.5C 302.638,385.431 294.472,388.265 283.5,383C 280.567,380.736 278.4,377.902 277,374.5C 276.5,356.836 276.333,339.17 276.5,321.5C 276.5,300.5 276.5,279.5 276.5,258.5C 276.5,226.167 276.5,193.833 276.5,161.5C 232.04,165.009 196.206,149.342 169,114.5C 156.886,96.3266 150.053,76.3266 148.5,54.5C 148.333,40.496 148.5,26.496 149,12.5C 151.167,7.66667 154.667,4.16667 159.5,2C 175.833,1.33333 192.167,1.33333 208.5,2C 217.977,3.59509 227.31,5.76175 236.5,8.5 Z"/></g>
<g><path style="opacity:1" fill="#fef880" d="M 471.5,359.5 C 443.526,345.287 414.193,335.287 383.5,329.5C 384.376,329.631 385.043,329.298 385.5,328.5C 378.664,304.688 364.997,286.021 344.5,272.5C 395.099,263.737 431.932,236.403 455,190.5C 468.011,159.065 472.344,126.398 468,92.5C 465.833,87.6667 462.333,84.1667 457.5,82C 439.833,81.3333 422.167,81.3333 404.5,82C 365.708,87.14 333.875,104.64 309,134.5C 308.838,120.802 308.171,107.135 307,93.5C 297.815,53.16 274.315,24.8266 236.5,8.5C 319.462,-9.9086 391.628,10.0914 453,68.5C 511.639,132.729 529.639,207.062 507,291.5C 499.052,316.403 487.219,339.07 471.5,359.5 Z"/></g>
<g><path style="opacity:1" fill="#9ad676" d="M 180.5,33.5 C 217.246,29.6726 245.746,43.006 266,73.5C 272.077,83.3862 275.077,94.0529 275,105.5C 261.772,91.6032 247.939,78.4365 233.5,66C 223.871,64.0643 217.038,67.5643 213,76.5C 211.959,81.4398 212.626,86.1065 215,90.5C 227.5,103 240,115.5 252.5,128C 237.304,127.377 223.637,122.377 211.5,113C 187.337,92.0286 177.004,65.5286 180.5,33.5 Z"/></g>
<g><path style="opacity:1" fill="#fef880" d="M 148.5,54.5 C 150.053,76.3266 156.886,96.3266 169,114.5C 196.206,149.342 232.04,165.009 276.5,161.5C 276.5,193.833 276.5,226.167 276.5,258.5C 242.611,265.188 218.444,284.188 204,315.5C 201.993,320.019 200.493,324.686 199.5,329.5C 169.442,335.298 140.776,345.298 113.5,359.5C 89.5638,328.228 75.0638,292.894 70,253.5C 62.4363,180.181 84.2697,117.348 135.5,65C 139.727,61.2635 144.06,57.7635 148.5,54.5 Z"/></g>
<g><path style="opacity:1" fill="#9ad776" d="M 406.5,113.5 C 416.5,113.5 426.5,113.5 436.5,113.5C 439.849,160.958 422.183,198.125 383.5,225C 367.35,234.385 350.017,239.718 331.5,241C 349.667,222.833 367.833,204.667 386,186.5C 391.265,175.528 388.431,167.362 377.5,162C 372.56,160.959 367.894,161.626 363.5,164C 345.333,182.167 327.167,200.333 309,218.5C 313.066,174.549 334.9,142.716 374.5,123C 385.066,119 395.733,115.833 406.5,113.5 Z"/></g>
<g><path style="opacity:1" fill="#f6c06f" d="M 276.5,258.5 C 276.5,279.5 276.5,300.5 276.5,321.5C 250.638,322.411 224.971,325.077 199.5,329.5C 200.493,324.686 201.993,320.019 204,315.5C 218.444,284.188 242.611,265.188 276.5,258.5 Z"/></g>
<g><path style="opacity:1" fill="#f6c06f" d="M 344.5,272.5 C 364.997,286.021 378.664,304.688 385.5,328.5C 385.043,329.298 384.376,329.631 383.5,329.5C 358.69,325.225 333.69,322.558 308.5,321.5C 308.5,305.5 308.5,289.5 308.5,273.5C 320.515,273.576 332.515,273.243 344.5,272.5 Z"/></g>
<g><path style="opacity:1" fill="#9bd877" d="M 276.5,321.5 C 276.333,339.17 276.5,356.836 277,374.5C 278.4,377.902 280.567,380.736 283.5,383C 294.472,388.265 302.638,385.431 308,374.5C 308.5,356.836 308.667,339.17 308.5,321.5C 333.69,322.558 358.69,325.225 383.5,329.5C 414.193,335.287 443.526,345.287 471.5,359.5C 433.586,409.482 383.252,438.982 320.5,448C 241.151,456.053 174.984,430.553 122,371.5C 118.902,367.617 116.068,363.617 113.5,359.5C 140.776,345.298 169.442,335.298 199.5,329.5C 224.971,325.077 250.638,322.411 276.5,321.5 Z"/></g>
</svg>
