<?xml version="1.0" encoding="UTF-8"?>
<!DOCTYPE svg PUBLIC "-//W3C//DTD SVG 1.1//EN" "http://www.w3.org/Graphics/SVG/1.1/DTD/svg11.dtd">
<svg xmlns="http://www.w3.org/2000/svg" version="1.1" width="452px" height="452px" style="shape-rendering:geometricPrecision; text-rendering:geometricPrecision; image-rendering:optimizeQuality; fill-rule:evenodd; clip-rule:evenodd" xmlns:xlink="http://www.w3.org/1999/xlink">
<g><path style="opacity:1" fill="#4e725b" d="M 170.5,8.5 C 208.315,24.8266 231.815,53.16 241,93.5C 242.171,107.135 242.838,120.802 243,134.5C 267.875,104.64 299.708,87.14 338.5,82C 356.167,81.3333 373.833,81.3333 391.5,82C 396.333,84.1667 399.833,87.6667 402,92.5C 406.344,126.398 402.011,159.065 389,190.5C 365.932,236.403 329.099,263.737 278.5,272.5C 266.515,273.243 254.515,273.576 242.5,273.5C 242.5,289.5 242.5,305.5 242.5,321.5C 242.667,339.17 242.5,356.836 242,374.5C 236.638,385.431 228.472,388.265 217.5,383C 214.567,380.736 212.4,377.902 211,374.5C 210.5,356.836 210.333,339.17 210.5,321.5C 210.5,300.5 210.5,279.5 210.5,258.5C 210.5,226.167 210.5,193.833 210.5,161.5C 166.04,165.009 130.206,149.342 103,114.5C 90.6773,96.032 83.844,75.6987 82.5,53.5C 82.3334,39.8293 82.5001,26.1626 83,12.5C 84.187,8.29076 86.687,5.12409 90.5,3C 108.434,1.37389 126.434,1.04055 144.5,2C 153.513,2.91991 162.18,5.08658 170.5,8.5 Z"/></g>
<g><path style="opacity:1" fill="#fef880" d="M 405.5,360.5 C 395.598,354.051 384.931,348.884 373.5,345C 355.021,338.551 336.354,333.384 317.5,329.5C 318.376,329.631 319.043,329.298 319.5,328.5C 312.664,304.688 298.997,286.021 278.5,272.5C 329.099,263.737 365.932,236.403 389,190.5C 402.011,159.065 406.344,126.398 402,92.5C 399.833,87.6667 396.333,84.1667 391.5,82C 373.833,81.3333 356.167,81.3333 338.5,82C 299.708,87.14 267.875,104.64 243,134.5C 242.838,120.802 242.171,107.135 241,93.5C 231.815,53.16 208.315,24.8266 170.5,8.5C 257.622,-11.0966 332.122,11.2367 394,75.5C 442.87,132.97 460.204,198.97 446,273.5C 438.903,305.682 425.403,334.682 405.5,360.5 Z"/></g>
<g><path style="opacity:1" fill="#9ad676" d="M 114.5,33.5 C 151.246,29.6726 179.746,43.006 200,73.5C 206.077,83.3862 209.077,94.0529 209,105.5C 195.772,91.6032 181.939,78.4365 167.5,66C 157.871,64.0643 151.038,67.5643 147,76.5C 145.959,81.4398 146.626,86.1065 149,90.5C 161.5,103 174,115.5 186.5,128C 171.304,127.377 157.637,122.377 145.5,113C 121.337,92.0286 111.004,65.5286 114.5,33.5 Z"/></g>
<g><path style="opacity:1" fill="#fef880" d="M 82.5,53.5 C 83.844,75.6987 90.6773,96.032 103,114.5C 130.206,149.342 166.04,165.009 210.5,161.5C 210.5,193.833 210.5,226.167 210.5,258.5C 176.611,265.188 152.444,284.188 138,315.5C 135.993,320.019 134.493,324.686 133.5,329.5C 107.443,335.007 82.1096,343.174 57.5,354C 53.9311,355.942 50.5978,358.108 47.5,360.5C 8.22359,307.378 -5.60974,248.045 6,182.5C 16.679,130.44 42.179,87.4401 82.5,53.5 Z"/></g>
<g><path style="opacity:1" fill="#9ad776" d="M 340.5,113.5 C 350.5,113.5 360.5,113.5 370.5,113.5C 373.849,160.958 356.183,198.125 317.5,225C 301.35,234.385 284.017,239.718 265.5,241C 283.667,222.833 301.833,204.667 320,186.5C 325.265,175.528 322.431,167.362 311.5,162C 306.56,160.959 301.894,161.626 297.5,164C 279.333,182.167 261.167,200.333 243,218.5C 247.066,174.549 268.9,142.716 308.5,123C 319.066,119 329.733,115.833 340.5,113.5 Z"/></g>
<g><path style="opacity:1" fill="#f6c06f" d="M 210.5,258.5 C 210.5,279.5 210.5,300.5 210.5,321.5C 184.638,322.411 158.971,325.077 133.5,329.5C 134.493,324.686 135.993,320.019 138,315.5C 152.444,284.188 176.611,265.188 210.5,258.5 Z"/></g>
<g><path style="opacity:1" fill="#f6c06f" d="M 278.5,272.5 C 298.997,286.021 312.664,304.688 319.5,328.5C 319.043,329.298 318.376,329.631 317.5,329.5C 292.69,325.225 267.69,322.558 242.5,321.5C 242.5,305.5 242.5,289.5 242.5,273.5C 254.515,273.576 266.515,273.243 278.5,272.5 Z"/></g>
<g><path style="opacity:1" fill="#9bd877" d="M 210.5,321.5 C 210.333,339.17 210.5,356.836 211,374.5C 212.4,377.902 214.567,380.736 217.5,383C 228.472,388.265 236.638,385.431 242,374.5C 242.5,356.836 242.667,339.17 242.5,321.5C 267.69,322.558 292.69,325.225 317.5,329.5C 336.354,333.384 355.021,338.551 373.5,345C 384.931,348.884 395.598,354.051 405.5,360.5C 366.073,412.23 313.74,441.73 248.5,449C 173.45,454.549 110.284,430.049 59,375.5C 54.6732,370.83 50.8398,365.83 47.5,360.5C 50.5978,358.108 53.9311,355.942 57.5,354C 82.1096,343.174 107.443,335.007 133.5,329.5C 158.971,325.077 184.638,322.411 210.5,321.5 Z"/></g>
</svg>
