<?xml version="1.0" encoding="UTF-8"?>
<!DOCTYPE svg PUBLIC "-//W3C//DTD SVG 1.1//EN" "http://www.w3.org/Graphics/SVG/1.1/DTD/svg11.dtd">
<svg xmlns="http://www.w3.org/2000/svg" version="1.1" width="600px" height="402px" style="shape-rendering:geometricPrecision; text-rendering:geometricPrecision; image-rendering:optimizeQuality; fill-rule:evenodd; clip-rule:evenodd" xmlns:xlink="http://www.w3.org/1999/xlink">
<g><path style="opacity:0.907" fill="#f6be78" d="M 175.5,-0.5 C 191.5,-0.5 207.5,-0.5 223.5,-0.5C 310.586,14.4118 367.419,64.0784 394,148.5C 411.03,225.714 391.863,292.214 336.5,348C 276.316,400.238 207.982,414.238 131.5,390C 55.8355,359.193 11.8355,303.36 -0.5,222.5C -0.5,207.5 -0.5,192.5 -0.5,177.5C 9.46465,108.731 44.4646,56.8973 104.5,22C 127.074,10.6148 150.741,3.11479 175.5,-0.5 Z"/></g>
<g><path style="opacity:1" fill="#6474a2" d="M 180.5,2.5 C 267.353,-1.66934 332.186,33.664 375,108.5C 398.824,157.423 403.157,208.09 388,260.5C 359.556,338.939 304.056,384.439 221.5,397C 150.606,403.048 92.1058,379.214 46,325.5C -4.01407,257.637 -11.3474,185.304 24,108.5C 58.3008,46.9231 110.467,11.5898 180.5,2.5 Z"/></g>
<g><path style="opacity:1" fill="#f7be77" d="M 69.5,103.5 C 77.8852,103.149 85.5519,105.316 92.5,110C 101,119.167 109.5,128.333 118,137.5C 120.593,142.871 121.759,148.538 121.5,154.5C 130.099,154.132 137.765,156.632 144.5,162C 152.365,169.53 159.865,177.364 167,185.5C 171.258,193.305 172.925,201.638 172,210.5C 165.17,218.329 158.004,225.829 150.5,233C 138.73,235.036 128.396,232.703 119.5,226C 112.973,219.473 106.473,212.973 100,206.5C 97.2677,202.759 94.9343,198.759 93,194.5C 92.5014,190.848 92.3347,187.182 92.5,183.5C 84.6808,183.905 77.6808,181.738 71.5,177C 65.6356,170.801 59.4689,164.968 53,159.5C 40.2855,146.7 38.2855,132.367 47,116.5C 52.891,109.145 60.391,104.812 69.5,103.5 Z"/></g>
<g><path style="opacity:1" fill="#f8bf77" d="M 324.5,102.5 C 340.211,101.924 350.711,108.924 356,123.5C 357.717,132.247 356.05,140.247 351,147.5C 344.5,152.667 338.667,158.5 333.5,165C 327.441,170.101 320.441,172.934 312.5,173.5C 312.585,180.651 310.419,186.984 306,192.5C 299.5,198.333 293.333,204.5 287.5,211C 284.705,212.3 282.039,213.8 279.5,215.5C 279.341,221.131 277.508,226.131 274,230.5C 273.727,235.229 273.061,239.896 272,244.5C 270.147,248.385 268.48,252.385 267,256.5C 266.128,258.613 264.628,259.946 262.5,260.5C 247.937,247.099 233.604,233.599 219.5,220C 211.723,216.89 203.723,215.89 195.5,217C 196.871,212.918 195.371,210.751 191,210.5C 188.966,210.354 187.299,211.02 186,212.5C 185.938,224.57 185.272,236.57 184,248.5C 182.078,251.662 179.245,253.662 175.5,254.5C 173.702,236.657 173.536,218.657 175,200.5C 178.349,196.037 182.849,194.37 188.5,195.5C 199.198,196.375 209.865,197.208 220.5,198C 226.059,193.727 231.392,189.227 236.5,184.5C 238.618,183.054 240.951,182.387 243.5,182.5C 244.117,178.835 245.617,175.502 248,172.5C 254.5,166 261,159.5 267.5,153C 272.697,148.57 278.697,146.737 285.5,147.5C 285.999,140.159 288.332,133.492 292.5,127.5C 298.986,121.515 305.319,115.348 311.5,109C 315.694,106.236 320.028,104.069 324.5,102.5 Z"/></g>
<g><path style="opacity:1" fill="#6574a2" d="M 325.5,113.5 C 337.127,112.809 344.127,118.142 346.5,129.5C 346,131.5 345.5,133.5 345,135.5C 338.093,146.741 328.927,155.574 317.5,162C 305.224,163.197 298.224,157.697 296.5,145.5C 297.064,143.181 297.564,140.847 298,138.5C 305.839,128.485 315.005,120.151 325.5,113.5 Z"/></g>
<g><path style="opacity:1" fill="#6574a2" d="M 65.5,116.5 C 71.2617,116.149 76.9284,116.649 82.5,118C 92.7463,126.244 101.58,135.744 109,146.5C 110.975,161.187 104.642,169.521 90,171.5C 86.2372,171.135 82.7372,169.968 79.5,168C 71.3333,160.5 63.5,152.667 56,144.5C 51.0036,132.247 54.1702,122.913 65.5,116.5 Z"/></g>
<g><path style="opacity:1" fill="#6674a2" d="M 280.5,157.5 C 283.579,157.26 286.579,157.593 289.5,158.5C 290.458,160.624 291.625,162.624 293,164.5C 301.943,168.499 303.943,174.832 299,183.5C 293.532,189.969 287.699,196.136 281.5,202C 277.721,205.574 273.387,206.741 268.5,205.5C 264.794,201.295 260.96,197.295 257,193.5C 255.697,191.032 254.197,188.699 252.5,186.5C 253.194,183.912 254.36,181.579 256,179.5C 263.49,171.164 271.657,163.83 280.5,157.5 Z"/></g>
<g><path style="opacity:1" fill="#6574a2" d="M 117.5,166.5 C 123.072,165.99 128.405,166.823 133.5,169C 142.735,177.565 151.235,186.732 159,196.5C 159.311,198.556 159.811,200.556 160.5,202.5C 154.183,208.813 147.517,214.813 140.5,220.5C 136.934,221.851 133.601,221.351 130.5,219C 123.969,212.135 117.136,205.635 110,199.5C 104.681,193.749 103.181,187.082 105.5,179.5C 110.932,176.405 114.932,172.072 117.5,166.5 Z"/></g>
<g><path style="opacity:1" fill="#f8be77" d="M 198.5,228.5 C 205,227.617 211,228.784 216.5,232C 229.228,245.397 242.562,258.064 256.5,270C 260.333,274.5 264.167,279 268,283.5C 268.587,287.638 266.753,289.971 262.5,290.5C 260.803,290.101 259.137,289.601 257.5,289C 249.5,279.667 240.833,271 231.5,263C 225.667,262.167 223.167,264.667 224,270.5C 232.636,280.137 241.636,289.47 251,298.5C 251.844,306.105 248.677,308.605 241.5,306C 232.5,297 223.5,288 214.5,279C 206.786,279.362 204.953,282.862 209,289.5C 217.697,297.863 226.031,306.53 234,315.5C 235.324,322.505 232.49,325.005 225.5,323C 217.197,313.696 208.531,304.696 199.5,296C 197.404,294.234 195.071,292.901 192.5,292C 191.291,288.963 190.457,285.796 190,282.5C 187.325,278.995 184.491,275.661 181.5,272.5C 182.108,269.855 182.608,267.188 183,264.5C 189.695,261.123 194.028,255.79 196,248.5C 195.929,241.559 196.763,234.892 198.5,228.5 Z"/></g>
<g><path style="opacity:1" fill="#f7be77" d="M 163.5,261.5 C 165.764,262.581 167.931,263.915 170,265.5C 170.808,267.579 170.641,269.579 169.5,271.5C 162.681,277.819 156.014,284.319 149.5,291C 143,292.5 140.5,290 142,283.5C 149.369,276.298 156.536,268.965 163.5,261.5 Z"/></g>
<g><path style="opacity:0.999" fill="#f6bd78" d="M 173.5,283.5 C 179.459,284.752 180.959,288.085 178,293.5C 173.833,297.667 169.667,301.833 165.5,306C 159.619,308.754 156.786,306.92 157,300.5C 162.031,294.303 167.531,288.636 173.5,283.5 Z"/></g>
<g><path style="opacity:0.999" fill="#f5bd78" d="M 185.5,302.5 C 192.249,302.992 194.082,306.325 191,312.5C 188.167,315.333 185.333,318.167 182.5,321C 175.861,324.371 172.694,322.537 173,315.5C 176.731,310.666 180.898,306.332 185.5,302.5 Z"/></g>
<g><path style="opacity:0.999" fill="#f5bd78" d="M 202.5,317.5 C 205.272,317.22 207.772,317.887 210,319.5C 210.52,321.289 210.187,322.956 209,324.5C 204.597,327.781 200.763,331.614 197.5,336C 193.492,337.171 190.492,336.005 188.5,332.5C 189,331.5 189.5,330.5 190,329.5C 193.869,325.156 198.036,321.156 202.5,317.5 Z"/></g>
</svg>
