<?xml version="1.0" encoding="UTF-8"?>
<!DOCTYPE svg PUBLIC "-//W3C//DTD SVG 1.1//EN" "http://www.w3.org/Graphics/SVG/1.1/DTD/svg11.dtd">
<svg xmlns="http://www.w3.org/2000/svg" version="1.1" width="512px" height="512px" style="shape-rendering:geometricPrecision; text-rendering:geometricPrecision; image-rendering:optimizeQuality; fill-rule:evenodd; clip-rule:evenodd" xmlns:xlink="http://www.w3.org/1999/xlink">
<g><path style="opacity:0.991" fill="#005ecd" d="M 233.5,-0.5 C 248.167,-0.5 262.833,-0.5 277.5,-0.5C 377.805,11.9821 449.305,63.9821 492,155.5C 502.297,180.687 508.797,206.687 511.5,233.5C 511.5,237.167 511.5,240.833 511.5,244.5C 483.368,216.868 455.368,189.035 427.5,161C 426.906,160.536 426.239,160.369 425.5,160.5C 413.05,142.273 395.717,132.939 373.5,132.5C 361.646,132.546 350.646,135.546 340.5,141.5C 334.444,134.442 327.778,128.109 320.5,122.5C 304.91,99.8687 283.243,88.5354 255.5,88.5C 215.877,90.3204 190.544,110.32 179.5,148.5C 167.611,137.867 153.611,132.534 137.5,132.5C 115.805,132.93 98.6387,141.93 86,159.5C 70.3953,186.558 72.3953,212.225 92,236.5C 95.7088,239.715 99.5421,242.715 103.5,245.5C 103.5,252.5 103.5,259.5 103.5,266.5C 105.5,266.5 107.5,266.5 109.5,266.5C 109.5,270.5 109.5,274.5 109.5,278.5C 95.6597,285.534 87.8264,296.867 86,312.5C 85.1772,320.677 85.3439,328.677 86.5,336.5C 86.6516,340.141 88.3182,342.807 91.5,344.5C 95.4141,348.917 99.5808,353.251 104,357.5C 104.174,362.351 104.674,367.018 105.5,371.5C 105.794,376.461 108.127,380.128 112.5,382.5C 112.369,383.239 112.536,383.906 113,384.5C 155.368,426.701 197.535,469.035 239.5,511.5C 237.5,511.5 235.5,511.5 233.5,511.5C 133.195,499.018 61.6947,447.018 19,355.5C 8.70332,330.313 2.20332,304.313 -0.5,277.5C -0.5,262.833 -0.5,248.167 -0.5,233.5C 11.9821,133.195 63.9821,61.6947 155.5,19C 180.687,8.70332 206.687,2.20332 233.5,-0.5 Z"/></g>
<g><path style="opacity:1" fill="#fed945" d="M 255.5,88.5 C 255.5,106.833 255.5,125.167 255.5,143.5C 239.77,145.065 232.603,153.731 234,169.5C 235.646,178.979 241.146,184.646 250.5,186.5C 250.5,209.833 250.5,233.167 250.5,256.5C 240.5,256.5 230.5,256.5 220.5,256.5C 217.833,256.5 215.167,256.5 212.5,256.5C 212.666,247.827 212.5,239.16 212,230.5C 206.041,226.707 200.874,222.041 196.5,216.5C 179.984,196.578 174.318,173.912 179.5,148.5C 190.544,110.32 215.877,90.3204 255.5,88.5 Z"/></g>
<g><path style="opacity:1" fill="#fea734" d="M 255.5,88.5 C 283.243,88.5354 304.91,99.8687 320.5,122.5C 325.807,130.45 329.474,139.117 331.5,148.5C 336.522,173.205 331.189,195.372 315.5,215C 316.252,215.671 316.586,216.504 316.5,217.5C 315.883,217.389 315.383,217.056 315,216.5C 310.259,221.912 304.926,226.579 299,230.5C 298.5,239.16 298.334,247.827 298.5,256.5C 296.167,256.5 293.833,256.5 291.5,256.5C 281.167,256.5 270.833,256.5 260.5,256.5C 260.5,233.167 260.5,209.833 260.5,186.5C 269.406,184.762 274.906,179.429 277,170.5C 278.892,154.23 271.725,145.23 255.5,143.5C 255.5,125.167 255.5,106.833 255.5,88.5 Z"/></g>
<g><path style="opacity:1" fill="#0e4999" d="M 320.5,122.5 C 327.778,128.109 334.444,134.442 340.5,141.5C 337.81,144.185 334.81,146.518 331.5,148.5C 329.474,139.117 325.807,130.45 320.5,122.5 Z"/></g>
<g><path style="opacity:1" fill="#fea733" d="M 137.5,132.5 C 153.611,132.534 167.611,137.867 179.5,148.5C 174.318,173.912 179.984,196.578 196.5,216.5C 192.271,223.274 187.771,229.94 183,236.5C 179.333,239.5 175.667,242.5 172,245.5C 171.5,252.492 171.334,259.492 171.5,266.5C 169.5,266.5 167.5,266.5 165.5,266.5C 157.5,266.5 149.5,266.5 141.5,266.5C 141.5,266.167 141.5,265.833 141.5,265.5C 141.167,247.488 141.5,229.488 142.5,211.5C 155.397,204.585 157.897,194.919 150,182.5C 146.428,179.365 142.262,177.698 137.5,177.5C 137.5,162.5 137.5,147.5 137.5,132.5 Z"/></g>
<g><path style="opacity:1" fill="#fdd945" d="M 137.5,132.5 C 137.5,147.5 137.5,162.5 137.5,177.5C 126.792,178.208 121.126,183.874 120.5,194.5C 120.547,202.891 124.547,208.558 132.5,211.5C 133.5,229.488 133.833,247.488 133.5,265.5C 123.833,265.5 114.167,265.5 104.5,265.5C 104.824,258.646 104.491,251.979 103.5,245.5C 99.5421,242.715 95.7088,239.715 92,236.5C 72.3953,212.225 70.3953,186.558 86,159.5C 98.6387,141.93 115.805,132.93 137.5,132.5 Z"/></g>
<g><path style="opacity:1" fill="#fed944" d="M 373.5,132.5 C 373.5,147.5 373.5,162.5 373.5,177.5C 362.84,178.16 357.173,183.827 356.5,194.5C 356.794,202.746 360.794,208.413 368.5,211.5C 369.5,229.488 369.833,247.488 369.5,265.5C 359.833,265.5 350.167,265.5 340.5,265.5C 340.824,258.646 340.491,251.979 339.5,245.5C 328.872,238.545 321.206,229.211 316.5,217.5C 316.586,216.504 316.252,215.671 315.5,215C 331.189,195.372 336.522,173.205 331.5,148.5C 334.81,146.518 337.81,144.185 340.5,141.5C 350.646,135.546 361.646,132.546 373.5,132.5 Z"/></g>
<g><path style="opacity:1" fill="#fea734" d="M 373.5,132.5 C 395.717,132.939 413.05,142.273 425.5,160.5C 440.34,186.699 438.507,211.699 420,235.5C 416.584,239.587 412.584,242.92 408,245.5C 407.5,252.492 407.334,259.492 407.5,266.5C 405.5,266.5 403.5,266.5 401.5,266.5C 393.5,266.5 385.5,266.5 377.5,266.5C 377.5,266.167 377.5,265.833 377.5,265.5C 377.167,247.488 377.5,229.488 378.5,211.5C 391.088,205.154 393.921,195.82 387,183.5C 383.276,179.721 378.776,177.721 373.5,177.5C 373.5,162.5 373.5,147.5 373.5,132.5 Z"/></g>
<g><path style="opacity:1" fill="#fffefc" d="M 255.5,143.5 C 271.725,145.23 278.892,154.23 277,170.5C 274.906,179.429 269.406,184.762 260.5,186.5C 260.5,209.833 260.5,233.167 260.5,256.5C 258.833,256.5 257.167,256.5 255.5,256.5C 253.833,256.5 252.167,256.5 250.5,256.5C 250.5,233.167 250.5,209.833 250.5,186.5C 241.146,184.646 235.646,178.979 234,169.5C 232.603,153.731 239.77,145.065 255.5,143.5 Z"/></g>
<g><path style="opacity:1" fill="#ffda48" d="M 255.5,154.5 C 255.5,161.833 255.5,169.167 255.5,176.5C 246.102,174.373 242.935,168.707 246,159.5C 248.285,156.108 251.452,154.441 255.5,154.5 Z"/></g>
<g><path style="opacity:1" fill="#ffa838" d="M 255.5,154.5 C 266.098,156.699 268.931,162.699 264,172.5C 261.544,174.654 258.711,175.987 255.5,176.5C 255.5,169.167 255.5,161.833 255.5,154.5 Z"/></g>
<g><path style="opacity:1" fill="#00479b" d="M 425.5,160.5 C 426.239,160.369 426.906,160.536 427.5,161C 455.368,189.035 483.368,216.868 511.5,244.5C 511.5,255.5 511.5,266.5 511.5,277.5C 499.018,377.805 447.018,449.305 355.5,492C 330.313,502.297 304.313,508.797 277.5,511.5C 264.833,511.5 252.167,511.5 239.5,511.5C 197.535,469.035 155.368,426.701 113,384.5C 112.536,383.906 112.369,383.239 112.5,382.5C 121.977,385.344 128.144,382.011 131,372.5C 131.499,367.845 131.666,363.179 131.5,358.5C 133.5,358.5 135.5,358.5 137.5,358.5C 139.5,358.5 141.5,358.5 143.5,358.5C 143.334,363.844 143.501,369.177 144,374.5C 147.963,383.393 154.463,385.893 163.5,382C 166.106,380.062 167.939,377.562 169,374.5C 169.5,362.838 169.667,351.171 169.5,339.5C 175.669,347.453 181.836,347.453 188,339.5C 188.497,337.19 188.663,334.857 188.5,332.5C 191.94,315.395 188.107,300.062 177,286.5C 173.536,283.195 169.703,280.528 165.5,278.5C 165.5,274.5 165.5,270.5 165.5,266.5C 167.5,266.5 169.5,266.5 171.5,266.5C 171.334,259.492 171.5,252.492 172,245.5C 175.667,242.5 179.333,239.5 183,236.5C 187.771,229.94 192.271,223.274 196.5,216.5C 200.874,222.041 206.041,226.707 212,230.5C 212.5,239.16 212.666,247.827 212.5,256.5C 215.167,256.5 217.833,256.5 220.5,256.5C 220.5,261.5 220.5,266.5 220.5,271.5C 222.167,271.5 223.833,271.5 225.5,271.5C 225.634,273.292 225.301,274.958 224.5,276.5C 205.923,283.928 194.757,297.594 191,317.5C 190.174,328.674 190.341,339.674 191.5,350.5C 191.602,355.444 193.935,358.944 198.5,361C 205.494,363.127 210.494,360.96 213.5,354.5C 214.167,368.5 214.833,382.5 215.5,396.5C 217.976,407.134 224.642,411.634 235.5,410C 243.3,407.223 247.3,401.723 247.5,393.5C 247.5,388.5 247.5,383.5 247.5,378.5C 252.833,378.5 258.167,378.5 263.5,378.5C 263.5,383.167 263.5,387.833 263.5,392.5C 263.5,392.833 263.5,393.167 263.5,393.5C 264.022,403.689 269.355,409.356 279.5,410.5C 288.594,409.975 293.927,405.309 295.5,396.5C 296.49,390.355 296.823,384.022 296.5,377.5C 296.5,369.833 296.5,362.167 296.5,354.5C 298.309,357.139 300.642,359.306 303.5,361C 315.019,362.316 320.686,357.149 320.5,345.5C 320.666,336.161 320.5,326.827 320,317.5C 317.215,301.417 309.048,288.917 295.5,280C 292.264,278.214 288.93,276.714 285.5,275.5C 285.5,274.167 285.5,272.833 285.5,271.5C 287.5,271.5 289.5,271.5 291.5,271.5C 291.5,266.5 291.5,261.5 291.5,256.5C 293.833,256.5 296.167,256.5 298.5,256.5C 298.334,247.827 298.5,239.16 299,230.5C 304.926,226.579 310.259,221.912 315,216.5C 315.383,217.056 315.883,217.389 316.5,217.5C 321.206,229.211 328.872,238.545 339.5,245.5C 339.5,252.5 339.5,259.5 339.5,266.5C 341.5,266.5 343.5,266.5 345.5,266.5C 345.5,270.5 345.5,274.5 345.5,278.5C 325.457,290.9 317.79,308.9 322.5,332.5C 321.819,341.987 326.153,346.154 335.5,345C 338.056,343.945 339.723,342.112 340.5,339.5C 341.331,350.993 341.831,362.659 342,374.5C 347.36,384.472 354.694,386.138 364,379.5C 365,377.833 366,376.167 367,374.5C 367.499,369.177 367.666,363.844 367.5,358.5C 369.5,358.5 371.5,358.5 373.5,358.5C 375.5,358.5 377.5,358.5 379.5,358.5C 379.334,363.179 379.501,367.845 380,372.5C 383.752,383.946 390.919,386.612 401.5,380.5C 402.861,378.972 404.028,377.305 405,375.5C 405.5,363.171 405.667,350.838 405.5,338.5C 409.382,345.183 414.716,346.683 421.5,343C 423.451,341.266 424.451,339.099 424.5,336.5C 426.3,324.127 425.467,311.794 422,299.5C 417.673,290.007 410.84,283.007 401.5,278.5C 401.5,274.5 401.5,270.5 401.5,266.5C 403.5,266.5 405.5,266.5 407.5,266.5C 407.334,259.492 407.5,252.492 408,245.5C 412.584,242.92 416.584,239.587 420,235.5C 438.507,211.699 440.34,186.699 425.5,160.5 Z"/></g>
<g><path style="opacity:1" fill="#fffefc" d="M 137.5,177.5 C 142.262,177.698 146.428,179.365 150,182.5C 157.897,194.919 155.397,204.585 142.5,211.5C 141.5,229.488 141.167,247.488 141.5,265.5C 138.833,265.5 136.167,265.5 133.5,265.5C 133.833,247.488 133.5,229.488 132.5,211.5C 124.547,208.558 120.547,202.891 120.5,194.5C 121.126,183.874 126.792,178.208 137.5,177.5 Z"/></g>
<g><path style="opacity:1" fill="#fffefc" d="M 373.5,177.5 C 378.776,177.721 383.276,179.721 387,183.5C 393.921,195.82 391.088,205.154 378.5,211.5C 377.5,229.488 377.167,247.488 377.5,265.5C 374.833,265.5 372.167,265.5 369.5,265.5C 369.833,247.488 369.5,229.488 368.5,211.5C 360.794,208.413 356.794,202.746 356.5,194.5C 357.173,183.827 362.84,178.16 373.5,177.5 Z"/></g>
<g><path style="opacity:1" fill="#ffda4c" d="M 137.5,186.5 C 137.5,192.167 137.5,197.833 137.5,203.5C 132.004,202.835 129.004,199.668 128.5,194C 129.551,189.143 132.551,186.643 137.5,186.5 Z"/></g>
<g><path style="opacity:1" fill="#ffa939" d="M 137.5,186.5 C 145.505,188.154 147.671,192.821 144,200.5C 142.266,202.451 140.099,203.451 137.5,203.5C 137.5,197.833 137.5,192.167 137.5,186.5 Z"/></g>
<g><path style="opacity:1" fill="#ffda48" d="M 373.5,186.5 C 373.5,192.167 373.5,197.833 373.5,203.5C 366.421,202.026 363.921,197.692 366,190.5C 367.715,187.603 370.215,186.269 373.5,186.5 Z"/></g>
<g><path style="opacity:1" fill="#ffaa3c" d="M 373.5,186.5 C 383.358,188.933 385.025,194.1 378.5,202C 376.975,203.009 375.308,203.509 373.5,203.5C 373.5,197.833 373.5,192.167 373.5,186.5 Z"/></g>
<g><path style="opacity:1" fill="#c5c4c9" d="M 220.5,256.5 C 230.5,256.5 240.5,256.5 250.5,256.5C 252.167,256.5 253.833,256.5 255.5,256.5C 255.5,261.5 255.5,266.5 255.5,271.5C 248.167,271.5 240.833,271.5 233.5,271.5C 230.833,271.5 228.167,271.5 225.5,271.5C 223.833,271.5 222.167,271.5 220.5,271.5C 220.5,266.5 220.5,261.5 220.5,256.5 Z"/></g>
<g><path style="opacity:1" fill="#aaaab1" d="M 255.5,256.5 C 257.167,256.5 258.833,256.5 260.5,256.5C 270.833,256.5 281.167,256.5 291.5,256.5C 291.5,261.5 291.5,266.5 291.5,271.5C 289.5,271.5 287.5,271.5 285.5,271.5C 282.833,271.5 280.167,271.5 277.5,271.5C 270.167,271.5 262.833,271.5 255.5,271.5C 255.5,266.5 255.5,261.5 255.5,256.5 Z"/></g>
<g><path style="opacity:1" fill="#d7c77a" d="M 103.5,245.5 C 104.491,251.979 104.824,258.646 104.5,265.5C 114.167,265.5 123.833,265.5 133.5,265.5C 136.167,265.5 138.833,265.5 141.5,265.5C 141.5,265.833 141.5,266.167 141.5,266.5C 140.167,266.5 138.833,266.5 137.5,266.5C 128.167,266.5 118.833,266.5 109.5,266.5C 107.5,266.5 105.5,266.5 103.5,266.5C 103.5,259.5 103.5,252.5 103.5,245.5 Z"/></g>
<g><path style="opacity:1" fill="#cfc37f" d="M 339.5,245.5 C 340.491,251.979 340.824,258.646 340.5,265.5C 350.167,265.5 359.833,265.5 369.5,265.5C 372.167,265.5 374.833,265.5 377.5,265.5C 377.5,265.833 377.5,266.167 377.5,266.5C 376.167,266.5 374.833,266.5 373.5,266.5C 364.167,266.5 354.833,266.5 345.5,266.5C 343.5,266.5 341.5,266.5 339.5,266.5C 339.5,259.5 339.5,252.5 339.5,245.5 Z"/></g>
<g><path style="opacity:1" fill="#c5c4c9" d="M 109.5,266.5 C 118.833,266.5 128.167,266.5 137.5,266.5C 137.5,270.167 137.5,273.833 137.5,277.5C 131.642,277.178 125.975,277.511 120.5,278.5C 116.883,277.343 113.216,277.343 109.5,278.5C 109.5,274.5 109.5,270.5 109.5,266.5 Z"/></g>
<g><path style="opacity:1" fill="#aaa9b0" d="M 137.5,266.5 C 138.833,266.5 140.167,266.5 141.5,266.5C 149.5,266.5 157.5,266.5 165.5,266.5C 165.5,270.5 165.5,274.5 165.5,278.5C 161.833,278.5 158.167,278.5 154.5,278.5C 148.833,278.5 143.167,278.5 137.5,278.5C 131.974,278.179 126.64,278.512 121.5,279.5C 120.833,279.5 120.5,279.167 120.5,278.5C 125.975,277.511 131.642,277.178 137.5,277.5C 137.5,273.833 137.5,270.167 137.5,266.5 Z"/></g>
<g><path style="opacity:1" fill="#c5c4c9" d="M 345.5,266.5 C 354.833,266.5 364.167,266.5 373.5,266.5C 373.5,270.167 373.5,273.833 373.5,277.5C 367.642,277.178 361.975,277.511 356.5,278.5C 352.883,277.343 349.216,277.343 345.5,278.5C 345.5,274.5 345.5,270.5 345.5,266.5 Z"/></g>
<g><path style="opacity:1" fill="#aaaab0" d="M 373.5,266.5 C 374.833,266.5 376.167,266.5 377.5,266.5C 385.5,266.5 393.5,266.5 401.5,266.5C 401.5,270.5 401.5,274.5 401.5,278.5C 397.833,278.5 394.167,278.5 390.5,278.5C 384.833,278.5 379.167,278.5 373.5,278.5C 367.974,278.179 362.64,278.512 357.5,279.5C 356.833,279.5 356.5,279.167 356.5,278.5C 361.975,277.511 367.642,277.178 373.5,277.5C 373.5,273.833 373.5,270.167 373.5,266.5 Z"/></g>
<g><path style="opacity:1" fill="#c4c7f4" d="M 225.5,271.5 C 228.167,271.5 230.833,271.5 233.5,271.5C 236.201,275.856 238.868,280.189 241.5,284.5C 243.771,288.709 245.771,293.042 247.5,297.5C 240.352,298.492 233.019,298.825 225.5,298.5C 225.825,290.981 225.492,283.648 224.5,276.5C 225.301,274.958 225.634,273.292 225.5,271.5 Z"/></g>
<g><path style="opacity:1" fill="#898890" d="M 233.5,271.5 C 240.833,271.5 248.167,271.5 255.5,271.5C 255.5,275.833 255.5,280.167 255.5,284.5C 250.833,284.5 246.167,284.5 241.5,284.5C 238.868,280.189 236.201,275.856 233.5,271.5 Z"/></g>
<g><path style="opacity:1" fill="#57565d" d="M 255.5,271.5 C 262.833,271.5 270.167,271.5 277.5,271.5C 275.07,276.037 272.403,280.37 269.5,284.5C 264.833,284.5 260.167,284.5 255.5,284.5C 255.5,280.167 255.5,275.833 255.5,271.5 Z"/></g>
<g><path style="opacity:1" fill="#c3c7f3" d="M 277.5,271.5 C 280.167,271.5 282.833,271.5 285.5,271.5C 285.5,272.833 285.5,274.167 285.5,275.5C 284.508,282.982 284.175,290.648 284.5,298.5C 277.313,298.825 270.313,298.491 263.5,297.5C 265.229,293.042 267.229,288.709 269.5,284.5C 272.403,280.37 275.07,276.037 277.5,271.5 Z"/></g>
<g><path style="opacity:1" fill="#fdfdfe" d="M 224.5,276.5 C 225.492,283.648 225.825,290.981 225.5,298.5C 233.019,298.825 240.352,298.492 247.5,297.5C 250.167,302.167 252.833,306.833 255.5,311.5C 255.833,311.5 256.167,311.5 256.5,311.5C 255.523,322.752 255.189,334.086 255.5,345.5C 242.167,345.5 228.833,345.5 215.5,345.5C 207.5,345.5 199.5,345.5 191.5,345.5C 191.5,347.167 191.5,348.833 191.5,350.5C 190.341,339.674 190.174,328.674 191,317.5C 194.757,297.594 205.923,283.928 224.5,276.5 Z"/></g>
<g><path style="opacity:1" fill="#e0e2f9" d="M 285.5,275.5 C 288.93,276.714 292.264,278.214 295.5,280C 309.048,288.917 317.215,301.417 320,317.5C 320.5,326.827 320.666,336.161 320.5,345.5C 312.167,345.5 303.833,345.5 295.5,345.5C 282.167,345.5 268.833,345.5 255.5,345.5C 255.189,334.086 255.523,322.752 256.5,311.5C 258.326,306.516 260.659,301.849 263.5,297.5C 270.313,298.491 277.313,298.825 284.5,298.5C 284.175,290.648 284.508,282.982 285.5,275.5 Z"/></g>
<g><path style="opacity:1" fill="#fbfcfd" d="M 120.5,278.5 C 120.5,279.167 120.833,279.5 121.5,279.5C 122.807,282.114 124.14,284.78 125.5,287.5C 128.086,288.48 130.753,288.813 133.5,288.5C 131.74,298.098 130.907,307.764 131,317.5C 133.054,320.047 134.887,322.714 136.5,325.5C 137.369,327.717 137.702,330.05 137.5,332.5C 126.833,332.5 116.167,332.5 105.5,332.5C 99.1667,332.5 92.8333,332.5 86.5,332.5C 86.5,333.833 86.5,335.167 86.5,336.5C 85.3439,328.677 85.1772,320.677 86,312.5C 87.8264,296.867 95.6597,285.534 109.5,278.5C 113.216,277.343 116.883,277.343 120.5,278.5 Z"/></g>
<g><path style="opacity:1" fill="#8a8991" d="M 137.5,278.5 C 137.5,281.5 137.5,284.5 137.5,287.5C 135.901,287.232 134.568,287.566 133.5,288.5C 130.753,288.813 128.086,288.48 125.5,287.5C 124.14,284.78 122.807,282.114 121.5,279.5C 126.64,278.512 131.974,278.179 137.5,278.5 Z"/></g>
<g><path style="opacity:1" fill="#59585e" d="M 137.5,278.5 C 143.167,278.5 148.833,278.5 154.5,278.5C 152.636,281.723 150.636,284.89 148.5,288C 146.19,288.497 143.857,288.663 141.5,288.5C 138.833,288.5 136.167,288.5 133.5,288.5C 134.568,287.566 135.901,287.232 137.5,287.5C 137.5,284.5 137.5,281.5 137.5,278.5 Z"/></g>
<g><path style="opacity:1" fill="#dee1f8" d="M 154.5,278.5 C 158.167,278.5 161.833,278.5 165.5,278.5C 169.703,280.528 173.536,283.195 177,286.5C 188.107,300.062 191.94,315.395 188.5,332.5C 182.167,332.5 175.833,332.5 169.5,332.5C 158.833,332.5 148.167,332.5 137.5,332.5C 137.702,330.05 137.369,327.717 136.5,325.5C 139.45,323.379 141.95,320.713 144,317.5C 143.634,307.822 142.801,298.155 141.5,288.5C 143.857,288.663 146.19,288.497 148.5,288C 150.636,284.89 152.636,281.723 154.5,278.5 Z"/></g>
<g><path style="opacity:1" fill="#fcfdfd" d="M 356.5,278.5 C 356.5,279.167 356.833,279.5 357.5,279.5C 358.777,282.553 360.444,285.386 362.5,288C 364.81,288.497 367.143,288.663 369.5,288.5C 368.199,298.155 367.366,307.822 367,317.5C 369.031,320.355 371.197,323.022 373.5,325.5C 373.5,327.833 373.5,330.167 373.5,332.5C 362.833,332.5 352.167,332.5 341.5,332.5C 335.167,332.5 328.833,332.5 322.5,332.5C 317.79,308.9 325.457,290.9 345.5,278.5C 349.216,277.343 352.883,277.343 356.5,278.5 Z"/></g>
<g><path style="opacity:1" fill="#8a8991" d="M 373.5,278.5 C 373.5,281.5 373.5,284.5 373.5,287.5C 371.901,287.232 370.568,287.566 369.5,288.5C 367.143,288.663 364.81,288.497 362.5,288C 360.444,285.386 358.777,282.553 357.5,279.5C 362.64,278.512 367.974,278.179 373.5,278.5 Z"/></g>
<g><path style="opacity:1" fill="#59585e" d="M 373.5,278.5 C 379.167,278.5 384.833,278.5 390.5,278.5C 389.099,281.634 387.432,284.634 385.5,287.5C 382.914,288.48 380.247,288.813 377.5,288.5C 374.833,288.5 372.167,288.5 369.5,288.5C 370.568,287.566 371.901,287.232 373.5,287.5C 373.5,284.5 373.5,281.5 373.5,278.5 Z"/></g>
<g><path style="opacity:1" fill="#dee1f8" d="M 390.5,278.5 C 394.167,278.5 397.833,278.5 401.5,278.5C 410.84,283.007 417.673,290.007 422,299.5C 425.467,311.794 426.3,324.127 424.5,336.5C 424.5,335.167 424.5,333.833 424.5,332.5C 418.167,332.5 411.833,332.5 405.5,332.5C 394.833,332.5 384.167,332.5 373.5,332.5C 373.5,330.167 373.5,327.833 373.5,325.5C 377.525,322.283 379.859,318.117 380.5,313C 379.795,304.784 378.795,296.618 377.5,288.5C 380.247,288.813 382.914,288.48 385.5,287.5C 387.432,284.634 389.099,281.634 390.5,278.5 Z"/></g>
<g><path style="opacity:1" fill="#fed9aa" d="M 241.5,284.5 C 246.167,284.5 250.833,284.5 255.5,284.5C 255.5,293.5 255.5,302.5 255.5,311.5C 252.833,306.833 250.167,302.167 247.5,297.5C 245.771,293.042 243.771,288.709 241.5,284.5 Z"/></g>
<g><path style="opacity:1" fill="#fec377" d="M 255.5,284.5 C 260.167,284.5 264.833,284.5 269.5,284.5C 267.229,288.709 265.229,293.042 263.5,297.5C 260.659,301.849 258.326,306.516 256.5,311.5C 256.167,311.5 255.833,311.5 255.5,311.5C 255.5,302.5 255.5,293.5 255.5,284.5 Z"/></g>
<g><path style="opacity:1" fill="#050506" d="M 133.5,288.5 C 136.167,288.5 138.833,288.5 141.5,288.5C 142.801,298.155 143.634,307.822 144,317.5C 141.95,320.713 139.45,323.379 136.5,325.5C 134.887,322.714 133.054,320.047 131,317.5C 130.907,307.764 131.74,298.098 133.5,288.5 Z"/></g>
<g><path style="opacity:1" fill="#050506" d="M 369.5,288.5 C 372.167,288.5 374.833,288.5 377.5,288.5C 378.795,296.618 379.795,304.784 380.5,313C 379.859,318.117 377.525,322.283 373.5,325.5C 371.197,323.022 369.031,320.355 367,317.5C 367.366,307.822 368.199,298.155 369.5,288.5 Z"/></g>
<g><path style="opacity:1" fill="#f9d6aa" d="M 105.5,332.5 C 105.5,334.5 105.5,336.5 105.5,338.5C 102.391,344.201 97.7243,346.201 91.5,344.5C 88.3182,342.807 86.6516,340.141 86.5,336.5C 86.5,335.167 86.5,333.833 86.5,332.5C 92.8333,332.5 99.1667,332.5 105.5,332.5 Z"/></g>
<g><path style="opacity:1" fill="#1d1d20" d="M 105.5,332.5 C 116.167,332.5 126.833,332.5 137.5,332.5C 148.167,332.5 158.833,332.5 169.5,332.5C 169.5,332.833 169.5,333.167 169.5,333.5C 158.833,333.5 148.167,333.5 137.5,333.5C 137.5,341.833 137.5,350.167 137.5,358.5C 135.5,358.5 133.5,358.5 131.5,358.5C 131.666,363.179 131.499,367.845 131,372.5C 128.144,382.011 121.977,385.344 112.5,382.5C 108.127,380.128 105.794,376.461 105.5,371.5C 105.5,360.5 105.5,349.5 105.5,338.5C 105.5,336.5 105.5,334.5 105.5,332.5 Z"/></g>
<g><path style="opacity:1" fill="#000000" d="M 169.5,333.5 C 169.5,335.5 169.5,337.5 169.5,339.5C 169.667,351.171 169.5,362.838 169,374.5C 167.939,377.562 166.106,380.062 163.5,382C 154.463,385.893 147.963,383.393 144,374.5C 143.501,369.177 143.334,363.844 143.5,358.5C 141.5,358.5 139.5,358.5 137.5,358.5C 137.5,350.167 137.5,341.833 137.5,333.5C 148.167,333.5 158.833,333.5 169.5,333.5 Z"/></g>
<g><path style="opacity:1" fill="#f7c07a" d="M 169.5,332.5 C 175.833,332.5 182.167,332.5 188.5,332.5C 188.663,334.857 188.497,337.19 188,339.5C 181.836,347.453 175.669,347.453 169.5,339.5C 169.5,337.5 169.5,335.5 169.5,333.5C 169.5,333.167 169.5,332.833 169.5,332.5 Z"/></g>
<g><path style="opacity:1" fill="#f8d6aa" d="M 322.5,332.5 C 328.833,332.5 335.167,332.5 341.5,332.5C 341.552,334.903 341.219,337.236 340.5,339.5C 339.723,342.112 338.056,343.945 335.5,345C 326.153,346.154 321.819,341.987 322.5,332.5 Z"/></g>
<g><path style="opacity:1" fill="#1d1e20" d="M 341.5,332.5 C 352.167,332.5 362.833,332.5 373.5,332.5C 384.167,332.5 394.833,332.5 405.5,332.5C 405.5,332.833 405.5,333.167 405.5,333.5C 394.833,333.5 384.167,333.5 373.5,333.5C 373.5,341.833 373.5,350.167 373.5,358.5C 371.5,358.5 369.5,358.5 367.5,358.5C 367.666,363.844 367.499,369.177 367,374.5C 366,376.167 365,377.833 364,379.5C 354.694,386.138 347.36,384.472 342,374.5C 341.831,362.659 341.331,350.993 340.5,339.5C 341.219,337.236 341.552,334.903 341.5,332.5 Z"/></g>
<g><path style="opacity:1" fill="#000001" d="M 405.5,333.5 C 405.5,335.167 405.5,336.833 405.5,338.5C 405.667,350.838 405.5,363.171 405,375.5C 404.028,377.305 402.861,378.972 401.5,380.5C 390.919,386.612 383.752,383.946 380,372.5C 379.501,367.845 379.334,363.179 379.5,358.5C 377.5,358.5 375.5,358.5 373.5,358.5C 373.5,350.167 373.5,341.833 373.5,333.5C 384.167,333.5 394.833,333.5 405.5,333.5 Z"/></g>
<g><path style="opacity:1" fill="#fac279" d="M 405.5,332.5 C 411.833,332.5 418.167,332.5 424.5,332.5C 424.5,333.833 424.5,335.167 424.5,336.5C 424.451,339.099 423.451,341.266 421.5,343C 414.716,346.683 409.382,345.183 405.5,338.5C 405.5,336.833 405.5,335.167 405.5,333.5C 405.5,333.167 405.5,332.833 405.5,332.5 Z"/></g>
<g><path style="opacity:1" fill="#0d499a" d="M 105.5,338.5 C 105.5,349.5 105.5,360.5 105.5,371.5C 104.674,367.018 104.174,362.351 104,357.5C 99.5808,353.251 95.4141,348.917 91.5,344.5C 97.7243,346.201 102.391,344.201 105.5,338.5 Z"/></g>
<g><path style="opacity:1" fill="#fad7a9" d="M 215.5,345.5 C 215.5,347.167 215.5,348.833 215.5,350.5C 214.655,351.671 213.989,353.005 213.5,354.5C 210.494,360.96 205.494,363.127 198.5,361C 193.935,358.944 191.602,355.444 191.5,350.5C 191.5,348.833 191.5,347.167 191.5,345.5C 199.5,345.5 207.5,345.5 215.5,345.5 Z"/></g>
<g><path style="opacity:1" fill="#2d2d30" d="M 215.5,345.5 C 228.833,345.5 242.167,345.5 255.5,345.5C 255.5,356.167 255.5,366.833 255.5,377.5C 258.167,377.5 260.833,377.5 263.5,377.5C 263.5,377.833 263.5,378.167 263.5,378.5C 258.167,378.5 252.833,378.5 247.5,378.5C 237.013,377.506 226.346,377.172 215.5,377.5C 215.5,368.5 215.5,359.5 215.5,350.5C 215.5,348.833 215.5,347.167 215.5,345.5 Z"/></g>
<g><path style="opacity:1" fill="#020202" d="M 255.5,345.5 C 268.833,345.5 282.167,345.5 295.5,345.5C 295.704,348.518 296.037,351.518 296.5,354.5C 296.5,362.167 296.5,369.833 296.5,377.5C 285.5,377.5 274.5,377.5 263.5,377.5C 260.833,377.5 258.167,377.5 255.5,377.5C 255.5,366.833 255.5,356.167 255.5,345.5 Z"/></g>
<g><path style="opacity:1" fill="#fac177" d="M 295.5,345.5 C 303.833,345.5 312.167,345.5 320.5,345.5C 320.686,357.149 315.019,362.316 303.5,361C 300.642,359.306 298.309,357.139 296.5,354.5C 296.037,351.518 295.704,348.518 295.5,345.5 Z"/></g>
<g><path style="opacity:1" fill="#5c6b7d" d="M 215.5,350.5 C 215.5,359.5 215.5,368.5 215.5,377.5C 215.5,382.833 215.5,388.167 215.5,393.5C 215.5,394.5 215.5,395.5 215.5,396.5C 214.833,382.5 214.167,368.5 213.5,354.5C 213.989,353.005 214.655,351.671 215.5,350.5 Z"/></g>
<g><path style="opacity:1" fill="#f4d1a4" d="M 215.5,377.5 C 226.346,377.172 237.013,377.506 247.5,378.5C 247.5,383.5 247.5,388.5 247.5,393.5C 236.833,393.5 226.167,393.5 215.5,393.5C 215.5,388.167 215.5,382.833 215.5,377.5 Z"/></g>
<g><path style="opacity:1" fill="#fec477" d="M 263.5,378.5 C 274.167,378.5 284.833,378.5 295.5,378.5C 295.5,383.167 295.5,387.833 295.5,392.5C 284.833,392.5 274.167,392.5 263.5,392.5C 263.5,387.833 263.5,383.167 263.5,378.5 Z"/></g>
<g><path style="opacity:1" fill="#977c59" d="M 263.5,378.5 C 263.5,378.167 263.5,377.833 263.5,377.5C 274.5,377.5 285.5,377.5 296.5,377.5C 296.823,384.022 296.49,390.355 295.5,396.5C 295.5,395.5 295.5,394.5 295.5,393.5C 284.833,393.5 274.167,393.5 263.5,393.5C 263.5,393.167 263.5,392.833 263.5,392.5C 274.167,392.5 284.833,392.5 295.5,392.5C 295.5,387.833 295.5,383.167 295.5,378.5C 284.833,378.5 274.167,378.5 263.5,378.5 Z"/></g>
<g><path style="opacity:1" fill="#2f2f33" d="M 215.5,393.5 C 226.167,393.5 236.833,393.5 247.5,393.5C 247.3,401.723 243.3,407.223 235.5,410C 224.642,411.634 217.976,407.134 215.5,396.5C 215.5,395.5 215.5,394.5 215.5,393.5 Z"/></g>
<g><path style="opacity:1" fill="#313133" d="M 263.5,393.5 C 274.167,393.5 284.833,393.5 295.5,393.5C 295.5,394.5 295.5,395.5 295.5,396.5C 293.927,405.309 288.594,409.975 279.5,410.5C 269.355,409.356 264.022,403.689 263.5,393.5 Z"/></g>
</svg>
