<?xml version="1.0" encoding="UTF-8"?>
<!DOCTYPE svg PUBLIC "-//W3C//DTD SVG 1.1//EN" "http://www.w3.org/Graphics/SVG/1.1/DTD/svg11.dtd">
<svg xmlns="http://www.w3.org/2000/svg" version="1.1" width="400px" height="400px" style="shape-rendering:geometricPrecision; text-rendering:geometricPrecision; image-rendering:optimizeQuality; fill-rule:evenodd; clip-rule:evenodd" xmlns:xlink="http://www.w3.org/1999/xlink">
<g><path style="opacity:1" fill="#6474a2" d="M 85.5,-0.5 C 161.833,-0.5 238.167,-0.5 314.5,-0.5C 359.427,9.09365 387.76,36.0937 399.5,80.5C 399.5,160.167 399.5,239.833 399.5,319.5C 388.5,361.833 361.833,388.5 319.5,399.5C 239.833,399.5 160.167,399.5 80.5,399.5C 36.0937,387.76 9.09365,359.427 -0.5,314.5C -0.5,238.167 -0.5,161.833 -0.5,85.5C 9.83333,38.5 38.5,9.83333 85.5,-0.5 Z"/></g>
<g><path style="opacity:1" fill="#f6be77" d="M 69.5,102.5 C 73.8533,102.765 78.1866,103.265 82.5,104C 86.3267,105.746 89.9934,107.746 93.5,110C 101.667,118.833 109.833,127.667 118,136.5C 120.593,141.871 121.759,147.538 121.5,153.5C 129.978,153.493 137.644,155.993 144.5,161C 151.635,169.136 159.135,176.97 167,184.5C 170.977,192.386 172.644,200.72 172,209.5C 165.295,217.371 158.128,224.704 150.5,231.5C 139.096,234.193 128.763,232.026 119.5,225C 112.946,218.446 106.446,211.946 100,205.5C 94.653,198.796 92.153,191.129 92.5,182.5C 84.0947,183.056 76.7614,180.556 70.5,175C 64.9687,169.134 59.1353,163.634 53,158.5C 40.2842,145.682 38.2842,131.348 47,115.5C 53.2175,108.651 60.7175,104.317 69.5,102.5 Z"/></g>
<g><path style="opacity:1" fill="#f7be77" d="M 324.5,101.5 C 348.669,102.327 358.835,114.66 355,138.5C 353.701,141.147 352.368,143.814 351,146.5C 343.656,152.677 336.823,159.344 330.5,166.5C 325.073,170.213 319.073,172.213 312.5,172.5C 312.11,175.839 311.61,179.173 311,182.5C 309.08,185.339 307.413,188.339 306,191.5C 299.112,197.054 292.946,203.221 287.5,210C 284.222,211.809 280.889,213.309 277.5,214.5C 279.334,220.161 278.167,225.161 274,229.5C 272.606,238.409 270.273,247.075 267,255.5C 265.705,257.122 264.205,258.455 262.5,259.5C 248.038,246.011 233.705,232.511 219.5,219C 211.807,215.546 203.807,214.546 195.5,216C 197.245,211.73 195.745,209.563 191,209.5C 188.966,209.354 187.299,210.02 186,211.5C 185.667,222.5 185.333,233.5 185,244.5C 183.579,249.342 180.412,252.342 175.5,253.5C 174.334,235.843 174.167,218.176 175,200.5C 176.141,198.391 177.641,196.558 179.5,195C 193.24,194.714 206.907,195.38 220.5,197C 226.019,192.738 231.352,188.238 236.5,183.5C 238.773,182.349 241.106,181.349 243.5,180.5C 244.31,176.543 246.143,173.21 249,170.5C 255.167,164.333 261.333,158.167 267.5,152C 272.697,147.57 278.697,145.737 285.5,146.5C 285.872,138.994 288.372,132.327 293,126.5C 299.167,120.333 305.333,114.167 311.5,108C 315.931,105.785 320.264,103.618 324.5,101.5 Z"/></g>
<g><path style="opacity:1" fill="#6574a2" d="M 323.5,112.5 C 340.096,110.927 347.263,118.26 345,134.5C 339.286,143.221 332.452,151.054 324.5,158C 313.881,164.164 305.048,162.331 298,152.5C 296.183,147.528 296.183,142.528 298,137.5C 305.732,128.267 314.232,119.934 323.5,112.5 Z"/></g>
<g><path style="opacity:1" fill="#6574a2" d="M 68.5,114.5 C 74.9035,113.529 80.5701,115.029 85.5,119C 94.4479,126.942 102.281,135.775 109,145.5C 110.527,164.16 102.027,171.993 83.5,169C 71.6667,161.167 61.8333,151.333 54,139.5C 51.6277,126.904 56.4611,118.57 68.5,114.5 Z"/></g>
<g><path style="opacity:1" fill="#6674a2" d="M 280.5,156.5 C 286.407,155.034 290.407,157.034 292.5,162.5C 295.241,164.953 298.075,167.286 301,169.5C 301.667,172.833 301.667,176.167 301,179.5C 293.79,189.71 284.957,198.21 274.5,205C 272.5,205.667 270.5,205.667 268.5,205C 262.824,198.693 257.491,192.193 252.5,185.5C 253.137,182.893 254.304,180.56 256,178.5C 263.49,170.164 271.657,162.83 280.5,156.5 Z"/></g>
<g><path style="opacity:1" fill="#6574a2" d="M 117.5,165.5 C 123.072,164.99 128.405,165.823 133.5,168C 141.667,176.167 149.833,184.333 158,192.5C 159.323,196.108 159.989,199.775 160,203.5C 152.904,209.771 145.404,215.438 137.5,220.5C 135.423,220.308 133.423,219.808 131.5,219C 123.644,212.143 116.144,204.976 109,197.5C 104.895,192.522 103.229,186.855 104,180.5C 107.584,177.186 111.251,173.852 115,170.5C 116.094,168.922 116.928,167.255 117.5,165.5 Z"/></g>
<g><path style="opacity:1" fill="#f7be77" d="M 198.5,227.5 C 202.846,227.334 207.179,227.501 211.5,228C 227.02,242.022 242.353,256.189 257.5,270.5C 261.542,274.54 265.209,278.873 268.5,283.5C 267.926,285.059 267.26,286.559 266.5,288C 263.5,288.667 260.5,288.667 257.5,288C 249.5,278.667 240.833,270 231.5,262C 226.859,260.349 224.193,261.849 223.5,266.5C 223.622,268.791 224.455,270.791 226,272.5C 234.333,280.833 242.667,289.167 251,297.5C 251.844,305.105 248.677,307.605 241.5,305C 233.197,295.696 224.531,286.696 215.5,278C 210.911,276.795 207.911,278.461 206.5,283C 206.625,284.627 207.125,286.127 208,287.5C 217.031,296.196 225.697,305.196 234,314.5C 235.324,321.505 232.49,324.005 225.5,322C 216.864,312.363 207.864,303.03 198.5,294C 196.725,292.561 194.725,291.561 192.5,291C 191.761,287.513 190.927,284.013 190,280.5C 187.333,277.833 184.667,275.167 182,272.5C 180.684,265.838 183.184,261.338 189.5,259C 191.713,256.763 193.546,254.263 195,251.5C 195.764,243.304 196.93,235.304 198.5,227.5 Z"/></g>
<g><path style="opacity:1" fill="#f5bd78" d="M 162.5,261.5 C 169.21,261.539 171.376,264.539 169,270.5C 162.833,276.667 156.667,282.833 150.5,289C 143.653,292.157 140.82,289.99 142,282.5C 149.036,275.632 155.869,268.632 162.5,261.5 Z"/></g>
<g><path style="opacity:1" fill="#f4bd78" d="M 171.5,283.5 C 177.496,282.333 179.996,284.666 179,290.5C 174.867,295.634 170.367,300.468 165.5,305C 163.167,305.667 160.833,305.667 158.5,305C 156.964,303.401 156.464,301.567 157,299.5C 161.671,293.997 166.504,288.664 171.5,283.5 Z"/></g>
<g><path style="opacity:1" fill="#f6bd78" d="M 185.5,301.5 C 192.249,301.992 194.082,305.325 191,311.5C 187.944,314.432 184.777,317.266 181.5,320C 175.221,323.231 172.387,321.398 173,314.5C 177.37,310.298 181.537,305.964 185.5,301.5 Z"/></g>
<g><path style="opacity:1" fill="#f4bd78" d="M 202.5,316.5 C 208.989,315.975 210.823,318.642 208,324.5C 203.833,327.333 200.333,330.833 197.5,335C 193.492,336.171 190.492,335.005 188.5,331.5C 189,330.5 189.5,329.5 190,328.5C 193.912,324.147 198.078,320.147 202.5,316.5 Z"/></g>
</svg>
