<?xml version="1.0" encoding="UTF-8"?>
<!DOCTYPE svg PUBLIC "-//W3C//DTD SVG 1.1//EN" "http://www.w3.org/Graphics/SVG/1.1/DTD/svg11.dtd">
<svg xmlns="http://www.w3.org/2000/svg" version="1.1" width="960px" height="400px" style="shape-rendering:geometricPrecision; text-rendering:geometricPrecision; image-rendering:optimizeQuality; fill-rule:evenodd; clip-rule:evenodd" xmlns:xlink="http://www.w3.org/1999/xlink">
<g><path style="opacity:1" fill="#2c4e8d" d="M 605.5,2.5 C 663.51,-2.99786 718.177,7.83547 769.5,35C 778.818,40.0841 786.651,46.9174 793,55.5C 800.473,70.1159 807.14,85.1159 813,100.5C 813.953,112.355 811.286,123.355 805,133.5C 790.324,154.505 771.157,170.005 747.5,180C 699.829,199.859 650.162,208.193 598.5,205C 585.711,202.576 572.878,200.409 560,198.5C 558.167,198.667 556.333,198.833 554.5,199C 552.792,201.043 550.792,202.71 548.5,204C 515.347,218.6 481.014,223.433 445.5,218.5C 439.102,218 437.435,215.167 440.5,210C 462.759,205.456 481.926,195.29 498,179.5C 498.49,178.207 498.657,176.873 498.5,175.5C 468.41,165.237 449.577,144.571 442,113.5C 441.333,106.167 441.333,98.8333 442,91.5C 450.387,73.7669 461.887,58.2669 476.5,45C 498.803,28.5171 523.47,16.8504 550.5,10C 568.837,6.41791 587.17,3.91791 605.5,2.5 Z"/></g>
<g><path style="opacity:1" fill="#fcfcfd" d="M 624.5,195.5 C 617.833,196.833 611.167,196.833 604.5,195.5C 604.489,193.983 603.823,192.816 602.5,192C 595.681,189.09 589.015,185.923 582.5,182.5C 581.5,182.833 580.833,183.5 580.5,184.5C 583.746,189.236 588.079,192.736 593.5,195C 584.452,194.326 575.452,192.993 566.5,191C 560.833,190.333 555.167,190.333 549.5,191C 535.51,201.225 519.843,207.558 502.5,210C 495.247,211.598 487.914,212.431 480.5,212.5C 475.968,212.818 471.634,212.485 467.5,211.5C 479.088,206.373 490.088,200.206 500.5,193C 503.704,190.131 506.537,186.965 509,183.5C 510.266,179.605 510.766,175.605 510.5,171.5C 480.127,162.457 461.294,142.457 454,111.5C 451.967,94.4053 457.134,79.9053 469.5,68C 477.803,60.6978 485.803,53.0311 493.5,45C 525.501,23.6678 560.834,12.3345 599.5,11C 650.942,5.78538 700.276,13.452 747.5,34C 751.993,36.079 756.326,38.4123 760.5,41C 759.761,42.7646 759.761,44.7646 760.5,47C 762.669,47.4294 764.669,46.9294 766.5,45.5C 768.167,46.6667 769.833,47.8333 771.5,49C 768.143,50.5125 766.143,53.0125 765.5,56.5C 769.069,55.8111 772.569,54.8111 776,53.5C 778.185,55.3531 780.018,57.5197 781.5,60C 778.736,60.5323 776.07,61.3657 773.5,62.5C 772.614,63.325 772.281,64.325 772.5,65.5C 776.559,65.4341 780.559,65.2674 784.5,65C 785.399,67.1917 786.399,69.3584 787.5,71.5C 783.718,72.7054 780.052,74.2054 776.5,76C 775.663,77.0113 775.33,78.1779 775.5,79.5C 780.101,79.5331 784.601,78.8665 789,77.5C 791.223,79.2802 792.39,81.6135 792.5,84.5C 786.423,84.79 780.756,86.4567 775.5,89.5C 781.504,90.7495 787.504,90.7495 793.5,89.5C 796.108,91.0437 797.442,93.3771 797.5,96.5C 790.341,97.206 783.341,98.706 776.5,101C 775.663,102.011 775.33,103.178 775.5,104.5C 783.56,104.491 791.56,103.824 799.5,102.5C 799.5,105.5 799.5,108.5 799.5,111.5C 788.009,111.701 776.676,113.034 765.5,115.5C 775.743,118.205 786.076,118.872 796.5,117.5C 797.081,121.28 796.081,124.78 793.5,128C 782.197,127.153 770.863,126.819 759.5,127C 768.916,130.526 778.583,133.359 788.5,135.5C 786.712,137.576 785.046,139.743 783.5,142C 774.935,140.221 766.268,138.554 757.5,137C 751.5,136.333 745.5,136.333 739.5,137C 741.275,138.439 743.275,139.439 745.5,140C 756.384,142.032 767.051,144.698 777.5,148C 774.78,150.745 771.613,152.579 768,153.5C 755.871,151.695 743.704,150.195 731.5,149C 730.294,151.709 731.294,153.375 734.5,154C 744.107,156.039 753.774,157.706 763.5,159C 760.42,161.29 757.253,163.457 754,165.5C 738.247,159.947 722.081,158.114 705.5,160C 704.273,161.587 704.606,162.921 706.5,164C 719.061,165.093 731.394,167.26 743.5,170.5C 739.669,173.165 735.502,175.165 731,176.5C 717.245,174.949 703.745,172.115 690.5,168C 685.875,166.838 681.208,166.504 676.5,167C 681.202,170.798 686.535,173.465 692.5,175C 701.632,177.95 710.965,179.95 720.5,181C 715.399,182.734 710.232,184.234 705,185.5C 696.372,182.774 687.539,180.941 678.5,180C 672.5,178 666.5,176 660.5,174C 657.446,173.179 654.446,173.345 651.5,174.5C 663.62,182.376 676.954,187.21 691.5,189C 684.55,190.714 677.55,192.214 670.5,193.5C 670.773,191.549 670.107,190.049 668.5,189C 657.229,185.132 645.895,181.465 634.5,178C 632.5,177.333 630.5,177.333 628.5,178C 628.043,178.414 627.709,178.914 627.5,179.5C 637.738,185.972 648.738,190.805 660.5,194C 655.039,195.063 649.539,195.896 644,196.5C 630.354,190.007 616.187,185.007 601.5,181.5C 601.297,183.39 601.963,184.89 603.5,186C 610.027,190.264 617.027,193.431 624.5,195.5 Z"/></g>
<g><path style="opacity:1" fill="#385793" d="M 543.5,44.5 C 546.167,44.5 548.833,44.5 551.5,44.5C 551.5,45.5 551.5,46.5 551.5,47.5C 550.5,47.5 549.5,47.5 548.5,47.5C 548.521,55.6776 548.855,63.8443 549.5,72C 549.625,75.3552 549.125,78.5219 548,81.5C 546.523,70.3289 546.023,58.9956 546.5,47.5C 544.712,47.7852 543.045,47.4519 541.5,46.5C 542.243,45.8182 542.909,45.1515 543.5,44.5 Z"/></g>
<g><path style="opacity:1" fill="#375693" d="M 607.5,74.5 C 607.174,66.3159 607.508,58.3159 608.5,50.5C 609.33,59.324 609.83,68.324 610,77.5C 612.454,79.013 614.121,78.3463 615,75.5C 615.833,66.5 616.667,57.5 617.5,48.5C 618.665,56.4792 618.832,64.4792 618,72.5C 617.641,76.5786 615.807,79.5786 612.5,81.5C 609.135,80.4526 607.468,78.1193 607.5,74.5 Z"/></g>
<g><path style="opacity:1" fill="#2c4e8d" d="M 563.5,66.5 C 562.432,65.5655 561.099,65.2322 559.5,65.5C 559.5,70.1667 559.5,74.8333 559.5,79.5C 559.44,80.0431 559.107,80.3764 558.5,80.5C 557.167,70.1667 557.167,59.8333 558.5,49.5C 559.493,54.1196 559.827,58.7863 559.5,63.5C 560.919,64.4511 562.585,64.7845 564.5,64.5C 564.81,61.2869 564.477,58.2869 563.5,55.5C 563.5,53.1667 563.5,50.8333 563.5,48.5C 564.5,48.5 565.5,48.5 566.5,48.5C 566.832,59.1874 566.499,69.8541 565.5,80.5C 564.914,80.2907 564.414,79.9574 564,79.5C 563.501,75.1794 563.334,70.8461 563.5,66.5 Z"/></g>
<g><path style="opacity:1" fill="#224889" d="M 579.5,63.5 C 578.167,63.5 576.833,63.5 575.5,63.5C 575.5,68.8333 575.5,74.1667 575.5,79.5C 577.167,79.5 578.833,79.5 580.5,79.5C 581.738,79.81 581.738,80.31 580.5,81C 578.19,81.4966 575.857,81.6633 573.5,81.5C 573.5,70.8333 573.5,60.1667 573.5,49.5C 575.527,49.3379 577.527,49.5045 579.5,50C 579.957,50.414 580.291,50.914 580.5,51.5C 579.224,52.6446 577.891,52.6446 576.5,51.5C 575.513,54.7683 575.18,58.1016 575.5,61.5C 577.483,61.1568 578.817,61.8235 579.5,63.5 Z"/></g>
<g><path style="opacity:1" fill="#31528f" d="M 595.5,49.5 C 598.167,49.5 600.833,49.5 603.5,49.5C 603.5,50.5 603.5,51.5 603.5,52.5C 602.07,52.5792 600.736,52.2458 599.5,51.5C 597.984,56.039 598.317,60.3723 600.5,64.5C 599.675,65.3857 598.675,65.719 597.5,65.5C 597.666,70.5111 597.499,75.5111 597,80.5C 595.633,81.5243 594.8,81.0243 594.5,79C 595.463,69.2071 595.796,59.3737 595.5,49.5 Z"/></g>
<g><path style="opacity:1" fill="#3b5994" d="M 621.5,50.5 C 624.687,49.1944 628.02,49.1944 631.5,50.5C 630.675,51.3857 629.675,51.719 628.5,51.5C 629.364,61.1813 629.364,70.848 628.5,80.5C 626.894,70.8989 625.894,61.2322 625.5,51.5C 624.041,51.5674 622.708,51.2341 621.5,50.5 Z"/></g>
<g><path style="opacity:1" fill="#355692" d="M 654.5,48.5 C 657.099,48.5494 659.266,49.5494 661,51.5C 661.69,56.142 661.19,60.642 659.5,65C 660.21,70.1745 661.543,75.1745 663.5,80C 662.99,81.8261 662.156,81.9928 661,80.5C 659.287,75.6036 657.954,70.6036 657,65.5C 656.829,70.8642 656.329,76.1975 655.5,81.5C 654.501,70.5202 654.168,59.5202 654.5,48.5 Z"/></g>
<g><path style="opacity:1" fill="#375893" d="M 669.5,49.5 C 672.157,49.162 674.49,49.8287 676.5,51.5C 674.955,52.4519 673.288,52.7852 671.5,52.5C 671.5,55.5 671.5,58.5 671.5,61.5C 676.833,62.5 676.833,63.5 671.5,64.5C 671.5,69.5 671.5,74.5 671.5,79.5C 673.288,79.2148 674.955,79.5481 676.5,80.5C 673.966,81.7766 671.466,81.7766 669,80.5C 668.192,70.0899 668.359,59.7565 669.5,49.5 Z"/></g>
<g><path style="opacity:1" fill="#355591" d="M 689.5,49.5 C 691.924,49.1924 694.257,49.5258 696.5,50.5C 695.675,51.3857 694.675,51.719 693.5,51.5C 693.598,60.2095 694.265,68.8761 695.5,77.5C 696.5,77.8333 697.167,78.5 697.5,79.5C 694.833,80.8333 692.167,80.8333 689.5,79.5C 690.777,74.8468 691.443,70.0135 691.5,65C 691.394,59.6602 690.727,54.4935 689.5,49.5 Z"/></g>
<g><path style="opacity:1" fill="#345491" d="M 645.5,48.5 C 646.5,48.5 647.5,48.5 648.5,48.5C 648.839,57.2259 648.339,65.8926 647,74.5C 646.416,79.7912 643.75,81.7912 639,80.5C 638.027,78.6079 637.36,76.6079 637,74.5C 636.168,66.1467 636.335,57.8134 637.5,49.5C 638.182,58.8543 639.016,68.1876 640,77.5C 640.561,78.0219 641.228,78.3552 642,78.5C 643.735,77.3181 644.735,75.6515 645,73.5C 645.5,65.1733 645.666,56.84 645.5,48.5 Z"/></g>
<g><path style="opacity:1" fill="#e5e9f1" d="M 656.5,50.5 C 658.478,51.3171 659.478,52.8171 659.5,55C 659.066,57.6342 658.233,60.1342 657,62.5C 656.501,58.5138 656.334,54.5138 656.5,50.5 Z"/></g>
<g><path style="opacity:1" fill="#6580ad" d="M 608.5,50.5 C 607.508,58.3159 607.174,66.3159 607.5,74.5C 606.179,66.3242 606.179,57.9909 607.5,49.5C 608.107,49.6236 608.44,49.9569 608.5,50.5 Z"/></g>
<g><path style="opacity:1" fill="#899dc0" d="M 563.5,55.5 C 564.477,58.2869 564.81,61.2869 564.5,64.5C 562.585,64.7845 560.919,64.4511 559.5,63.5C 560.833,63.5 562.167,63.5 563.5,63.5C 563.5,60.8333 563.5,58.1667 563.5,55.5 Z"/></g>
<g><path style="opacity:1" fill="#385793" d="M 702.5,48.5 C 707.422,49.3344 707.589,50.6677 703,52.5C 702.833,53.5 702.667,54.5 702.5,55.5C 704.645,60.9547 706.645,66.4547 708.5,72C 708.701,76.4408 706.868,79.6075 703,81.5C 701.941,81.3699 701.108,80.8699 700.5,80C 704.728,79.2635 706.395,76.7635 705.5,72.5C 705.155,67.8006 703.655,63.4673 701,59.5C 700.112,55.5979 700.612,51.9312 702.5,48.5 Z"/></g>
<g><path style="opacity:1" fill="#99abc9" d="M 579.5,63.5 C 578.791,64.404 577.791,64.7373 576.5,64.5C 576.5,69.1667 576.5,73.8333 576.5,78.5C 578.099,78.2322 579.432,78.5655 580.5,79.5C 578.833,79.5 577.167,79.5 575.5,79.5C 575.5,74.1667 575.5,68.8333 575.5,63.5C 576.833,63.5 578.167,63.5 579.5,63.5 Z"/></g>
<g><path style="opacity:1" fill="#b3c0d7" d="M 563.5,66.5 C 562.5,66.5 561.5,66.5 560.5,66.5C 560.818,71.0323 560.485,75.3656 559.5,79.5C 559.5,74.8333 559.5,70.1667 559.5,65.5C 561.099,65.2322 562.432,65.5655 563.5,66.5 Z"/></g>
<g><path style="opacity:1" fill="#2b4d8c" d="M 390.5,216.5 C 388.821,216.285 387.821,216.952 387.5,218.5C 379.152,238.845 365.485,254.512 346.5,265.5C 345.571,266.689 345.238,268.022 345.5,269.5C 345.5,274.5 345.5,279.5 345.5,284.5C 348.167,284.5 350.833,284.5 353.5,284.5C 376.831,286.799 399.498,291.966 421.5,300C 444.772,311.266 461.272,327.766 471,349.5C 475.034,358.492 476.534,367.826 475.5,377.5C 474.205,378.098 472.872,378.598 471.5,379C 470.547,380.955 469.213,382.622 467.5,384C 445.898,389.951 423.898,393.618 401.5,395C 340.48,399.791 279.48,399.458 218.5,394C 203.785,390.54 189.119,386.873 174.5,383C 167.578,381.457 160.578,380.457 153.5,380C 151.099,379.205 148.932,378.038 147,376.5C 144.857,368.404 145.19,360.404 148,352.5C 156.951,332.882 170.784,317.715 189.5,307C 216.85,294.273 245.517,286.106 275.5,282.5C 274.105,275.427 275.438,268.927 279.5,263C 261.387,253.887 247.553,240.387 238,222.5C 223.602,218.761 215.602,209.428 214,194.5C 212.796,185.893 213.796,177.559 217,169.5C 217.996,167.34 219.496,165.673 221.5,164.5C 223.461,157.913 224.128,150.913 223.5,143.5C 226.208,126.539 232.708,111.205 243,97.5C 250.578,89.1351 260.078,85.1351 271.5,85.5C 304.71,62.9943 339.043,61.4943 374.5,81C 388.243,91.1006 396.743,104.601 400,121.5C 401.996,132.398 402.996,143.398 403,154.5C 405.151,157.216 404.984,159.716 402.5,162C 412.864,180.133 411.197,197.133 397.5,213C 395.423,214.705 393.09,215.872 390.5,216.5 Z"/></g>
<g><path style="opacity:1" fill="#f9fafc" d="M 279.5,93.5 C 278.737,92.7321 277.737,92.2321 276.5,92C 277.381,91.2917 278.047,90.4584 278.5,89.5C 308.864,72.4577 339.531,72.2911 370.5,89C 378.635,95.0956 384.468,102.929 388,112.5C 392.55,126.136 394.384,140.136 393.5,154.5C 381.709,155.515 370.376,153.681 359.5,149C 343.407,141.537 327.574,133.703 312,125.5C 309.278,125.886 307.445,127.386 306.5,130C 307.691,134.12 308.691,138.286 309.5,142.5C 309.267,143.932 308.6,144.432 307.5,144C 289.332,131.812 279.998,114.978 279.5,93.5 Z"/></g>
<g><path style="opacity:1" fill="#264b8b" d="M 304.5,82.5 C 323.064,82.9501 340.397,87.7835 356.5,97C 358.684,99.0165 360.684,101.183 362.5,103.5C 360.235,104.647 357.902,104.814 355.5,104C 347.049,100.608 338.716,96.9415 330.5,93C 321.486,89.3299 312.153,87.9965 302.5,89C 300.051,89.7246 297.717,90.7246 295.5,92C 311.015,95.0352 326.348,98.7019 341.5,103C 342.833,104 342.833,105 341.5,106C 336.5,106.667 331.5,106.667 326.5,106C 316.519,103.393 306.519,100.893 296.5,98.5C 304.043,104.978 313.043,110.145 323.5,114C 334.117,116.16 344.784,117.994 355.5,119.5C 355.5,120.5 355.5,121.5 355.5,122.5C 330.456,125.735 309.289,118.069 292,99.5C 293.636,106.447 296.136,113.114 299.5,119.5C 291.979,116.514 287.812,110.847 287,102.5C 287.066,99.422 286.899,96.422 286.5,93.5C 287.942,90.2231 290.275,87.7231 293.5,86C 297.161,84.4075 300.828,83.2408 304.5,82.5 Z"/></g>
<g><path style="opacity:1" fill="#7f97bd" d="M 278.5,89.5 C 278.047,90.4584 277.381,91.2917 276.5,92C 277.737,92.2321 278.737,92.7321 279.5,93.5C 278.167,93.5 276.833,93.5 275.5,93.5C 275.5,93.1667 275.5,92.8333 275.5,92.5C 275.5,90.5 276.5,89.5 278.5,89.5 Z"/></g>
<g><path style="opacity:1" fill="#2a4e8d" d="M 720.5,101.5 C 721.794,103.048 722.461,105.048 722.5,107.5C 721.889,115.493 721.389,123.493 721,131.5C 719.856,126.671 719.356,121.671 719.5,116.5C 719.525,111.421 719.858,106.421 720.5,101.5 Z"/></g>
<g><path style="opacity:1" fill="#f5f6f9" d="M 275.5,92.5 C 275.5,92.8333 275.5,93.1667 275.5,93.5C 273.182,95.1852 272.182,97.5185 272.5,100.5C 269.729,100.421 267.063,100.921 264.5,102C 258.236,105.27 252.236,108.936 246.5,113C 240.687,118.144 241.353,119.81 248.5,118C 253.833,114.333 259.167,110.667 264.5,107C 266.65,105.589 268.984,104.755 271.5,104.5C 271.719,105.675 271.386,106.675 270.5,107.5C 263.078,112.088 256.078,117.255 249.5,123C 246.306,125.149 244.472,127.982 244,131.5C 253.199,125.9 261.866,119.567 270,112.5C 267.953,119.916 264.287,126.583 259,132.5C 250.572,140.264 241.572,147.264 232,153.5C 232.732,138.628 236.732,124.628 244,111.5C 247.586,103.579 253.42,98.0795 261.5,95C 266.122,93.8436 270.789,93.0103 275.5,92.5 Z"/></g>
<g><path style="opacity:1" fill="#315390" d="M 530.5,106.5 C 535.287,107.156 538.454,109.822 540,114.5C 540.667,120.5 540.667,126.5 540,132.5C 538.1,137.459 534.767,139.126 530,137.5C 529.192,127.09 529.359,116.757 530.5,106.5 Z"/></g>
<g><path style="opacity:1" fill="#395793" d="M 549.5,109.5 C 548.521,112.625 548.187,115.958 548.5,119.5C 549.833,119.5 551.167,119.5 552.5,119.5C 552.179,121.048 551.179,121.715 549.5,121.5C 549.5,126.5 549.5,131.5 549.5,136.5C 551.288,136.215 552.955,136.548 554.5,137.5C 552.337,139.72 549.837,140.053 547,138.5C 546.333,128.167 546.333,117.833 547,107.5C 549.081,106.667 551.248,106.667 553.5,107.5C 553.5,108.5 553.5,109.5 553.5,110.5C 552.041,110.567 550.708,110.234 549.5,109.5 Z"/></g>
<g><path style="opacity:1" fill="#395893" d="M 576.5,109.5 C 575.521,112.625 575.187,115.958 575.5,119.5C 576.833,119.5 578.167,119.5 579.5,119.5C 579.179,121.048 578.179,121.715 576.5,121.5C 576.5,126.5 576.5,131.5 576.5,136.5C 578.288,136.215 579.955,136.548 581.5,137.5C 579.337,139.72 576.837,140.053 574,138.5C 573.333,128.167 573.333,117.833 574,107.5C 576.081,106.667 578.248,106.667 580.5,107.5C 580.5,108.5 580.5,109.5 580.5,110.5C 579.041,110.567 577.708,110.234 576.5,109.5 Z"/></g>
<g><path style="opacity:1" fill="#2e508e" d="M 588.5,106.5 C 590.074,106.937 591.241,107.937 592,109.5C 595.085,117.423 597.752,125.423 600,133.5C 600.5,124.84 600.666,116.173 600.5,107.5C 601.5,107.5 602.5,107.5 603.5,107.5C 603.176,117.505 602.676,127.505 602,137.5C 600.989,138.337 599.822,138.67 598.5,138.5C 596.581,129.576 593.748,120.909 590,112.5C 589.185,120.746 589.352,128.912 590.5,137C 589.975,137.692 589.308,138.192 588.5,138.5C 587.192,127.772 587.192,117.106 588.5,106.5 Z"/></g>
<g><path style="opacity:1" fill="#365692" d="M 607.5,106.5 C 610.5,106.5 613.5,106.5 616.5,106.5C 616.5,107.5 616.5,108.5 616.5,109.5C 615.5,109.5 614.5,109.5 613.5,109.5C 614.328,148.142 613.495,148.142 611,109.5C 609.271,109.026 608.105,108.026 607.5,106.5 Z"/></g>
<g><path style="opacity:1" fill="#355692" d="M 622.5,106.5 C 625.325,106.081 627.491,107.081 629,109.5C 629.731,113.983 629.231,118.317 627.5,122.5C 628.138,127.858 629.471,133.025 631.5,138C 631.167,138.5 630.833,139 630.5,139.5C 629.029,138.619 628.196,137.286 628,135.5C 627,131.167 626,126.833 625,122.5C 624.829,127.864 624.329,133.198 623.5,138.5C 622.501,127.854 622.168,117.187 622.5,106.5 Z"/></g>
<g><path style="opacity:1" fill="#30528f" d="M 651.5,106.5 C 653.474,116.111 654.141,126.111 653.5,136.5C 655.75,136.181 657.75,136.681 659.5,138C 656.518,138.498 653.518,138.665 650.5,138.5C 651.043,127.841 651.377,117.175 651.5,106.5 Z"/></g>
<g><path style="opacity:1" fill="#446199" d="M 663.5,106.5 C 665.167,106.5 666.833,106.5 668.5,106.5C 666.115,116.086 666.115,125.753 668.5,135.5C 669.308,135.808 669.975,136.308 670.5,137C 668.045,138.54 665.379,138.874 662.5,138C 661.391,136.187 662.058,135.354 664.5,135.5C 664.533,126.291 663.533,117.291 661.5,108.5C 662.243,107.818 662.909,107.151 663.5,106.5 Z"/></g>
<g><path style="opacity:1" fill="#3a5994" d="M 676.5,106.5 C 678.527,106.338 680.527,106.505 682.5,107C 683.022,107.561 683.355,108.228 683.5,109C 680.864,117.744 678.53,126.578 676.5,135.5C 677.833,135.5 679.167,135.5 680.5,135.5C 680.5,136.5 680.5,137.5 680.5,138.5C 678.167,138.5 675.833,138.5 673.5,138.5C 674.811,128.571 677.145,118.904 680.5,109.5C 679.127,109.657 677.793,109.49 676.5,109C 675.402,108.23 675.402,107.397 676.5,106.5 Z"/></g>
<g><path style="opacity:1" fill="#3e5d97" d="M 689.5,106.5 C 692.226,106.264 694.559,107.097 696.5,109C 695.135,110.682 693.635,110.849 692,109.5C 691.502,112.817 691.335,116.15 691.5,119.5C 696.833,120.167 696.833,120.833 691.5,121.5C 691.5,126.5 691.5,131.5 691.5,136.5C 693.288,136.215 694.955,136.548 696.5,137.5C 694.337,139.72 691.837,140.053 689,138.5C 688.192,127.757 688.358,117.09 689.5,106.5 Z"/></g>
<g><path style="opacity:1" fill="#335491" d="M 702.5,106.5 C 710.739,108.781 714.405,114.281 713.5,123C 714.091,128.804 712.425,133.804 708.5,138C 706.527,138.495 704.527,138.662 702.5,138.5C 702.5,127.833 702.5,117.167 702.5,106.5 Z"/></g>
<g><path style="opacity:1" fill="#395893" d="M 563.5,106.5 C 569.893,107.463 569.727,108.796 563,110.5C 560.861,118.935 561.027,127.268 563.5,135.5C 565.167,136.167 566.833,136.833 568.5,137.5C 566.166,139.987 563.666,139.987 561,137.5C 558.579,130.015 557.912,122.348 559,114.5C 559.738,111.352 561.238,108.685 563.5,106.5 Z"/></g>
<g><path style="opacity:1" fill="#f6f8fa" d="M 624.5,108.5 C 626.927,111.81 627.093,115.477 625,119.5C 624.501,115.848 624.335,112.182 624.5,108.5 Z"/></g>
<g><path style="opacity:1" fill="#f5f7fa" d="M 534.5,135.5 C 533.833,131.167 533.167,126.833 532.5,122.5C 532.174,118.116 532.508,113.783 533.5,109.5C 535.718,110.924 537.218,112.924 538,115.5C 538.667,119.833 538.667,124.167 538,128.5C 537.861,131.445 536.694,133.779 534.5,135.5 Z"/></g>
<g><path style="opacity:1" fill="#f1f3f7" d="M 704.5,109.5 C 707.595,109.626 709.428,111.293 710,114.5C 710.667,120.167 710.667,125.833 710,131.5C 709.376,133.754 708.043,135.421 706,136.5C 705.215,127.513 704.715,118.513 704.5,109.5 Z"/></g>
<g><path style="opacity:1" fill="#91a5c5" d="M 549.5,109.5 C 549.5,112.5 549.5,115.5 549.5,118.5C 550.791,118.263 551.791,118.596 552.5,119.5C 551.167,119.5 549.833,119.5 548.5,119.5C 548.187,115.958 548.521,112.625 549.5,109.5 Z"/></g>
<g><path style="opacity:1" fill="#8da1c2" d="M 576.5,109.5 C 576.5,112.5 576.5,115.5 576.5,118.5C 577.791,118.263 578.791,118.596 579.5,119.5C 578.167,119.5 576.833,119.5 575.5,119.5C 575.187,115.958 575.521,112.625 576.5,109.5 Z"/></g>
<g><path style="opacity:1" fill="#f9c078" d="M 391.5,182.5 C 392.163,180.359 392.497,178.025 392.5,175.5C 392.685,171.859 392.019,168.526 390.5,165.5C 390.5,165.167 390.5,164.833 390.5,164.5C 390.842,163.662 391.508,163.328 392.5,163.5C 403.09,177.791 403.09,192.124 392.5,206.5C 391.833,205.167 391.167,203.833 390.5,202.5C 388.151,198.196 384.984,197.53 381,200.5C 376.627,219.416 367.46,235.582 353.5,249C 333.613,263.319 312.28,265.986 289.5,257C 263.111,245.608 246.444,225.942 239.5,198C 237.888,197.28 236.388,197.446 235,198.5C 234.827,202.541 234.327,206.541 233.5,210.5C 224.651,204.048 220.651,195.215 221.5,184C 220.754,177.218 222.921,171.718 228,167.5C 228.031,171.768 229.031,175.768 231,179.5C 233,180.833 235,180.833 237,179.5C 236.411,171.564 238.078,164.231 242,157.5C 249.667,150.5 257.333,143.5 265,136.5C 268.894,130.601 271.894,124.268 274,117.5C 281.005,130.978 290.505,142.478 302.5,152C 306.594,154.198 310.927,155.698 315.5,156.5C 318.732,156.265 320.732,154.598 321.5,151.5C 320.17,147.197 319.337,142.863 319,138.5C 337.713,150.401 357.879,158.567 379.5,163C 380.46,164.419 381.293,165.919 382,167.5C 382.333,173.167 382.667,178.833 383,184.5C 385.153,186.444 387.653,186.944 390.5,186C 391.337,184.989 391.67,183.822 391.5,182.5 Z"/></g>
<g><path style="opacity:1" fill="#3d5a95" d="M 639.5,106.5 C 640.833,106.5 642.167,106.5 643.5,106.5C 643.687,117.271 644.687,127.937 646.5,138.5C 645.5,138.5 644.5,138.5 643.5,138.5C 643.5,136.167 643.5,133.833 643.5,131.5C 641.5,131.167 639.5,130.833 637.5,130.5C 637.663,132.857 637.497,135.19 637,137.5C 635.989,138.337 634.822,138.67 633.5,138.5C 635.966,127.898 637.966,117.231 639.5,106.5 Z"/></g>
<g><path style="opacity:1" fill="#e0e5ee" d="M 640.5,112.5 C 642.012,117.929 642.679,123.596 642.5,129.5C 641.167,129.5 639.833,129.5 638.5,129.5C 638.684,123.769 639.35,118.102 640.5,112.5 Z"/></g>
<g><path style="opacity:1" fill="#9fb0cc" d="M 532.5,122.5 C 533.167,126.833 533.833,131.167 534.5,135.5C 534.44,136.043 534.107,136.376 533.5,136.5C 532.507,131.88 532.173,127.214 532.5,122.5 Z"/></g>
<g><path style="opacity:1" fill="#385894" d="M 719.5,135.5 C 720.995,135.415 721.995,136.081 722.5,137.5C 721.68,139.111 720.346,139.778 718.5,139.5C 718.433,138.041 718.766,136.708 719.5,135.5 Z"/></g>
<g><path style="opacity:1" fill="#738bb4" d="M 223.5,143.5 C 224.128,150.913 223.461,157.913 221.5,164.5C 222.134,157.4 222.801,150.4 223.5,143.5 Z"/></g>
<g><path style="opacity:1" fill="#bbc8db" d="M 392.5,163.5 C 391.508,163.328 390.842,163.662 390.5,164.5C 389.115,163.698 389.282,163.031 391,162.5C 391.765,162.57 392.265,162.903 392.5,163.5 Z"/></g>
<g><path style="opacity:1" fill="#6f86b2" d="M 390.5,165.5 C 392.019,168.526 392.685,171.859 392.5,175.5C 392.497,178.025 392.163,180.359 391.5,182.5C 391.625,176.797 391.292,171.13 390.5,165.5 Z"/></g>
<g><path style="opacity:1" fill="#284b8b" d="M 272.5,179.5 C 284.709,179.92 289.209,186.254 286,198.5C 282.691,205.48 277.525,207.314 270.5,204C 265.798,199.078 264.298,193.245 266,186.5C 267.425,183.394 269.592,181.06 272.5,179.5 Z"/></g>
<g><path style="opacity:1" fill="#2b4d8c" d="M 340.5,179.5 C 352.231,179.074 357.064,184.741 355,196.5C 352.866,205.306 347.699,207.806 339.5,204C 333.514,198.993 332.014,192.826 335,185.5C 336.803,183.377 338.637,181.377 340.5,179.5 Z"/></g>
<g><path style="opacity:1" fill="#b3c0d6" d="M 604.5,195.5 C 611.167,196.833 617.833,196.833 624.5,195.5C 625.289,195.783 625.956,196.283 626.5,197C 618.812,197.831 611.145,197.665 603.5,196.5C 603.624,195.893 603.957,195.56 604.5,195.5 Z"/></g>
<g><path style="opacity:1" fill="#335390" d="M 308.5,202.5 C 311.48,202.241 313.313,203.574 314,206.5C 315.566,212.022 315.733,217.522 314.5,223C 312.559,223.743 310.726,223.576 309,222.5C 308.5,215.842 308.334,209.175 308.5,202.5 Z"/></g>
<g><path style="opacity:1" fill="#bbc7db" d="M 390.5,202.5 C 391.167,203.833 391.833,205.167 392.5,206.5C 392.44,207.043 392.107,207.376 391.5,207.5C 390.548,205.955 390.215,204.288 390.5,202.5 Z"/></g>
<g><path style="opacity:1" fill="#a7b6d0" d="M 467.5,211.5 C 471.634,212.485 475.968,212.818 480.5,212.5C 475.35,213.651 470.016,213.817 464.5,213C 465.244,211.961 466.244,211.461 467.5,211.5 Z"/></g>
<g><path style="opacity:1" fill="#bec9dc" d="M 390.5,216.5 C 389.71,217.401 388.71,218.068 387.5,218.5C 387.821,216.952 388.821,216.285 390.5,216.5 Z"/></g>
<g><path style="opacity:1" fill="#385692" d="M 322.5,232.5 C 325.187,232.336 327.854,232.503 330.5,233C 333.281,236.807 332.281,239.474 327.5,241C 319.634,243.258 311.634,243.924 303.5,243C 299.885,242.196 297.552,240.029 296.5,236.5C 302.138,235.67 307.804,235.17 313.5,235C 316.742,234.594 319.742,233.761 322.5,232.5 Z"/></g>
<g><path style="opacity:1" fill="#f9c07a" d="M 285.5,265.5 C 299.573,271.192 314.24,273.025 329.5,271C 331.25,269.681 333.25,269.181 335.5,269.5C 335.5,270.833 335.5,272.167 335.5,273.5C 327.188,274.24 318.854,274.573 310.5,274.5C 310.452,277.292 311.785,279.125 314.5,280C 321.606,281.418 328.606,281.918 335.5,281.5C 326.993,283.81 318.327,284.81 309.5,284.5C 309.872,288.043 311.872,290.21 315.5,291C 321.167,291.667 326.833,291.667 332.5,291C 333.877,289.759 335.21,289.592 336.5,290.5C 329.934,292.651 323.267,294.485 316.5,296C 318.221,297.527 320.221,298.527 322.5,299C 310.405,300.197 298.739,298.53 287.5,294C 286.833,293.333 286.167,292.667 285.5,292C 286.848,290.426 287.514,288.593 287.5,286.5C 285.84,279.602 285.174,272.602 285.5,265.5 Z"/></g>
<g><path style="opacity:1" fill="#b5c2d8" d="M 345.5,269.5 C 346.486,273.97 346.819,278.637 346.5,283.5C 349.059,283.198 351.393,283.532 353.5,284.5C 350.833,284.5 348.167,284.5 345.5,284.5C 345.5,279.5 345.5,274.5 345.5,269.5 Z"/></g>
<g><path style="opacity:1" fill="#f7f8fb" d="M 264.5,291.5 C 267.85,291.335 271.183,291.502 274.5,292C 278.585,297.079 283.585,301.079 289.5,304C 307.698,310.752 325.364,309.752 342.5,301C 345.008,298.31 347.008,295.31 348.5,292C 351.054,291.442 353.054,292.275 354.5,294.5C 346.211,306.154 334.878,312.987 320.5,315C 305.396,318.057 290.73,316.724 276.5,311C 270.496,306.484 266.163,300.651 263.5,293.5C 263.863,292.817 264.196,292.15 264.5,291.5 Z"/></g>
<g><path style="opacity:1" fill="#6676a4" d="M 251.5,295.5 C 253.167,295.5 254.833,295.5 256.5,295.5C 257.766,304.268 262.099,311.101 269.5,316C 291.585,327.622 314.252,328.622 337.5,319C 349.14,314.192 358.14,306.359 364.5,295.5C 368.464,296.439 372.464,297.272 376.5,298C 371.53,300.975 367.196,304.642 363.5,309C 364,309.167 364.5,309.333 365,309.5C 372.102,305.298 379.602,301.965 387.5,299.5C 390.998,300.535 394.331,301.869 397.5,303.5C 388.411,306.806 379.744,310.973 371.5,316C 383.893,312.155 396.56,308.988 409.5,306.5C 412.622,307.561 415.622,308.894 418.5,310.5C 406.622,315.605 394.622,320.438 382.5,325C 397.691,322.954 412.691,319.787 427.5,315.5C 431.385,317.053 434.718,319.386 437.5,322.5C 425.268,325.389 413.268,328.889 401.5,333C 407.08,334.517 412.747,334.851 418.5,334C 427.043,332.159 435.543,330.325 444,328.5C 447.226,330.869 449.392,333.869 450.5,337.5C 439.188,337.401 428.188,339.068 417.5,342.5C 419.078,343.298 420.744,343.798 422.5,344C 433.833,344.333 445.167,344.667 456.5,345C 458.202,347.235 459.202,349.735 459.5,352.5C 448.119,352.144 436.785,352.644 425.5,354C 425.043,354.414 424.709,354.914 424.5,355.5C 427.298,356.969 430.298,357.802 433.5,358C 443.22,358.586 452.887,358.586 462.5,358C 463.812,361.051 464.812,364.217 465.5,367.5C 457.54,367.739 449.54,367.906 441.5,368C 437.529,368.085 433.862,369.085 430.5,371C 441.489,371.842 452.489,372.508 463.5,373C 459.91,374.53 456.243,375.864 452.5,377C 439.699,379.637 426.865,381.804 414,383.5C 412.981,379.774 411.647,376.107 410,372.5C 407.408,371.018 405.075,371.352 403,373.5C 401.763,377.06 401.263,380.727 401.5,384.5C 391.507,385.333 381.507,386.166 371.5,387C 337.833,387.667 304.167,387.667 270.5,387C 251.428,386.204 232.428,384.704 213.5,382.5C 213.666,378.486 213.499,374.486 213,370.5C 210.975,368.275 208.642,367.941 206,369.5C 204.154,372.204 202.987,375.204 202.5,378.5C 201.833,378.833 201.167,379.167 200.5,379.5C 191.471,377.101 182.471,374.601 173.5,372C 167.509,371.501 161.509,371.334 155.5,371.5C 155.273,359.619 158.773,348.952 166,339.5C 177.653,325.501 191.819,315.001 208.5,308C 222.749,303.078 237.082,298.912 251.5,295.5 Z"/></g>
</svg>
